<?xml version="1.0" encoding="UTF-8" standalone="no"?>
<svg
   xmlns:dc="http://purl.org/dc/elements/1.1/"
   xmlns:cc="http://creativecommons.org/ns#"
   xmlns:rdf="http://www.w3.org/1999/02/22-rdf-syntax-ns#"
   xmlns:svg="http://www.w3.org/2000/svg"
   xmlns="http://www.w3.org/2000/svg"
   xmlns:xlink="http://www.w3.org/1999/xlink"
   xmlns:sodipodi="http://sodipodi.sourceforge.net/DTD/sodipodi-0.dtd"
   xmlns:inkscape="http://www.inkscape.org/namespaces/inkscape"
   width="120mm"
   height="120mm"
   viewBox="0 0 120 120"
   version="1.1"
   id="svg8"
   inkscape:version="1.0.2 (e86c870879, 2021-01-15)"
   sodipodi:docname="logo.svg">
  <defs
     id="defs2">
    <linearGradient
       inkscape:collect="always"
       id="linearGradient1074">
      <stop
         style="stop-color:#ff6d6d;stop-opacity:1"
         offset="0"
         id="stop1070" />
      <stop
         style="stop-color:#ff955d;stop-opacity:1"
         offset="1"
         id="stop1072" />
    </linearGradient>
    <radialGradient
       inkscape:collect="always"
       xlink:href="#linearGradient1074"
       id="radialGradient1076"
       cx="21.528168"
       cy="155.5921"
       fx="21.528168"
       fy="155.5921"
       r="64.312752"
       gradientUnits="userSpaceOnUse"
       gradientTransform="matrix(1.9588077,-0.39386572,0.19712891,0.98037758,-51.313092,11.532301)" />
    <clipPath
       clipPathUnits="userSpaceOnUse"
       id="clipPath1348">
      <circle
         style="fill:none;fill-opacity:1;stroke:#ff6d6d;stroke-width:0.0899999;stroke-opacity:1"
         id="circle1350"
         cx="83.839897"
         cy="143.07788"
         r="64.312752" />
    </clipPath>
  </defs>
  <sodipodi:namedview
     id="base"
     pagecolor="#ffffff"
     bordercolor="#666666"
     borderopacity="1.0"
     inkscape:pageopacity="0.0"
     inkscape:pageshadow="2"
     inkscape:zoom="0.35"
     inkscape:cx="350.30255"
     inkscape:cy="246.00486"
     inkscape:document-units="mm"
     inkscape:current-layer="layer1"
     inkscape:document-rotation="0"
     showgrid="false"
     fit-margin-top="0"
     fit-margin-left="0"
     fit-margin-right="0"
     fit-margin-bottom="0"
     inkscape:pagecheckerboard="true"
     inkscape:window-width="4500"
     inkscape:window-height="2980"
     inkscape:window-x="0"
     inkscape:window-y="20"
     inkscape:window-maximized="0" />
  <metadata
     id="metadata5">
    <rdf:RDF>
      <cc:Work
         rdf:about="">
        <dc:format>image/svg+xml</dc:format>
        <dc:type
           rdf:resource="http://purl.org/dc/dcmitype/StillImage" />
        <dc:title></dc:title>
      </cc:Work>
    </rdf:RDF>
  </metadata>
  <g
     inkscape:label="Layer 1"
     inkscape:groupmode="layer"
     id="layer1"
     transform="translate(-23.839897,-83.077881)">
    <g
       id="g1337"
       clip-path="url(#clipPath1348)"
       transform="matrix(0.93294095,0,0,0.93294095,5.6222235,9.5946662)">
      <circle
         style="opacity:1;fill:url(#radialGradient1076);fill-opacity:1;stroke:none;stroke-width:0.0899999"
         id="path833"
         cx="83.839897"
         cy="143.07788"
         r="64.312752" />
      <path
         id="path833-3-6-2"
         style="opacity:0.112153;fill:#131101;fill-opacity:1;stroke:none;stroke-width:0.0449998"
         d="m 70.468568,93.317301 a 32.156376,32.156376 0 0 0 -0.228926,0.001 32.156376,32.156376 0 0 0 -0.244946,0.0026 32.156376,32.156376 0 0 0 -0.245464,0.0052 32.156376,32.156376 0 0 0 -0.244946,0.0062 32.156376,32.156376 0 0 0 -0.165881,0.0057 64.312752,64.312752 0 0 1 0.0078,0.0072 64.312752,64.312752 0 0 1 5.18e-4,5.16e-4 32.156376,32.156376 0 0 0 -31.020329,32.136033 32.156376,32.156376 0 0 0 32.156175,32.15618 32.156376,32.156376 0 0 0 19.659782,-6.70967 64.312752,64.312752 0 0 1 -0.01447,0.0966 64.312752,64.312752 0 0 1 -0.05271,0.34262 64.312752,64.312752 0 0 1 -0.0553,0.34261 64.312752,64.312752 0 0 1 -0.05684,0.3421 64.312752,64.312752 0 0 1 -0.05839,0.3421 64.312752,64.312752 0 0 1 -0.06046,0.34158 64.312752,64.312752 0 0 1 -0.06253,0.34106 64.312752,64.312752 0 0 1 -0.06408,0.34107 64.312752,64.312752 0 0 1 -0.06615,0.34055 64.312752,64.312752 0 0 1 -0.0677,0.34003 64.312752,64.312752 0 0 1 -0.06976,0.34003 64.312752,64.312752 0 0 1 -0.07131,0.33899 64.312752,64.312752 0 0 1 -0.07338,0.33952 64.312752,64.312752 0 0 1 -0.07545,0.33848 64.312752,64.312752 0 0 1 -0.077,0.33796 64.312752,64.312752 0 0 1 -0.07855,0.33797 64.312752,64.312752 0 0 1 -0.08062,0.33744 64.312752,64.312752 0 0 1 -0.08268,0.33693 64.312752,64.312752 0 0 1 -0.08423,0.33642 64.312752,64.312752 0 0 1 -0.08578,0.33589 64.312752,64.312752 0 0 1 -0.08837,0.3359 64.312752,64.312752 0 0 1 -0.0894,0.33487 64.312752,64.312752 0 0 1 -0.09147,0.33434 64.312752,64.312752 0 0 1 -0.09354,0.33435 64.312752,64.312752 0 0 1 -0.09508,0.33331 64.312752,64.312752 0 0 1 -0.09664,0.33331 64.312752,64.312752 0 0 1 -0.0987,0.33228 64.312752,64.312752 0 0 1 -0.100769,0.33228 64.312752,64.312752 0 0 1 -0.10232,0.33125 64.312752,64.312752 0 0 1 -0.10387,0.33125 64.312752,64.312752 0 0 1 -0.105936,0.33021 64.312752,64.312752 0 0 1 -0.107487,0.32969 64.312752,64.312752 0 0 1 -0.109554,0.32918 64.312752,64.312752 0 0 1 -0.111106,0.32866 64.312752,64.312752 0 0 1 -0.11317,0.32763 64.312752,64.312752 0 0 1 -0.114721,0.32763 64.312752,64.312752 0 0 1 -0.116274,0.32659 64.312752,64.312752 0 0 1 -0.118337,0.32608 64.312752,64.312752 0 0 1 -0.119891,0.32556 64.312752,64.312752 0 0 1 -0.121957,0.32453 64.312752,64.312752 0 0 1 -0.123505,0.32453 64.312752,64.312752 0 0 1 -0.125058,0.32349 64.312752,64.312752 0 0 1 -0.127124,0.32247 64.312752,64.312752 0 0 1 -0.128675,0.32246 64.312752,64.312752 0 0 1 -0.130741,0.32091 64.312752,64.312752 0 0 1 -0.132292,0.32091 64.312752,64.312752 0 0 1 -0.133842,0.31988 64.312752,64.312752 0 0 1 -0.13539,0.31936 64.312752,64.312752 0 0 1 -0.137462,0.31832 64.312752,64.312752 0 0 1 -0.139009,0.31781 64.312752,64.312752 0 0 1 -0.141076,0.3173 64.312752,64.312752 0 0 1 -0.142626,0.31626 64.312752,64.312752 0 0 1 -0.144177,0.31522 64.312752,64.312752 0 0 1 -0.14573,0.31471 64.312752,64.312752 0 0 1 -0.147793,0.3142 64.312752,64.312752 0 0 1 -0.149344,0.31264 64.312752,64.312752 0 0 1 -0.150895,0.31264 64.312752,64.312752 0 0 1 -0.152448,0.31109 64.312752,64.312752 0 0 1 -0.154511,0.31109 64.312752,64.312752 0 0 1 -0.156062,0.30954 64.312752,64.312752 0 0 1 -0.157615,0.30903 64.312752,64.312752 0 0 1 -0.159162,0.30799 64.312752,64.312752 0 0 1 -0.161232,0.30748 64.312752,64.312752 0 0 1 -0.16278,0.30644 64.312752,64.312752 0 0 1 -0.16433,0.3054 64.312752,64.312752 0 0 1 -0.165883,0.30438 64.312752,64.312752 0 0 1 -0.167431,0.30386 64.312752,64.312752 0 0 1 -0.169497,0.30282 64.312752,64.312752 0 0 1 -0.170532,0.30179 64.312752,64.312752 0 0 1 -0.172601,0.30076 64.312752,64.312752 0 0 1 -0.174149,0.30024 64.312752,64.312752 0 0 1 -0.175699,0.2992 64.312752,64.312752 0 0 1 -0.177253,0.29766 64.312752,64.312752 0 0 1 -0.179316,0.29714 64.312752,64.312752 0 0 1 -0.18035,0.29662 64.312752,64.312752 0 0 1 -0.182417,0.29508 64.312752,64.312752 0 0 1 -0.183452,0.29404 64.312752,64.312752 0 0 1 -0.18552,0.29352 64.312752,64.312752 0 0 1 -0.18655,0.29197 64.312752,64.312752 0 0 1 -0.188619,0.29145 64.312752,64.312752 0 0 1 -0.190169,0.28991 64.312752,64.312752 0 0 1 -0.19172,0.28939 64.312752,64.312752 0 0 1 -0.192754,0.28783 64.312752,64.312752 0 0 1 -0.194821,0.28733 64.312752,64.312752 0 0 1 -0.196371,0.28577 64.312752,64.312752 0 0 1 -0.197919,0.28525 64.312752,64.312752 0 0 1 -0.199472,0.2837 64.312752,64.312752 0 0 1 -0.200504,0.28267 64.312752,64.312752 0 0 1 -0.202573,0.28164 64.312752,64.312752 0 0 1 -0.203604,0.2806 64.312752,64.312752 0 0 1 -0.205672,0.27957 64.312752,64.312752 0 0 1 -0.206705,0.27854 64.312752,64.312752 0 0 1 -0.208772,0.2775 64.312752,64.312752 0 0 1 -0.209807,0.27595 64.312752,64.312752 0 0 1 -0.211357,0.27492 64.312752,64.312752 0 0 1 -0.212908,0.27389 64.312752,64.312752 0 0 1 -0.214455,0.27285 64.312752,64.312752 0 0 1 -0.215493,0.2713 64.312752,64.312752 0 0 1 -0.217556,0.27079 64.312752,64.312752 0 0 1 -0.218593,0.26923 64.312752,64.312752 0 0 1 -0.220142,0.26768 64.312752,64.312752 0 0 1 -0.221691,0.26717 64.312752,64.312752 0 0 1 -0.222724,0.26562 64.312752,64.312752 0 0 1 -0.224793,0.26458 64.312752,64.312752 0 0 1 -0.225827,0.26303 64.312752,64.312752 0 0 1 -0.227375,0.262 64.312752,64.312752 0 0 1 -0.228928,0.26097 64.312752,64.312752 0 0 1 -0.22996,0.25941 64.312752,64.312752 0 0 1 -0.23151,0.25839 64.312752,64.312752 0 0 1 -0.233061,0.25683 64.312752,64.312752 0 0 1 -0.234093,0.2558 64.312752,64.312752 0 0 1 -0.235646,0.25425 64.312752,64.312752 0 0 1 -0.237193,0.25373 64.312752,64.312752 0 0 1 -0.238228,0.25166 64.312752,64.312752 0 0 1 -0.239779,0.25063 64.312752,64.312752 0 0 1 -0.241329,0.2496 64.312752,64.312752 0 0 1 -0.242364,0.24804 64.312752,64.312752 0 0 1 -0.243911,0.2465 64.312752,64.312752 0 0 1 -0.244946,0.24546 64.312752,64.312752 0 0 1 -0.246499,0.24443 64.312752,64.312752 0 0 1 -0.247529,0.24237 64.312752,64.312752 0 0 1 -0.249081,0.24184 64.312752,64.312752 0 0 1 -0.250629,0.23978 64.312752,64.312752 0 0 1 -0.251667,0.23874 64.312752,64.312752 0 0 1 -0.252695,0.2372 64.312752,64.312752 0 0 1 -0.254249,0.23616 64.312752,64.312752 0 0 1 -0.255799,0.23461 64.312752,64.312752 0 0 1 -0.256315,0.23358 64.312752,64.312752 0 0 1 -0.258382,0.23151 64.312752,64.312752 0 0 1 -0.2589,0.23048 64.312752,64.312752 0 0 1 -0.260448,0.22893 64.312752,64.312752 0 0 1 -0.262001,0.22789 64.312752,64.312752 0 0 1 -0.263032,0.22634 64.312752,64.312752 0 0 1 -0.264065,0.22479 64.312752,64.312752 0 0 1 -0.265102,0.22324 64.312752,64.312752 0 0 1 -0.26665,0.22221 64.312752,64.312752 0 0 1 -0.267684,0.22015 64.312752,64.312752 0 0 1 -0.269235,0.2191 64.312752,64.312752 0 0 1 -0.26975,0.21756 64.312752,64.312752 0 0 1 -0.271302,0.21653 64.312752,64.312752 0 0 1 -0.272851,0.21445 64.312752,64.312752 0 0 1 -0.273368,0.21342 64.312752,64.312752 0 0 1 -0.274918,0.21188 64.312752,64.312752 0 0 1 -0.275952,0.2098 64.312752,64.312752 0 0 1 -0.276987,0.20878 64.312752,64.312752 0 0 1 -0.278019,0.20722 64.312752,64.312752 0 0 1 -0.279053,0.20619 64.312752,64.312752 0 0 1 -0.280602,0.20412 64.312752,64.312752 0 0 1 -0.281638,0.20257 64.312752,64.312752 0 0 1 -0.282152,0.20154 64.312752,64.312752 0 0 1 -0.283704,0.19947 64.312752,64.312752 0 0 1 -0.284737,0.19792 64.312752,64.312752 0 0 1 -0.285771,0.19689 64.312752,64.312752 0 0 1 -0.286803,0.19482 64.312752,64.312752 0 0 1 -0.287838,0.19379 64.312752,64.312752 0 0 1 -0.288872,0.19172 64.312752,64.312752 0 0 1 -0.289904,0.19068 64.312752,64.312752 0 0 1 -0.290938,0.18862 64.312752,64.312752 0 0 1 -0.291973,0.18759 64.312752,64.312752 0 0 1 -0.293005,0.18552 64.312752,64.312752 0 0 1 -0.294039,0.18396 64.312752,64.312752 0 0 1 -0.295072,0.18294 64.312752,64.312752 0 0 1 -0.296106,0.18087 64.312752,64.312752 0 0 1 -0.296624,0.17931 64.312752,64.312752 0 0 1 -0.298172,0.17777 64.312752,64.312752 0 0 1 -0.298691,0.1757 64.312752,64.312752 0 0 1 -0.299722,0.17467 64.312752,64.312752 0 0 1 -0.300758,0.17311 64.312752,64.312752 0 0 1 -0.301789,0.17105 64.312752,64.312752 0 0 1 -0.302307,0.1695 64.312752,64.312752 0 0 1 -0.303858,0.16795 64.312752,64.312752 0 0 1 -0.304374,0.1664 64.312752,64.312752 0 0 1 -0.30489,0.16484 64.312752,64.312752 0 0 1 -0.306443,0.1633 64.312752,64.312752 0 0 1 -0.306957,0.16123 64.312752,64.312752 0 0 1 -0.307991,0.15968 64.312752,64.312752 0 0 1 -0.308509,0.15813 64.312752,64.312752 0 0 1 -0.309541,0.15658 64.312752,64.312752 0 0 1 -0.310576,0.15451 64.312752,64.312752 0 0 1 -0.311092,0.15297 64.312752,64.312752 0 0 1 -0.312126,0.15141 64.312752,64.312752 0 0 1 -0.313159,0.14986 64.312752,64.312752 0 0 1 -0.313676,0.14779 64.312752,64.312752 0 0 1 -0.314709,0.14625 64.312752,64.312752 0 0 1 -0.315227,0.14469 64.312752,64.312752 0 0 1 -0.315743,0.14315 64.312752,64.312752 0 0 1 -0.316775,0.14107 64.312752,64.312752 0 0 1 -0.317813,0.13953 64.312752,64.312752 0 0 1 -0.318325,0.13798 64.312752,64.312752 0 0 1 -0.318844,0.13591 64.312752,64.312752 0 0 1 -0.319876,0.13435 64.312752,64.312752 0 0 1 -0.320911,0.13281 64.312752,64.312752 0 0 1 -0.32091,0.13074 64.312752,64.312752 0 0 1 -0.321945,0.1292 64.312752,64.312752 0 0 1 -0.322461,0.12712 64.312752,64.312752 0 0 1 -0.323495,0.12609 64.312752,64.312752 0 0 1 -0.324012,0.1235 64.312752,64.312752 0 0 1 -0.324527,0.12248 64.312752,64.312752 0 0 1 -0.325562,0.1204 64.312752,64.312752 0 0 1 -0.326078,0.11834 64.312752,64.312752 0 0 1 -0.326596,0.11731 64.312752,64.312752 0 0 1 -0.32711,0.11524 64.312752,64.312752 0 0 1 -0.327628,0.11317 64.312752,64.312752 0 0 1 -0.328663,0.11162 64.312752,64.312752 0 0 1 -0.328663,0.10956 64.312752,64.312752 0 0 1 -0.329694,0.10851 64.312752,64.312752 0 0 1 -0.330214,0.10594 64.312752,64.312752 0 0 1 -0.330729,0.10439 64.312752,64.312752 0 0 1 -0.331245,0.10284 64.312752,64.312752 0 0 1 -0.332279,0.10128 64.312752,64.312752 0 0 1 -0.33228,0.0987 64.312752,64.312752 0 0 1 -0.332796,0.0977 64.312752,64.312752 0 0 1 -0.333314,0.0956 64.312752,64.312752 0 0 1 -0.334346,0.0935 64.312752,64.312752 0 0 1 -0.334346,0.092 64.312752,64.312752 0 0 1 -0.334864,0.0899 64.312752,64.312752 0 0 1 -0.335381,0.0884 64.312752,64.312752 0 0 1 -0.335896,0.0868 64.312752,64.312752 0 0 1 -0.336413,0.0848 64.312752,64.312752 0 0 1 -0.336931,0.0827 64.312752,64.312752 0 0 1 -0.337447,0.0811 64.312752,64.312752 0 0 1 -0.337447,0.0791 64.312752,64.312752 0 0 1 -0.337965,0.0775 64.312752,64.312752 0 0 1 -0.338479,0.0755 64.312752,64.312752 0 0 1 -0.338997,0.0739 64.312752,64.312752 0 0 1 -0.339514,0.0718 64.312752,64.312752 0 0 1 -0.339516,0.0703 64.312752,64.312752 0 0 1 -0.340029,0.0682 64.312752,64.312752 0 0 1 -0.340548,0.0667 64.312752,64.312752 0 0 1 -0.341066,0.0646 64.312752,64.312752 0 0 1 -0.341064,0.0625 64.312752,64.312752 0 0 1 -0.34158,0.061 64.312752,64.312752 0 0 1 -0.341582,0.0589 64.312752,64.312752 0 0 1 -0.342098,0.0574 64.312752,64.312752 0 0 1 -0.342615,0.0553 64.312752,64.312752 0 0 1 -0.342614,0.0538 64.312752,64.312752 0 0 1 -0.343133,0.0517 64.312752,64.312752 0 0 1 -0.34313,0.0496 64.312752,64.312752 0 0 1 -0.343649,0.0481 64.312752,64.312752 0 0 1 -0.343648,0.0465 64.312752,64.312752 0 0 1 -0.344165,0.0439 64.312752,64.312752 0 0 1 -0.101804,0.0124 64.312752,64.312752 0 0 0 7.938535,0.49196 64.312752,64.312752 0 0 0 61.488251,-45.46183 32.156376,32.156376 0 0 0 10.62054,1.80506 32.156376,32.156376 0 0 0 19.67683,-6.7231 64.312752,64.312752 0 0 1 -0.0176,0.1173 64.312752,64.312752 0 0 1 -0.0527,0.34262 64.312752,64.312752 0 0 1 -0.0553,0.34261 64.312752,64.312752 0 0 1 -0.0568,0.3421 64.312752,64.312752 0 0 1 -0.0584,0.3421 64.312752,64.312752 0 0 1 -0.0605,0.34158 64.312752,64.312752 0 0 1 -0.0625,0.34106 64.312752,64.312752 0 0 1 -0.0641,0.34107 64.312752,64.312752 0 0 1 -0.0661,0.34055 64.312752,64.312752 0 0 1 -0.0677,0.34002 64.312752,64.312752 0 0 1 -0.0698,0.34004 64.312752,64.312752 0 0 1 -0.0713,0.33899 64.312752,64.312752 0 0 1 -0.0734,0.33952 64.312752,64.312752 0 0 1 -0.0754,0.33848 64.312752,64.312752 0 0 1 -0.077,0.33796 64.312752,64.312752 0 0 1 -0.0786,0.33797 64.312752,64.312752 0 0 1 -0.0806,0.33744 64.312752,64.312752 0 0 1 -0.0827,0.33693 64.312752,64.312752 0 0 1 -0.0842,0.33642 64.312752,64.312752 0 0 1 -0.0858,0.33589 64.312752,64.312752 0 0 1 -0.0884,0.3359 64.312752,64.312752 0 0 1 -0.0894,0.33486 64.312752,64.312752 0 0 1 -0.0915,0.33435 64.312752,64.312752 0 0 1 -0.0935,0.33435 64.312752,64.312752 0 0 1 -0.0951,0.33331 64.312752,64.312752 0 0 1 -0.0966,0.33331 64.312752,64.312752 0 0 1 -0.0987,0.33228 64.312752,64.312752 0 0 1 -0.10077,0.33228 64.312752,64.312752 0 0 1 -0.10231,0.33125 64.312752,64.312752 0 0 1 -0.10387,0.33124 64.312752,64.312752 0 0 1 -0.10594,0.33022 64.312752,64.312752 0 0 1 -0.10749,0.32969 64.312752,64.312752 0 0 1 -0.10955,0.32918 64.312752,64.312752 0 0 1 -0.11111,0.32866 64.312752,64.312752 0 0 1 -0.11317,0.32763 64.312752,64.312752 0 0 1 -0.11472,0.32763 64.312752,64.312752 0 0 1 -0.11627,0.32659 64.312752,64.312752 0 0 1 -0.11834,0.32608 64.312752,64.312752 0 0 1 -0.11989,0.32557 64.312752,64.312752 0 0 1 -0.12196,0.32452 64.312752,64.312752 0 0 1 -0.1235,0.32453 64.312752,64.312752 0 0 1 -0.12506,0.3235 64.312752,64.312752 0 0 1 -0.12712,0.32246 64.312752,64.312752 0 0 1 -0.12868,0.32246 64.312752,64.312752 0 0 1 -0.13074,0.32091 64.312752,64.312752 0 0 1 -0.13229,0.32091 64.312752,64.312752 0 0 1 -0.13384,0.31988 64.312752,64.312752 0 0 1 -0.1354,0.31936 64.312752,64.312752 0 0 1 -0.13746,0.31832 64.312752,64.312752 0 0 1 -0.139,0.31781 64.312752,64.312752 0 0 1 -0.14108,0.3173 64.312752,64.312752 0 0 1 -0.14263,0.31626 64.312752,64.312752 0 0 1 -0.14417,0.31522 64.312752,64.312752 0 0 1 -0.14573,0.31471 64.312752,64.312752 0 0 1 -0.1478,0.31419 64.312752,64.312752 0 0 1 -0.14934,0.31265 64.312752,64.312752 0 0 1 -0.1509,0.31264 64.312752,64.312752 0 0 1 -0.15244,0.31109 64.312752,64.312752 0 0 1 -0.15451,0.31109 64.312752,64.312752 0 0 1 -0.15607,0.30955 64.312752,64.312752 0 0 1 -0.15761,0.30902 64.312752,64.312752 0 0 1 -0.15916,0.30799 64.312752,64.312752 0 0 1 -0.16124,0.30748 64.312752,64.312752 0 0 1 -0.16278,0.30644 64.312752,64.312752 0 0 1 -0.16433,0.30541 64.312752,64.312752 0 0 1 -0.16588,0.30437 64.312752,64.312752 0 0 1 -0.16743,0.30386 64.312752,64.312752 0 0 1 -0.1695,0.30282 64.312752,64.312752 0 0 1 -0.17053,0.30179 64.312752,64.312752 0 0 1 -0.1726,0.30076 64.312752,64.312752 0 0 1 -0.17415,0.30024 64.312752,64.312752 0 0 1 -0.1757,0.29921 64.312752,64.312752 0 0 1 -0.17725,0.29765 64.312752,64.312752 0 0 1 -0.17932,0.29714 64.312752,64.312752 0 0 1 -0.18035,0.29662 64.312752,64.312752 0 0 1 -0.18242,0.29508 64.312752,64.312752 0 0 1 -0.18345,0.29404 64.312752,64.312752 0 0 1 -0.18552,0.29352 64.312752,64.312752 0 0 1 -0.18655,0.29197 64.312752,64.312752 0 0 1 -0.18862,0.29145 64.312752,64.312752 0 0 1 -0.19016,0.28991 64.312752,64.312752 0 0 1 -0.19172,0.28939 64.312752,64.312752 0 0 1 -0.19276,0.28784 64.312752,64.312752 0 0 1 -0.19482,0.28731 64.312752,64.312752 0 0 1 -0.19637,0.28578 64.312752,64.312752 0 0 1 -0.19792,0.28525 64.312752,64.312752 0 0 1 -0.19947,0.2837 64.312752,64.312752 0 0 1 -0.2005,0.28267 64.312752,64.312752 0 0 1 -0.20258,0.28164 64.312752,64.312752 0 0 1 -0.2036,0.2806 64.312752,64.312752 0 0 1 -0.20567,0.27957 64.312752,64.312752 0 0 1 -0.20671,0.27854 64.312752,64.312752 0 0 1 -0.20877,0.2775 64.312752,64.312752 0 0 1 -0.20981,0.27595 64.312752,64.312752 0 0 1 -0.21135,0.27492 64.312752,64.312752 0 0 1 -0.21291,0.27389 64.312752,64.312752 0 0 1 -0.21446,0.27285 64.312752,64.312752 0 0 1 -0.21549,0.2713 64.312752,64.312752 0 0 1 -0.21756,0.27078 64.312752,64.312752 0 0 1 -0.21859,0.26924 64.312752,64.312752 0 0 1 -0.22014,0.26768 64.312752,64.312752 0 0 1 -0.22169,0.26717 64.312752,64.312752 0 0 1 -0.22273,0.26562 64.312752,64.312752 0 0 1 -0.22479,0.26458 64.312752,64.312752 0 0 1 -0.22583,0.26303 64.312752,64.312752 0 0 1 -0.22737,0.262 64.312752,64.312752 0 0 1 -0.22893,0.26097 64.312752,64.312752 0 0 1 -0.22996,0.25941 64.312752,64.312752 0 0 1 -0.23151,0.25839 64.312752,64.312752 0 0 1 -0.23306,0.25683 64.312752,64.312752 0 0 1 -0.23409,0.2558 64.312752,64.312752 0 0 1 -0.23565,0.25424 64.312752,64.312752 0 0 1 -0.23719,0.25374 64.312752,64.312752 0 0 1 -0.23823,0.25166 64.312752,64.312752 0 0 1 -0.23978,0.25063 64.312752,64.312752 0 0 1 -0.24133,0.2496 64.312752,64.312752 0 0 1 -0.24236,0.24804 64.312752,64.312752 0 0 1 -0.24391,0.2465 64.312752,64.312752 0 0 1 -0.24495,0.24547 64.312752,64.312752 0 0 1 -0.2465,0.24443 64.312752,64.312752 0 0 1 -0.24753,0.24236 64.312752,64.312752 0 0 1 -0.24908,0.24184 64.312752,64.312752 0 0 1 -0.25063,0.23978 64.312752,64.312752 0 0 1 -0.25166,0.23875 64.312752,64.312752 0 0 1 -0.2527,0.23719 64.312752,64.312752 0 0 1 -0.25425,0.23616 64.312752,64.312752 0 0 1 -0.2558,0.23461 64.312752,64.312752 0 0 1 -0.25631,0.23358 64.312752,64.312752 0 0 1 -0.25838,0.23151 64.312752,64.312752 0 0 1 -0.2589,0.23048 64.312752,64.312752 0 0 1 -0.26045,0.22892 64.312752,64.312752 0 0 1 -0.262,0.2279 64.312752,64.312752 0 0 1 -0.26304,0.22634 64.312752,64.312752 0 0 1 -0.26406,0.22479 64.312752,64.312752 0 0 1 -0.2651,0.22324 64.312752,64.312752 0 0 1 -0.26665,0.22221 64.312752,64.312752 0 0 1 -0.26769,0.22014 64.312752,64.312752 0 0 1 -0.26923,0.21911 64.312752,64.312752 0 0 1 -0.26975,0.21756 64.312752,64.312752 0 0 1 -0.2713,0.21652 64.312752,64.312752 0 0 1 -0.27285,0.21446 64.312752,64.312752 0 0 1 -0.27337,0.21343 64.312752,64.312752 0 0 1 -0.27492,0.21187 64.312752,64.312752 0 0 1 -0.27595,0.20981 64.312752,64.312752 0 0 1 -0.27699,0.20877 64.312752,64.312752 0 0 1 -0.27802,0.20722 64.312752,64.312752 0 0 1 -0.27905,0.20619 64.312752,64.312752 0 0 1 -0.2806,0.20412 64.312752,64.312752 0 0 1 -0.28164,0.20257 64.312752,64.312752 0 0 1 -0.28215,0.20154 64.312752,64.312752 0 0 1 -0.28371,0.19947 64.312752,64.312752 0 0 1 -0.28473,0.19792 64.312752,64.312752 0 0 1 -0.28578,0.19689 64.312752,64.312752 0 0 1 -0.2868,0.19482 64.312752,64.312752 0 0 1 -0.28784,0.19379 64.312752,64.312752 0 0 1 -0.28887,0.19172 64.312752,64.312752 0 0 1 -0.2899,0.19068 64.312752,64.312752 0 0 1 -0.29094,0.18862 64.312752,64.312752 0 0 1 -0.29197,0.18759 64.312752,64.312752 0 0 1 -0.29301,0.18552 64.312752,64.312752 0 0 1 -0.29404,0.18396 64.312752,64.312752 0 0 1 -0.29507,0.18294 64.312752,64.312752 0 0 1 -0.29611,0.18086 64.312752,64.312752 0 0 1 -0.29662,0.17932 64.312752,64.312752 0 0 1 -0.29817,0.17777 64.312752,64.312752 0 0 1 -0.29869,0.1757 64.312752,64.312752 0 0 1 -0.29973,0.17467 64.312752,64.312752 0 0 1 -0.30075,0.17311 64.312752,64.312752 0 0 1 -0.30179,0.17105 64.312752,64.312752 0 0 1 -0.30231,0.1695 64.312752,64.312752 0 0 1 -0.30386,0.16795 64.312752,64.312752 0 0 1 -0.30438,0.1664 64.312752,64.312752 0 0 1 -0.30489,0.16484 64.312752,64.312752 0 0 1 -0.30644,0.1633 64.312752,64.312752 0 0 1 -0.30696,0.16123 64.312752,64.312752 0 0 1 -0.30799,0.15968 64.312752,64.312752 0 0 1 -0.308517,0.15813 64.312752,64.312752 0 0 1 -0.309537,0.15658 64.312752,64.312752 0 0 1 -0.31058,0.15451 64.312752,64.312752 0 0 1 -0.311087,0.15297 64.312752,64.312752 0 0 1 -0.31213,0.15141 64.312752,64.312752 0 0 1 -0.313147,0.14986 64.312752,64.312752 0 0 1 -0.31368,0.14779 64.312752,64.312752 0 0 1 -0.314717,0.14625 64.312752,64.312752 0 0 1 -0.315223,0.14469 64.312752,64.312752 0 0 1 -0.315743,0.14315 64.312752,64.312752 0 0 1 -0.316775,0.14107 64.312752,64.312752 0 0 1 -0.317812,0.13953 64.312752,64.312752 0 0 1 -0.318326,0.13798 64.312752,64.312752 0 0 1 -0.318844,0.1359 64.312752,64.312752 0 0 1 -0.319876,0.13436 64.312752,64.312752 0 0 1 -0.32091,0.13281 64.312752,64.312752 0 0 1 -0.320911,0.13074 64.312752,64.312752 0 0 1 -0.321945,0.12919 64.312752,64.312752 0 0 1 -0.322461,0.12713 64.312752,64.312752 0 0 1 -0.323495,0.12609 64.312752,64.312752 0 0 1 -0.324012,0.12351 64.312752,64.312752 0 0 1 -0.324527,0.12247 64.312752,64.312752 0 0 1 -0.325562,0.12041 64.312752,64.312752 0 0 1 -0.326078,0.11833 64.312752,64.312752 0 0 1 -0.326596,0.11731 64.312752,64.312752 0 0 1 -0.32711,0.11524 64.312752,64.312752 0 0 1 -0.327631,0.11317 64.312752,64.312752 0 0 1 -0.32866,0.11162 64.312752,64.312752 0 0 1 -0.328663,0.10955 64.312752,64.312752 0 0 1 -0.329694,0.10853 64.312752,64.312752 0 0 1 -0.330213,0.10593 64.312752,64.312752 0 0 1 -0.33073,0.10439 64.312752,64.312752 0 0 1 -0.331245,0.10283 64.312752,64.312752 0 0 1 -0.332279,0.10129 64.312752,64.312752 0 0 1 -0.33228,0.0987 64.312752,64.312752 0 0 1 -0.332798,0.0977 64.312752,64.312752 0 0 1 -0.333312,0.0956 64.312752,64.312752 0 0 1 -0.334346,0.0935 64.312752,64.312752 0 0 1 -0.334346,0.092 64.312752,64.312752 0 0 1 -0.334864,0.0899 64.312752,64.312752 0 0 1 -0.335381,0.0884 64.312752,64.312752 0 0 1 -0.335896,0.0868 64.312752,64.312752 0 0 1 -0.336413,0.0847 64.312752,64.312752 0 0 1 -0.336931,0.0827 64.312752,64.312752 0 0 1 -0.337447,0.0811 64.312752,64.312752 0 0 1 -0.337446,0.0791 64.312752,64.312752 0 0 1 -0.337966,0.0775 64.312752,64.312752 0 0 1 -0.338479,0.0754 64.312752,64.312752 0 0 1 -0.338997,0.0739 64.312752,64.312752 0 0 1 -0.339516,0.0718 64.312752,64.312752 0 0 1 -0.339514,0.0703 64.312752,64.312752 0 0 1 -0.340031,0.0682 64.312752,64.312752 0 0 1 -0.340546,0.0667 64.312752,64.312752 0 0 1 -0.341066,0.0646 64.312752,64.312752 0 0 1 -0.341064,0.0625 64.312752,64.312752 0 0 1 -0.34158,0.061 64.312752,64.312752 0 0 1 -0.341582,0.0589 64.312752,64.312752 0 0 1 -0.342098,0.0574 64.312752,64.312752 0 0 1 -0.342615,0.0553 64.312752,64.312752 0 0 1 -0.342614,0.0538 64.312752,64.312752 0 0 1 -0.343133,0.0517 64.312752,64.312752 0 0 1 -0.34313,0.0496 64.312752,64.312752 0 0 1 -0.343649,0.0481 64.312752,64.312752 0 0 1 -0.343648,0.0465 64.312752,64.312752 0 0 1 -0.344165,0.0439 64.312752,64.312752 0 0 1 -0.101804,0.0124 64.312752,64.312752 0 0 0 7.938535,0.49196 64.312752,64.312752 0 0 0 64.312878,-64.31236 64.312752,64.312752 0 0 0 -6.92464,-29.02975 64.312752,64.312752 0 0 0 -5.2e-4,-10e-4 32.156376,32.156376 0 0 0 -2.96209,-5.23276 32.156376,32.156376 0 0 0 -0.0176,-0.0253 32.156376,32.156376 0 0 0 -0.4284,-0.5979 32.156376,32.156376 0 0 0 0,-5.1e-4 32.156376,32.156376 0 0 0 -0.44183,-0.58808 32.156376,32.156376 0 0 0 0,-5.2e-4 32.156376,32.156376 0 0 0 -1.2423,-1.51773 32.156376,32.156376 0 0 0 0,-5.2e-4 32.156376,32.156376 0 0 0 -24.24968,-11.037582 32.156376,32.156376 0 0 0 -0.9648,0.0145 32.156376,32.156376 0 0 0 -0.16589,0.006 32.156376,32.156376 0 0 0 -18.592668,6.739142 32.156376,32.156376 0 0 0 -7.960755,-6.650252 32.156376,32.156376 0 0 0 -0.01344,-0.008 32.156376,32.156376 0 0 0 -0.197922,-0.11628 32.156376,32.156376 0 0 0 -0.01395,-0.008 32.156376,32.156376 0 0 0 -0.55862,-0.316769 32.156376,32.156376 0 0 0 -0.0677,-0.03772 32.156376,32.156376 0 0 0 -0.01395,-0.0078 32.156376,32.156376 0 0 0 -0.201539,-0.11007 32.156376,32.156376 0 0 0 -0.01395,-0.0072 32.156376,32.156376 0 0 0 -0.202055,-0.108519 32.156376,32.156376 0 0 0 -0.01395,-0.0072 32.156376,32.156376 0 0 0 -0.203086,-0.106971 32.156376,32.156376 0 0 0 -0.01395,-0.0072 32.156376,32.156376 0 0 0 -0.204121,-0.10542 32.156376,32.156376 0 0 0 -0.01395,-0.0072 32.156376,32.156376 0 0 0 -0.218591,-0.111104 32.156376,32.156376 0 0 0 -0.205671,-0.101804 32.156376,32.156376 0 0 0 -0.01395,-0.0072 32.156376,32.156376 0 0 0 -0.220657,-0.10776 32.156376,32.156376 0 0 0 -0.221176,-0.105937 32.156376,32.156376 0 0 0 -0.222208,-0.104386 32.156376,32.156376 0 0 0 -0.222726,-0.10232 32.156376,32.156376 0 0 0 -0.223758,-0.100769 32.156376,32.156376 0 0 0 -0.224277,-0.0987 32.156376,32.156376 0 0 0 -0.225308,-0.09767 32.156376,32.156376 0 0 0 -0.225828,-0.0956 32.156376,32.156376 0 0 0 -0.226343,-0.09405 32.156376,32.156376 0 0 0 -0.227375,-0.09198 32.156376,32.156376 0 0 0 -0.227893,-0.09043 32.156376,32.156376 0 0 0 -0.228926,-0.08837 32.156376,32.156376 0 0 0 -0.229444,-0.08733 32.156376,32.156376 0 0 0 -0.22996,-0.08527 32.156376,32.156376 0 0 0 -0.230478,-0.0832 32.156376,32.156376 0 0 0 -0.231511,-0.08165 32.156376,32.156376 0 0 0 -0.23151,-0.0801 32.156376,32.156376 0 0 0 -0.232542,-0.07803 32.156376,32.156376 0 0 0 -0.233061,-0.07648 32.156376,32.156376 0 0 0 -0.233577,-0.07441 32.156376,32.156376 0 0 0 -0.234611,-0.07286 32.156376,32.156376 0 0 0 -0.234612,-0.0708 32.156376,32.156376 0 0 0 -0.235127,-0.06925 32.156376,32.156376 0 0 0 -0.236162,-0.06718 32.156376,32.156376 0 0 0 -0.236161,-0.06563 32.156376,32.156376 0 0 0 -0.236678,-0.06408 32.156376,32.156376 0 0 0 -0.237712,-0.06201 32.156376,32.156376 0 0 0 -0.237713,-0.05994 32.156376,32.156376 0 0 0 -0.238228,-0.05839 32.156376,32.156376 0 0 0 -0.238744,-0.05685 32.156376,32.156376 0 0 0 -0.238744,-0.05478 32.156376,32.156376 0 0 0 -0.239779,-0.05271 32.156376,32.156376 0 0 0 -0.239778,-0.05116 32.156376,32.156376 0 0 0 -0.240298,-0.04909 32.156376,32.156376 0 0 0 -0.24081,-0.04754 32.156376,32.156376 0 0 0 -0.240813,-0.04547 32.156376,32.156376 0 0 0 -0.241329,-0.04393 32.156376,32.156376 0 0 0 -0.241845,-0.04186 32.156376,32.156376 0 0 0 -0.241845,-0.03979 32.156376,32.156376 0 0 0 -0.242364,-0.03824 32.156376,32.156376 0 0 0 -0.242364,-0.03617 32.156376,32.156376 0 0 0 -0.242877,-0.03462 32.156376,32.156376 0 0 0 -0.243398,-0.03256 32.156376,32.156376 0 0 0 -0.242877,-0.03101 32.156376,32.156376 0 0 0 -0.243914,-0.02894 32.156376,32.156376 0 0 0 -0.243911,-0.02687 32.156376,32.156376 0 0 0 -0.243914,-0.02532 32.156376,32.156376 0 0 0 -0.243912,-0.02325 32.156376,32.156376 0 0 0 -0.24443,-0.0217 32.156376,32.156376 0 0 0 -0.24443,-0.01964 32.156376,32.156376 0 0 0 -0.24443,-0.01757 32.156376,32.156376 0 0 0 -0.244946,-0.01602 32.156376,32.156376 0 0 0 -0.244946,-0.01395 32.156376,32.156376 0 0 0 -0.244946,-0.0124 32.156376,32.156376 0 0 0 -0.244946,-0.01033 32.156376,32.156376 0 0 0 -0.245464,-0.0078 32.156376,32.156376 0 0 0 -0.244946,-0.0072 32.156376,32.156376 0 0 0 -0.245462,-0.0047 32.156376,32.156376 0 0 0 -0.244949,-0.0031 32.156376,32.156376 0 0 0 -0.244946,-10e-4 z" />
      <circle
         style="opacity:0.769949;fill:#f7dc1a;stroke:none;stroke-width:0.0449999"
         id="path833-3-6"
         cx="111.88573"
         cy="127.20287"
         r="32.156376" />
      <circle
         style="opacity:0.769949;fill:#24f78f;fill-opacity:1;stroke:none;stroke-width:0.0449999"
         id="path833-3"
         cx="67.836639"
         cy="122.83591"
         r="32.156376" />
      <path
         id="path833-5-0"
         style="opacity:0.671407;fill:#f7dc1a;stroke:none;stroke-width:0.0899999"
         d="m 111.88567,95.046394 a 32.156376,32.156376 0 0 0 -0.22944,10e-4 32.156376,32.156376 0 0 0 -0.24495,0.0026 32.156376,32.156376 0 0 0 -0.24546,0.0047 32.156376,32.156376 0 0 0 -0.24495,0.0062 32.156376,32.156376 0 0 0 -0.16588,0.0057 64.312752,64.312752 0 0 1 0.008,0.0072 64.312752,64.312752 0 0 1 0.25838,0.23151 64.312752,64.312752 0 0 1 0.25735,0.232545 64.312752,64.312752 0 0 1 0.2558,0.234612 64.312752,64.312752 0 0 1 0.25425,0.235643 64.312752,64.312752 0 0 1 0.25321,0.237196 64.312752,64.312752 0 0 1 0.25218,0.238228 64.312752,64.312752 0 0 1 0.25063,0.239779 64.312752,64.312752 0 0 1 0.24908,0.240813 64.312752,64.312752 0 0 1 0.24805,0.242877 64.312752,64.312752 0 0 1 0.24701,0.243398 64.312752,64.312752 0 0 1 0.24547,0.245462 64.312752,64.312752 0 0 1 0.24391,0.246497 64.312752,64.312752 0 0 1 0.24288,0.24753 64.312752,64.312752 0 0 1 0.24133,0.249079 64.312752,64.312752 0 0 1 0.24029,0.250632 64.312752,64.312752 0 0 1 0.23875,0.251148 64.312752,64.312752 0 0 1 0.23719,0.253214 64.312752,64.312752 0 0 1 0.23616,0.254249 64.312752,64.312752 0 0 1 0.23462,0.25528 64.312752,64.312752 0 0 1 0.23306,0.256831 64.312752,64.312752 0 0 1 0.23202,0.257863 64.312752,64.312752 0 0 1 0.23048,0.25942 64.312752,64.312752 0 0 1 0.22893,0.26045 64.312752,64.312752 0 0 1 0.22789,0.26148 64.312752,64.312752 0 0 1 0.22583,0.26303 64.312752,64.312752 0 0 1 0.22479,0.26407 64.312752,64.312752 0 0 1 0.22376,0.26561 64.312752,64.312752 0 0 1 0.22169,0.26666 64.312752,64.312752 0 0 1 0.22066,0.26768 64.312752,64.312752 0 0 1 0.21911,0.26872 64.312752,64.312752 0 0 1 0.21755,0.27026 64.312752,64.312752 0 0 1 0.21601,0.2713 64.312752,64.312752 0 0 1 0.21497,0.27234 64.312752,64.312752 0 0 1 0.21291,0.27389 64.312752,64.312752 0 0 1 0.21188,0.2744 64.312752,64.312752 0 0 1 0.21032,0.27595 64.312752,64.312752 0 0 1 0.20877,0.27699 64.312752,64.312752 0 0 1 0.20722,0.27853 64.312752,64.312752 0 0 1 0.20568,0.27905 64.312752,64.312752 0 0 1 0.20412,0.28061 64.312752,64.312752 0 0 1 0.20309,0.28112 64.312752,64.312752 0 0 1 0.20102,0.28267 64.312752,64.312752 0 0 1 0.19999,0.2837 64.312752,64.312752 0 0 1 0.19792,0.28474 64.312752,64.312752 0 0 1 0.19637,0.28577 64.312752,64.312752 0 0 1 0.19533,0.2868 64.312752,64.312752 0 0 1 0.19327,0.28784 64.312752,64.312752 0 0 1 0.19224,0.28887 64.312752,64.312752 0 0 1 0.19017,0.28991 64.312752,64.312752 0 0 1 0.18913,0.29094 64.312752,64.312752 0 0 1 0.18707,0.29197 64.312752,64.312752 0 0 1 0.18604,0.293 64.312752,64.312752 0 0 1 0.18397,0.29404 64.312752,64.312752 0 0 1 0.18241,0.29507 64.312752,64.312752 0 0 1 0.18087,0.29559 64.312752,64.312752 0 0 1 0.17932,0.29714 64.312752,64.312752 0 0 1 0.17776,0.29766 64.312752,64.312752 0 0 1 0.17622,0.2992 64.312752,64.312752 0 0 1 0.17467,0.29973 64.312752,64.312752 0 0 1 0.1726,0.30075 64.312752,64.312752 0 0 1 0.17156,0.3018 64.312752,64.312752 0 0 1 0.1695,0.3023 64.312752,64.312752 0 0 1 0.16795,0.30334 64.312752,64.312752 0 0 1 0.1664,0.30438 64.312752,64.312752 0 0 1 0.16485,0.30541 64.312752,64.312752 0 0 1 0.16278,0.30644 64.312752,64.312752 0 0 1 0.16123,0.30695 64.312752,64.312752 0 0 1 0.1602,0.30748 64.312752,64.312752 0 0 1 0.15761,0.30903 64.312752,64.312752 0 0 1 0.15658,0.30954 64.312752,64.312752 0 0 1 0.15503,0.31057 64.312752,64.312752 0 0 1 0.15296,0.31109 64.312752,64.312752 0 0 1 0.15141,0.31213 64.312752,64.312752 0 0 1 0.14935,0.31316 64.312752,64.312752 0 0 1 0.14831,0.31367 64.312752,64.312752 0 0 1 0.14624,0.3142 64.312752,64.312752 0 0 1 0.1447,0.31522 64.312752,64.312752 0 0 1 0.14262,0.31626 64.312752,64.312752 0 0 1 0.1416,0.31678 64.312752,64.312752 0 0 1 0.13952,0.31781 64.312752,64.312752 0 0 1 0.13746,0.31833 64.312752,64.312752 0 0 1 0.13643,0.31884 64.312752,64.312752 0 0 1 0.13436,0.31988 64.312752,64.312752 0 0 1 0.13229,0.32039 64.312752,64.312752 0 0 1 0.13074,0.32143 64.312752,64.312752 0 0 1 0.12919,0.32194 64.312752,64.312752 0 0 1 0.12764,0.32246 64.312752,64.312752 0 0 1 0.12557,0.3235 64.312752,64.312752 0 0 1 0.12403,0.32401 64.312752,64.312752 0 0 1 0.12196,0.32453 64.312752,64.312752 0 0 1 0.1204,0.32504 64.312752,64.312752 0 0 1 0.11886,0.32608 64.312752,64.312752 0 0 1 0.11678,0.3266 64.312752,64.312752 0 0 1 0.11524,0.32711 64.312752,64.312752 0 0 1 0.11317,0.32814 64.312752,64.312752 0 0 1 0.11163,0.32815 64.312752,64.312752 0 0 1 0.11007,0.32918 64.312752,64.312752 0 0 1 0.108,0.32969 64.312752,64.312752 0 0 1 0.10645,0.33022 64.312752,64.312752 0 0 1 0.10439,0.33072 64.312752,64.312752 0 0 1 0.10284,0.33125 64.312752,64.312752 0 0 1 0.10077,0.33176 64.312752,64.312752 0 0 1 0.0992,0.33228 64.312752,64.312752 0 0 1 0.0972,0.33331 64.312752,64.312752 0 0 1 0.0956,0.33332 64.312752,64.312752 0 0 1 0.0935,0.33383 64.312752,64.312752 0 0 1 0.092,0.33486 64.312752,64.312752 0 0 1 0.0904,0.33486 64.312752,64.312752 0 0 1 0.0884,0.33538 64.312752,64.312752 0 0 1 0.0863,0.3359 64.312752,64.312752 0 0 1 0.0848,0.33641 64.312752,64.312752 0 0 1 0.0827,0.33694 64.312752,64.312752 0 0 1 0.0811,0.33692 64.312752,64.312752 0 0 1 0.0796,0.33797 64.312752,64.312752 0 0 1 0.0775,0.33796 64.312752,64.312752 0 0 1 0.0754,0.33848 64.312752,64.312752 0 0 1 0.0739,0.339 64.312752,64.312752 0 0 1 0.0718,0.33951 64.312752,64.312752 0 0 1 0.0698,0.33952 64.312752,64.312752 0 0 1 0.0687,0.34003 64.312752,64.312752 0 0 1 0.0661,0.34055 64.312752,64.312752 0 0 1 0.0646,0.34055 64.312752,64.312752 0 0 1 0.0631,0.34158 64.312752,64.312752 0 0 1 0.061,0.34106 64.312752,64.312752 0 0 1 0.0589,0.3421 64.312752,64.312752 0 0 1 0.0574,0.3421 64.312752,64.312752 0 0 1 0.0553,0.34261 64.312752,64.312752 0 0 1 0.0532,0.34262 64.312752,64.312752 0 0 1 0.0522,0.34261 64.312752,64.312752 0 0 1 0.0496,0.34365 64.312752,64.312752 0 0 1 0.0481,0.34365 64.312752,64.312752 0 0 1 0.046,0.34364 64.312752,64.312752 0 0 1 0.0444,0.34417 64.312752,64.312752 0 0 1 0.0424,0.34417 64.312752,64.312752 0 0 1 0.0403,0.34416 64.312752,64.312752 0 0 1 0.0388,0.34468 64.312752,64.312752 0 0 1 0.0372,0.3452 64.312752,64.312752 0 0 1 0.0346,0.3452 64.312752,64.312752 0 0 1 0.0336,0.3452 64.312752,64.312752 0 0 1 0.031,0.3452 64.312752,64.312752 0 0 1 0.0295,0.34571 64.312752,64.312752 0 0 1 0.0274,0.34572 64.312752,64.312752 0 0 1 0.0258,0.34623 64.312752,64.312752 0 0 1 0.0238,0.34572 64.312752,64.312752 0 0 1 0.0217,0.34623 64.312752,64.312752 0 0 1 0.0202,0.34623 64.312752,64.312752 0 0 1 0.0186,0.34675 64.312752,64.312752 0 0 1 0.016,0.34623 64.312752,64.312752 0 0 1 0.0145,0.34675 64.312752,64.312752 0 0 1 0.0124,0.34675 64.312752,64.312752 0 0 1 0.0109,0.34675 64.312752,64.312752 0 0 1 0.009,0.34674 64.312752,64.312752 0 0 1 0.007,0.34675 64.312752,64.312752 0 0 1 0.005,0.34675 64.312752,64.312752 0 0 1 0.003,0.34675 64.312752,64.312752 0 0 1 0.002,0.34675 64.312752,64.312752 0 0 1 0,0.0822 64.312752,64.312752 0 0 1 -10e-4,0.34674 64.312752,64.312752 0 0 1 -0.003,0.34675 64.312752,64.312752 0 0 1 -0.005,0.34675 64.312752,64.312752 0 0 1 -0.007,0.34675 64.312752,64.312752 0 0 1 -0.008,0.34675 64.312752,64.312752 0 0 1 -0.0103,0.34675 64.312752,64.312752 0 0 1 -0.0124,0.34675 64.312752,64.312752 0 0 1 -0.014,0.34675 64.312752,64.312752 0 0 1 -0.016,0.34623 64.312752,64.312752 0 0 1 -0.0176,0.34675 64.312752,64.312752 0 0 1 -0.0196,0.34623 64.312752,64.312752 0 0 1 -0.0217,0.34623 64.312752,64.312752 0 0 1 -0.0233,0.34624 64.312752,64.312752 0 0 1 -0.0253,0.34571 64.312752,64.312752 0 0 1 -0.0269,0.34572 64.312752,64.312752 0 0 1 -0.0289,0.34571 64.312752,64.312752 0 0 1 -0.031,0.34572 64.312752,64.312752 0 0 1 -0.0326,0.34519 64.312752,64.312752 0 0 1 -0.0346,0.3452 64.312752,64.312752 0 0 1 -0.0362,0.34469 64.312752,64.312752 0 0 1 -0.0388,0.34519 64.312752,64.312752 0 0 1 -0.0398,0.34417 64.312752,64.312752 0 0 1 -0.0419,0.34468 64.312752,64.312752 0 0 1 -0.0439,0.34365 64.312752,64.312752 0 0 1 -0.046,0.34416 64.312752,64.312752 0 0 1 -0.0475,0.34365 64.312752,64.312752 0 0 1 -0.0491,0.34313 64.312752,64.312752 0 0 1 -0.0341,0.22583 64.312752,64.312752 0 0 1 -0.0176,0.11731 64.312752,64.312752 0 0 1 -0.0527,0.34261 64.312752,64.312752 0 0 1 -0.0553,0.34261 64.312752,64.312752 0 0 1 -0.0568,0.3421 64.312752,64.312752 0 0 1 -0.0584,0.3421 64.312752,64.312752 0 0 1 -0.0605,0.34158 64.312752,64.312752 0 0 1 -0.0625,0.34107 64.312752,64.312752 0 0 1 -0.0641,0.34106 64.312752,64.312752 0 0 1 -0.0661,0.34055 64.312752,64.312752 0 0 1 -0.0677,0.34003 64.312752,64.312752 0 0 1 -0.0698,0.34003 64.312752,64.312752 0 0 1 -0.0713,0.339 64.312752,64.312752 0 0 1 -0.0734,0.33951 64.312752,64.312752 0 0 1 -0.0754,0.33848 64.312752,64.312752 0 0 1 -0.077,0.33797 64.312752,64.312752 0 0 1 -0.0785,0.33796 64.312752,64.312752 0 0 1 -0.0806,0.33745 64.312752,64.312752 0 0 1 -0.0827,0.33693 64.312752,64.312752 0 0 1 -0.0842,0.33641 64.312752,64.312752 0 0 1 -0.0858,0.3359 64.312752,64.312752 0 0 1 -0.0884,0.33589 64.312752,64.312752 0 0 1 -0.0894,0.33487 64.312752,64.312752 0 0 1 -0.0915,0.33434 64.312752,64.312752 0 0 1 -0.0935,0.33435 64.312752,64.312752 0 0 1 -0.0951,0.33331 64.312752,64.312752 0 0 1 -0.0966,0.33332 64.312752,64.312752 0 0 1 -0.0987,0.33228 64.312752,64.312752 0 0 1 -0.10077,0.33227 64.312752,64.312752 0 0 1 -0.10232,0.33125 64.312752,64.312752 0 0 1 -0.10387,0.33125 64.312752,64.312752 0 0 1 -0.10593,0.33021 64.312752,64.312752 0 0 1 -0.10749,0.3297 64.312752,64.312752 0 0 1 -0.10956,0.32917 64.312752,64.312752 0 0 1 -0.1111,0.32867 64.312752,64.312752 0 0 1 -0.11317,0.32763 64.312752,64.312752 0 0 1 -0.11472,0.32762 64.312752,64.312752 0 0 1 -0.11628,0.3266 64.312752,64.312752 0 0 1 -0.11833,0.32608 64.312752,64.312752 0 0 1 -0.11989,0.32556 64.312752,64.312752 0 0 1 -0.12196,0.32453 64.312752,64.312752 0 0 1 -0.12351,0.32452 64.312752,64.312752 0 0 1 -0.12505,0.3235 64.312752,64.312752 0 0 1 -0.12713,0.32246 64.312752,64.312752 0 0 1 -0.12867,0.32246 64.312752,64.312752 0 0 1 -0.13074,0.32091 64.312752,64.312752 0 0 1 -0.1323,0.32091 64.312752,64.312752 0 0 1 -0.13384,0.31988 64.312752,64.312752 0 0 1 -0.13539,0.31936 64.312752,64.312752 0 0 1 -0.13746,0.31833 64.312752,64.312752 0 0 1 -0.13901,0.31781 64.312752,64.312752 0 0 1 -0.14107,0.31729 64.312752,64.312752 0 0 1 -0.14263,0.31626 64.312752,64.312752 0 0 1 -0.14418,0.31523 64.312752,64.312752 0 0 1 -0.14573,0.3147 64.312752,64.312752 0 0 1 -0.14779,0.3142 64.312752,64.312752 0 0 1 -0.14934,0.31264 64.312752,64.312752 0 0 1 -0.1509,0.31264 64.312752,64.312752 0 0 1 -0.15245,0.31109 64.312752,64.312752 0 0 1 -0.15451,0.3111 64.312752,64.312752 0 0 1 -0.15606,0.30954 64.312752,64.312752 0 0 1 -0.15761,0.30902 64.312752,64.312752 0 0 1 -0.15917,0.308 64.312752,64.312752 0 0 1 -0.16123,0.30747 64.312752,64.312752 0 0 1 -0.16278,0.30644 64.312752,64.312752 0 0 1 -0.16433,0.30541 64.312752,64.312752 0 0 1 -0.16588,0.30437 64.312752,64.312752 0 0 1 -0.16743,0.30386 64.312752,64.312752 0 0 1 -0.1695,0.30283 64.312752,64.312752 0 0 1 -0.17054,0.30178 64.312752,64.312752 0 0 1 -0.17259,0.30076 64.312752,64.312752 0 0 1 -0.17415,0.30024 64.312752,64.312752 0 0 1 -0.1757,0.29921 64.312752,64.312752 0 0 1 -0.17725,0.29766 64.312752,64.312752 0 0 1 -0.17932,0.29713 64.312752,64.312752 0 0 1 -0.18035,0.29663 64.312752,64.312752 0 0 1 -0.18242,0.29507 64.312752,64.312752 0 0 1 -0.18345,0.29404 64.312752,64.312752 0 0 1 -0.18552,0.29352 64.312752,64.312752 0 0 1 -0.18655,0.29197 64.312752,64.312752 0 0 1 -0.18862,0.29146 64.312752,64.312752 0 0 1 -0.19017,0.2899 64.312752,64.312752 0 0 1 -0.19172,0.28939 64.312752,64.312752 0 0 1 -0.19275,0.28784 64.312752,64.312752 0 0 1 -0.19482,0.28732 64.312752,64.312752 0 0 1 -0.19637,0.28577 64.312752,64.312752 0 0 1 -0.19792,0.28525 64.312752,64.312752 0 0 1 -0.19947,0.28371 64.312752,64.312752 0 0 1 -0.20051,0.28267 64.312752,64.312752 0 0 1 -0.20257,0.28163 64.312752,64.312752 0 0 1 -0.20361,0.28061 64.312752,64.312752 0 0 1 -0.20567,0.27957 64.312752,64.312752 0 0 1 -0.2067,0.27853 64.312752,64.312752 0 0 1 -0.20877,0.2775 64.312752,64.312752 0 0 1 -0.20981,0.27596 64.312752,64.312752 0 0 1 -0.21136,0.27492 64.312752,64.312752 0 0 1 -0.21291,0.27388 64.312752,64.312752 0 0 1 -0.21445,0.27285 64.312752,64.312752 0 0 1 -0.21549,0.2713 64.312752,64.312752 0 0 1 -0.21756,0.27079 64.312752,64.312752 0 0 1 -0.21859,0.26923 64.312752,64.312752 0 0 1 -0.22014,0.26769 64.312752,64.312752 0 0 1 -0.2217,0.26716 64.312752,64.312752 0 0 1 -0.22272,0.26562 64.312752,64.312752 0 0 1 -0.22479,0.26458 64.312752,64.312752 0 0 1 -0.22583,0.26304 64.312752,64.312752 0 0 1 -0.22737,0.26199 64.312752,64.312752 0 0 1 -0.22893,0.26097 64.312752,64.312752 0 0 1 -0.22996,0.25942 64.312752,64.312752 0 0 1 -0.23151,0.25838 64.312752,64.312752 0 0 1 -0.23306,0.25683 64.312752,64.312752 0 0 1 -0.2341,0.2558 64.312752,64.312752 0 0 1 -0.23564,0.25425 64.312752,64.312752 0 0 1 -0.2372,0.25373 64.312752,64.312752 0 0 1 -0.23822,0.25166 64.312752,64.312752 0 0 1 -0.23978,0.25063 64.312752,64.312752 0 0 1 -0.24133,0.2496 64.312752,64.312752 0 0 1 -0.24237,0.24805 64.312752,64.312752 0 0 1 -0.24391,0.24649 64.312752,64.312752 0 0 1 -0.24495,0.24547 64.312752,64.312752 0 0 1 -0.24649,0.24443 64.312752,64.312752 0 0 1 -0.24753,0.24236 64.312752,64.312752 0 0 1 -0.24908,0.24184 64.312752,64.312752 0 0 1 -0.25063,0.23978 64.312752,64.312752 0 0 1 -0.25167,0.23875 64.312752,64.312752 0 0 1 -0.25269,0.23719 64.312752,64.312752 0 0 1 -0.25425,0.23617 64.312752,64.312752 0 0 1 -0.2558,0.23461 64.312752,64.312752 0 0 1 -0.25632,0.23357 64.312752,64.312752 0 0 1 -0.25838,0.23151 64.312752,64.312752 0 0 1 -0.2589,0.23048 64.312752,64.312752 0 0 1 -0.26045,0.22893 64.312752,64.312752 0 0 1 -0.262,0.22789 64.312752,64.312752 0 0 1 -0.26303,0.22634 64.312752,64.312752 0 0 1 -0.26406,0.2248 64.312752,64.312752 0 0 1 -0.26511,0.22324 64.312752,64.312752 0 0 1 -0.26665,0.22221 64.312752,64.312752 0 0 1 -0.26768,0.22014 64.312752,64.312752 0 0 1 -0.26924,0.2191 64.312752,64.312752 0 0 1 -0.26975,0.21756 64.312752,64.312752 0 0 1 -0.2713,0.21653 64.312752,64.312752 0 0 1 -0.27285,0.21446 64.312752,64.312752 0 0 1 -0.27337,0.21342 64.312752,64.312752 0 0 1 -0.27491,0.21187 64.312752,64.312752 0 0 1 -0.27596,0.20981 64.312752,64.312752 0 0 1 -0.27698,0.20877 64.312752,64.312752 0 0 1 -0.27802,0.20722 64.312752,64.312752 0 0 1 -0.27906,0.20619 64.312752,64.312752 0 0 1 -0.2806,0.20412 64.312752,64.312752 0 0 1 -0.28164,0.20258 64.312752,64.312752 0 0 1 -0.28215,0.20154 64.312752,64.312752 0 0 1 -0.2837,0.19946 64.312752,64.312752 0 0 1 -0.28474,0.19793 64.312752,64.312752 0 0 1 -0.28577,0.19688 64.312752,64.312752 0 0 1 -0.2868,0.19482 64.312752,64.312752 0 0 1 -0.28784,0.19379 64.312752,64.312752 0 0 1 -0.28887,0.19172 64.312752,64.312752 0 0 1 -0.28991,0.19068 64.312752,64.312752 0 0 1 -0.29093,0.18862 64.312752,64.312752 0 0 1 -0.29198,0.18759 64.312752,64.312752 0 0 1 -0.293,0.18552 64.312752,64.312752 0 0 1 -0.29404,0.18397 64.312752,64.312752 0 0 1 -0.29507,0.18293 64.312752,64.312752 0 0 1 -0.29611,0.18087 64.312752,64.312752 0 0 1 -0.29662,0.17932 64.312752,64.312752 0 0 1 -0.29818,0.17776 64.312752,64.312752 0 0 1 -0.29869,0.1757 64.312752,64.312752 0 0 1 -0.29972,0.17467 64.312752,64.312752 0 0 1 -0.300757,0.17312 64.312752,64.312752 0 0 1 -0.30178,0.17104 64.312752,64.312752 0 0 1 -0.30231,0.1695 64.312752,64.312752 0 0 1 -0.30386,0.16795 64.312752,64.312752 0 0 1 -0.30437,0.1664 64.312752,64.312752 0 0 1 -0.30489,0.16485 64.312752,64.312752 0 0 1 -0.30645,0.16329 64.312752,64.312752 0 0 1 -0.30695,0.16124 64.312752,64.312752 0 0 1 -0.30799,0.15967 64.312752,64.312752 0 0 1 -0.30851,0.15814 64.312752,64.312752 0 0 1 -0.30955,0.15658 64.312752,64.312752 0 0 1 -0.31057,0.15451 64.312752,64.312752 0 0 1 -0.31109,0.15296 64.312752,64.312752 0 0 1 -0.31213,0.15141 64.312752,64.312752 0 0 1 -0.31316,0.14986 64.312752,64.312752 0 0 1 -0.31367,0.1478 64.312752,64.312752 0 0 1 -0.31471,0.14624 64.312752,64.312752 0 0 1 -0.315227,0.1447 64.312752,64.312752 0 0 1 -0.31575,0.14314 64.312752,64.312752 0 0 1 -0.31677,0.14108 64.312752,64.312752 0 0 1 -0.31781,0.13952 64.312752,64.312752 0 0 1 -0.31833,0.13798 64.312752,64.312752 0 0 1 -0.31884,0.13591 64.312752,64.312752 0 0 1 -0.31988,0.13436 64.312752,64.312752 0 0 1 -0.32091,0.13281 64.312752,64.312752 0 0 1 -0.32091,0.13074 64.312752,64.312752 0 0 1 -0.32195,0.12919 64.312752,64.312752 0 0 1 -0.32246,0.12712 64.312752,64.312752 0 0 1 -0.32349,0.12609 64.312752,64.312752 0 0 1 -0.32401,0.12351 64.312752,64.312752 0 0 1 -0.32453,0.12247 64.312752,64.312752 0 0 1 -0.32556,0.12041 64.312752,64.312752 0 0 1 -0.32608,0.11834 64.312752,64.312752 0 0 1 -0.3266,0.1173 64.312752,64.312752 0 0 1 -0.327107,0.11524 64.312752,64.312752 0 0 1 -0.32763,0.11317 64.312752,64.312752 0 0 1 -0.32866,0.11162 64.312752,64.312752 0 0 1 -0.32866,0.10956 64.312752,64.312752 0 0 1 -0.3297,0.10852 64.312752,64.312752 0 0 1 -0.33021,0.10594 64.312752,64.312752 0 0 1 -0.33073,0.10438 64.312752,64.312752 0 0 1 -0.33125,0.10284 64.312752,64.312752 0 0 1 -0.33228,0.10128 64.312752,64.312752 0 0 1 -0.33227,0.0987 64.312752,64.312752 0 0 1 -0.3328,0.0977 64.312752,64.312752 0 0 1 -0.33331,0.0956 64.312752,64.312752 0 0 1 -0.33435,0.0935 64.312752,64.312752 0 0 1 -0.33435,0.092 64.312752,64.312752 0 0 1 -0.33486,0.0899 64.312752,64.312752 0 0 1 -0.33538,0.0884 64.312752,64.312752 0 0 1 -0.335897,0.0868 64.312752,64.312752 0 0 1 -0.33641,0.0848 64.312752,64.312752 0 0 1 -0.33693,0.0827 64.312752,64.312752 0 0 1 -0.33745,0.0811 64.312752,64.312752 0 0 1 -0.33745,0.0791 64.312752,64.312752 0 0 1 -0.33796,0.0775 64.312752,64.312752 0 0 1 -0.33848,0.0754 64.312752,64.312752 0 0 1 -0.339,0.0739 64.312752,64.312752 0 0 1 -0.33952,0.0718 64.312752,64.312752 0 0 1 -0.33951,0.0703 64.312752,64.312752 0 0 1 -0.34003,0.0682 64.312752,64.312752 0 0 1 -0.34055,0.0667 64.312752,64.312752 0 0 1 -0.34106,0.0646 64.312752,64.312752 0 0 1 -0.34107,0.0625 64.312752,64.312752 0 0 1 -0.34158,0.061 64.312752,64.312752 0 0 1 -0.341577,0.0589 64.312752,64.312752 0 0 1 -0.3421,0.0574 64.312752,64.312752 0 0 1 -0.34261,0.0553 64.312752,64.312752 0 0 1 -0.34262,0.0537 64.312752,64.312752 0 0 1 -0.34313,0.0517 64.312752,64.312752 0 0 1 -0.34313,0.0496 64.312752,64.312752 0 0 1 -0.34365,0.0481 64.312752,64.312752 0 0 1 -0.34365,0.0465 64.312752,64.312752 0 0 1 -0.34416,0.0439 64.312752,64.312752 0 0 1 -0.10181,0.0124 64.312752,64.312752 0 0 0 7.938537,0.49196 64.312752,64.312752 0 0 0 64.312868,-64.31235 64.312752,64.312752 0 0 0 -6.92464,-29.02976 64.312752,64.312752 0 0 0 -2.96261,-5.23378 32.156376,32.156376 0 0 0 -0.0176,-0.0253 32.156376,32.156376 0 0 0 -0.14108,-0.20051 32.156376,32.156376 0 0 0 -0.14263,-0.19947 32.156376,32.156376 0 0 0 -0.14469,-0.19844 32.156376,32.156376 0 0 0 -0.14573,-0.1974 32.156376,32.156376 0 0 0 -0.14727,-0.19586 32.156376,32.156376 0 0 0 -0.14883,-0.19533 32.156376,32.156376 0 0 0 -0.14987,-0.19379 32.156376,32.156376 0 0 0 -0.15192,-0.19275 32.156376,32.156376 0 0 0 -0.15297,-0.19172 32.156376,32.156376 0 0 0 -0.15503,-0.19017 32.156376,32.156376 0 0 0 -0.15606,-0.18914 32.156376,32.156376 0 0 0 -0.15709,-0.1881 32.156376,32.156376 0 0 0 -0.15917,-0.18655 32.156376,32.156376 0 0 0 -0.1602,-0.18604 32.156376,32.156376 0 0 0 -0.16226,-0.18397 32.156376,32.156376 0 0 0 -0.16278,-0.18345 32.156376,32.156376 0 0 0 -0.16485,-0.1819 32.156376,32.156376 0 0 0 -0.16588,-0.18035 32.156376,32.156376 0 0 0 -0.16743,-0.17932 32.156376,32.156376 0 0 0 -0.16847,-0.17828 32.156376,32.156376 0 0 0 -0.17001,-0.17673 32.156376,32.156376 0 0 0 -0.17157,-0.17519 32.156376,32.156376 0 0 0 -0.1726,-0.17415 32.156376,32.156376 0 0 0 -0.17415,-0.17311 32.156376,32.156376 0 0 0 -0.17518,-0.17105 32.156376,32.156376 0 0 0 -0.17673,-0.17053 32.156376,32.156376 0 0 0 -0.17829,-0.16847 32.156376,32.156376 0 0 0 -0.17931,-0.16743 32.156376,32.156376 0 0 0 -0.18036,-0.1664 32.156376,32.156376 0 0 0 -0.1819,-0.16433 32.156376,32.156376 0 0 0 -0.18293,-0.1633 32.156376,32.156376 0 0 0 -0.18397,-0.16226 32.156376,32.156376 0 0 0 -0.18552,-0.1602 32.156376,32.156376 0 0 0 -0.18707,-0.15916 32.156376,32.156376 0 0 0 -0.18758,-0.15761 32.156376,32.156376 0 0 0 -0.18914,-0.15607 32.156376,32.156376 0 0 0 -0.19068,-0.15503 32.156376,32.156376 0 0 0 -0.19121,-0.15296 32.156376,32.156376 0 0 0 -0.19275,-0.15193 32.156376,32.156376 0 0 0 -0.19378,-0.15037 32.156376,32.156376 0 0 0 -0.19482,-0.14883 32.156376,32.156376 0 0 0 -0.19638,-0.14728 32.156376,32.156376 0 0 0 -0.19688,-0.14573 32.156376,32.156376 0 0 0 -0.19844,-0.14469 32.156376,32.156376 0 0 0 -0.19947,-0.14263 32.156376,32.156376 0 0 0 -0.20051,-0.14159 32.156376,32.156376 0 0 0 -0.20153,-0.13953 32.156376,32.156376 0 0 0 -0.20257,-0.13849 32.156376,32.156376 0 0 0 -0.20361,-0.13643 32.156376,32.156376 0 0 0 -0.20464,-0.13539 32.156376,32.156376 0 0 0 -0.20567,-0.13333 32.156376,32.156376 0 0 0 -0.20671,-0.13229 32.156376,32.156376 0 0 0 -0.20774,-0.13022 32.156376,32.156376 0 0 0 -0.20877,-0.128672 32.156376,32.156376 0 0 0 -0.2098,-0.127124 32.156376,32.156376 0 0 0 -0.21033,-0.126093 32.156376,32.156376 0 0 0 -0.21187,-0.124023 32.156376,32.156376 0 0 0 -0.21239,-0.121955 32.156376,32.156376 0 0 0 -0.21343,-0.120922 32.156376,32.156376 0 0 0 -0.21445,-0.119375 32.156376,32.156376 0 0 0 -0.21549,-0.117305 32.156376,32.156376 0 0 0 -0.21601,-0.115756 32.156376,32.156376 0 0 0 -0.21704,-0.114204 32.156376,32.156376 0 0 0 -0.21808,-0.112655 32.156376,32.156376 0 0 0 -0.21859,-0.111104 32.156376,32.156376 0 0 0 -0.21962,-0.109037 32.156376,32.156376 0 0 0 -0.22066,-0.107487 32.156376,32.156376 0 0 0 -0.22118,-0.105936 32.156376,32.156376 0 0 0 -0.2222,-0.104387 32.156376,32.156376 0 0 0 -0.22273,-0.102319 32.156376,32.156376 0 0 0 -0.22376,-0.100769 32.156376,32.156376 0 0 0 -0.22428,-0.0987 32.156376,32.156376 0 0 0 -0.2253,-0.09767 32.156376,32.156376 0 0 0 -0.22583,-0.0956 32.156376,32.156376 0 0 0 -0.22634,-0.09405 32.156376,32.156376 0 0 0 -0.22738,-0.09198 32.156376,32.156376 0 0 0 -0.22789,-0.09043 32.156376,32.156376 0 0 0 -0.22893,-0.08836 32.156376,32.156376 0 0 0 -0.22944,-0.08733 32.156376,32.156376 0 0 0 -0.22996,-0.08526 32.156376,32.156376 0 0 0 -0.23048,-0.0832 32.156376,32.156376 0 0 0 -0.23151,-0.08165 32.156376,32.156376 0 0 0 -0.23151,-0.0801 32.156376,32.156376 0 0 0 -0.23254,-0.07803 32.156376,32.156376 0 0 0 -0.23306,-0.07648 32.156376,32.156376 0 0 0 -0.23358,-0.07441 32.156376,32.156376 0 0 0 -0.23461,-0.07286 32.156376,32.156376 0 0 0 -0.23461,-0.0708 32.156376,32.156376 0 0 0 -0.23513,-0.06925 32.156376,32.156376 0 0 0 -0.23616,-0.06718 32.156376,32.156376 0 0 0 -0.23616,-0.06563 32.156376,32.156376 0 0 0 -0.23668,-0.06408 32.156376,32.156376 0 0 0 -0.23771,-0.06201 32.156376,32.156376 0 0 0 -0.23772,-0.05995 32.156376,32.156376 0 0 0 -0.23823,-0.05839 32.156376,32.156376 0 0 0 -0.23874,-0.05684 32.156376,32.156376 0 0 0 -0.23874,-0.05478 32.156376,32.156376 0 0 0 -0.23978,-0.05271 32.156376,32.156376 0 0 0 -0.23978,-0.05116 32.156376,32.156376 0 0 0 -0.2403,-0.04909 32.156376,32.156376 0 0 0 -0.24081,-0.04754 32.156376,32.156376 0 0 0 -0.24081,-0.04547 32.156376,32.156376 0 0 0 -0.24133,-0.04393 32.156376,32.156376 0 0 0 -0.24185,-0.04186 32.156376,32.156376 0 0 0 -0.24184,-0.03979 32.156376,32.156376 0 0 0 -0.24236,-0.03824 32.156376,32.156376 0 0 0 -0.24237,-0.03617 32.156376,32.156376 0 0 0 -0.24287,-0.03462 32.156376,32.156376 0 0 0 -0.2434,-0.03256 32.156376,32.156376 0 0 0 -0.24288,-0.031 32.156376,32.156376 0 0 0 -0.24391,-0.02894 32.156376,32.156376 0 0 0 -0.24392,-0.02687 32.156376,32.156376 0 0 0 -0.24391,-0.02532 32.156376,32.156376 0 0 0 -0.24391,-0.02325 32.156376,32.156376 0 0 0 -0.24443,-0.0217 32.156376,32.156376 0 0 0 -0.24443,-0.01964 32.156376,32.156376 0 0 0 -0.24443,-0.01757 32.156376,32.156376 0 0 0 -0.24495,-0.01602 32.156376,32.156376 0 0 0 -0.24494,-0.01395 32.156376,32.156376 0 0 0 -0.24495,-0.0124 32.156376,32.156376 0 0 0 -0.24494,-0.01033 32.156376,32.156376 0 0 0 -0.24547,-0.0083 32.156376,32.156376 0 0 0 -0.24495,-0.0067 32.156376,32.156376 0 0 0 -0.24546,-0.0047 32.156376,32.156376 0 0 0 -0.24495,-0.0026 32.156376,32.156376 0 0 0 -0.24546,-10e-4 z" />
      <path
         id="path833-5-0-6"
         style="opacity:0.663091;fill:#24f78f;fill-opacity:1;stroke:none;stroke-width:0.0899999"
         d="m 67.823086,90.671315 a 32.156376,32.156376 0 0 0 -0.22944,10e-4 32.156376,32.156376 0 0 0 -0.24495,0.003 32.156376,32.156376 0 0 0 -0.24546,0.005 32.156376,32.156376 0 0 0 -0.24495,0.006 32.156376,32.156376 0 0 0 -0.16588,0.006 64.312752,64.312752 0 0 1 0.008,0.007 64.312752,64.312752 0 0 1 0.25838,0.23151 64.312752,64.312752 0 0 1 0.25735,0.23255 64.312752,64.312752 0 0 1 0.2558,0.23461 64.312752,64.312752 0 0 1 0.25425,0.23564 64.312752,64.312752 0 0 1 0.25321,0.2372 64.312752,64.312752 0 0 1 0.25218,0.23823 64.312752,64.312752 0 0 1 0.25063,0.23978 64.312752,64.312752 0 0 1 0.24908,0.24081 64.312752,64.312752 0 0 1 0.24805,0.24288 64.312752,64.312752 0 0 1 0.24701,0.2434 64.312752,64.312752 0 0 1 0.24547,0.24546 64.312752,64.312752 0 0 1 0.24391,0.24649 64.312752,64.312752 0 0 1 0.24288,0.24753 64.312752,64.312752 0 0 1 0.24133,0.24908 64.312752,64.312752 0 0 1 0.24029,0.25064 64.312752,64.312752 0 0 1 0.23875,0.25114 64.312752,64.312752 0 0 1 0.23719,0.253217 64.312752,64.312752 0 0 1 0.23616,0.25425 64.312752,64.312752 0 0 1 0.23462,0.25528 64.312752,64.312752 0 0 1 0.23306,0.25683 64.312752,64.312752 0 0 1 0.232017,0.25786 64.312752,64.312752 0 0 1 0.23048,0.25942 64.312752,64.312752 0 0 1 0.22893,0.26045 64.312752,64.312752 0 0 1 0.22789,0.26148 64.312752,64.312752 0 0 1 0.22583,0.26303 64.312752,64.312752 0 0 1 0.22479,0.26407 64.312752,64.312752 0 0 1 0.22376,0.26561 64.312752,64.312752 0 0 1 0.22169,0.26666 64.312752,64.312752 0 0 1 0.22066,0.26768 64.312752,64.312752 0 0 1 0.21911,0.26872 64.312752,64.312752 0 0 1 0.21755,0.27026 64.312752,64.312752 0 0 1 0.21601,0.2713 64.312752,64.312752 0 0 1 0.21497,0.27234 64.312752,64.312752 0 0 1 0.21291,0.27389 64.312752,64.312752 0 0 1 0.21188,0.2744 64.312752,64.312752 0 0 1 0.21032,0.275957 64.312752,64.312752 0 0 1 0.20877,0.276981 64.312752,64.312752 0 0 1 0.20722,0.27853 64.312752,64.312752 0 0 1 0.20568,0.27905 64.312752,64.312752 0 0 1 0.20412,0.28061 64.312752,64.312752 0 0 1 0.20309,0.28112 64.312752,64.312752 0 0 1 0.20102,0.28267 64.312752,64.312752 0 0 1 0.19999,0.2837 64.312752,64.312752 0 0 1 0.19792,0.28474 64.312752,64.312752 0 0 1 0.19637,0.28577 64.312752,64.312752 0 0 1 0.195327,0.2868 64.312752,64.312752 0 0 1 0.19327,0.28784 64.312752,64.312752 0 0 1 0.19224,0.28887 64.312752,64.312752 0 0 1 0.19017,0.28991 64.312752,64.312752 0 0 1 0.18913,0.29094 64.312752,64.312752 0 0 1 0.18707,0.29197 64.312752,64.312752 0 0 1 0.18604,0.293 64.312752,64.312752 0 0 1 0.18397,0.29404 64.312752,64.312752 0 0 1 0.18241,0.29507 64.312752,64.312752 0 0 1 0.18087,0.29559 64.312752,64.312752 0 0 1 0.17932,0.29714 64.312752,64.312752 0 0 1 0.17776,0.29766 64.312752,64.312752 0 0 1 0.17622,0.2992 64.312752,64.312752 0 0 1 0.17467,0.29973 64.312752,64.312752 0 0 1 0.1726,0.30075 64.312752,64.312752 0 0 1 0.17156,0.3018 64.312752,64.312752 0 0 1 0.1695,0.3023 64.312752,64.312752 0 0 1 0.16795,0.30334 64.312752,64.312752 0 0 1 0.1664,0.30438 64.312752,64.312752 0 0 1 0.16485,0.30541 64.312752,64.312752 0 0 1 0.16278,0.30644 64.312752,64.312752 0 0 1 0.16123,0.30695 64.312752,64.312752 0 0 1 0.1602,0.30748 64.312752,64.312752 0 0 1 0.15761,0.30903 64.312752,64.312752 0 0 1 0.15658,0.30954 64.312752,64.312752 0 0 1 0.15503,0.31057 64.312752,64.312752 0 0 1 0.15296,0.31109 64.312752,64.312752 0 0 1 0.15141,0.31213 64.312752,64.312752 0 0 1 0.14935,0.31316 64.312752,64.312752 0 0 1 0.14831,0.31367 64.312752,64.312752 0 0 1 0.14624,0.3142 64.312752,64.312752 0 0 1 0.144697,0.31522 64.312752,64.312752 0 0 1 0.14262,0.31626 64.312752,64.312752 0 0 1 0.1416,0.31678 64.312752,64.312752 0 0 1 0.13952,0.31781 64.312752,64.312752 0 0 1 0.13746,0.31833 64.312752,64.312752 0 0 1 0.13643,0.31884 64.312752,64.312752 0 0 1 0.13436,0.31988 64.312752,64.312752 0 0 1 0.13229,0.32039 64.312752,64.312752 0 0 1 0.13074,0.32143 64.312752,64.312752 0 0 1 0.12919,0.32194 64.312752,64.312752 0 0 1 0.12764,0.32246 64.312752,64.312752 0 0 1 0.12557,0.3235 64.312752,64.312752 0 0 1 0.12403,0.32401 64.312752,64.312752 0 0 1 0.12196,0.32453 64.312752,64.312752 0 0 1 0.1204,0.32504 64.312752,64.312752 0 0 1 0.11886,0.32608 64.312752,64.312752 0 0 1 0.11678,0.3266 64.312752,64.312752 0 0 1 0.11524,0.32711 64.312752,64.312752 0 0 1 0.11317,0.32814 64.312752,64.312752 0 0 1 0.11163,0.32815 64.312752,64.312752 0 0 1 0.11007,0.32918 64.312752,64.312752 0 0 1 0.108,0.32969 64.312752,64.312752 0 0 1 0.10645,0.33022 64.312752,64.312752 0 0 1 0.10439,0.33072 64.312752,64.312752 0 0 1 0.10284,0.33125 64.312752,64.312752 0 0 1 0.10077,0.33176 64.312752,64.312752 0 0 1 0.0992,0.33228 64.312752,64.312752 0 0 1 0.0972,0.33331 64.312752,64.312752 0 0 1 0.0956,0.33332 64.312752,64.312752 0 0 1 0.0935,0.33383 64.312752,64.312752 0 0 1 0.092,0.33486 64.312752,64.312752 0 0 1 0.0904,0.33486 64.312752,64.312752 0 0 1 0.0884,0.33538 64.312752,64.312752 0 0 1 0.0863,0.3359 64.312752,64.312752 0 0 1 0.0848,0.33641 64.312752,64.312752 0 0 1 0.0827,0.33694 64.312752,64.312752 0 0 1 0.0811,0.33692 64.312752,64.312752 0 0 1 0.0796,0.33797 64.312752,64.312752 0 0 1 0.0775,0.33796 64.312752,64.312752 0 0 1 0.0754,0.33848 64.312752,64.312752 0 0 1 0.0739,0.339 64.312752,64.312752 0 0 1 0.0718,0.33951 64.312752,64.312752 0 0 1 0.0698,0.33952 64.312752,64.312752 0 0 1 0.0687,0.34003 64.312752,64.312752 0 0 1 0.0661,0.34055 64.312752,64.312752 0 0 1 0.0646,0.34055 64.312752,64.312752 0 0 1 0.0631,0.34158 64.312752,64.312752 0 0 1 0.061,0.34106 64.312752,64.312752 0 0 1 0.0589,0.3421 64.312752,64.312752 0 0 1 0.0574,0.3421 64.312752,64.312752 0 0 1 0.0553,0.34261 64.312752,64.312752 0 0 1 0.0532,0.34262 64.312752,64.312752 0 0 1 0.0522,0.34261 64.312752,64.312752 0 0 1 0.0496,0.34365 64.312752,64.312752 0 0 1 0.0481,0.34365 64.312752,64.312752 0 0 1 0.046,0.34364 64.312752,64.312752 0 0 1 0.0444,0.34417 64.312752,64.312752 0 0 1 0.0424,0.34417 64.312752,64.312752 0 0 1 0.0403,0.34416 64.312752,64.312752 0 0 1 0.0388,0.34468 64.312752,64.312752 0 0 1 0.0372,0.3452 64.312752,64.312752 0 0 1 0.0346,0.3452 64.312752,64.312752 0 0 1 0.0336,0.3452 64.312752,64.312752 0 0 1 0.031,0.3452 64.312752,64.312752 0 0 1 0.0295,0.34571 64.312752,64.312752 0 0 1 0.0274,0.34572 64.312752,64.312752 0 0 1 0.0258,0.34623 64.312752,64.312752 0 0 1 0.0238,0.34572 64.312752,64.312752 0 0 1 0.0217,0.34623 64.312752,64.312752 0 0 1 0.0202,0.34623 64.312752,64.312752 0 0 1 0.0186,0.34675 64.312752,64.312752 0 0 1 0.016,0.34623 64.312752,64.312752 0 0 1 0.0145,0.34675 64.312752,64.312752 0 0 1 0.0124,0.34675 64.312752,64.312752 0 0 1 0.0109,0.34675 64.312752,64.312752 0 0 1 0.009,0.34674 64.312752,64.312752 0 0 1 0.007,0.34675 64.312752,64.312752 0 0 1 0.005,0.34675 64.312752,64.312752 0 0 1 0.003,0.34675 64.312752,64.312752 0 0 1 0.002,0.34675 64.312752,64.312752 0 0 1 0,0.0822 64.312752,64.312752 0 0 1 -10e-4,0.34674 64.312752,64.312752 0 0 1 -0.003,0.34675 64.312752,64.312752 0 0 1 -0.005,0.34675 64.312752,64.312752 0 0 1 -0.007,0.34675 64.312752,64.312752 0 0 1 -0.008,0.34675 64.312752,64.312752 0 0 1 -0.0103,0.34675 64.312752,64.312752 0 0 1 -0.0124,0.34675 64.312752,64.312752 0 0 1 -0.014,0.34675 64.312752,64.312752 0 0 1 -0.016,0.34623 64.312752,64.312752 0 0 1 -0.0176,0.34675 64.312752,64.312752 0 0 1 -0.0196,0.34623 64.312752,64.312752 0 0 1 -0.0217,0.34623 64.312752,64.312752 0 0 1 -0.0233,0.34624 64.312752,64.312752 0 0 1 -0.0253,0.34571 64.312752,64.312752 0 0 1 -0.0269,0.34572 64.312752,64.312752 0 0 1 -0.0289,0.34571 64.312752,64.312752 0 0 1 -0.031,0.34572 64.312752,64.312752 0 0 1 -0.0326,0.34519 64.312752,64.312752 0 0 1 -0.0346,0.3452 64.312752,64.312752 0 0 1 -0.0362,0.34469 64.312752,64.312752 0 0 1 -0.0388,0.34519 64.312752,64.312752 0 0 1 -0.0398,0.34417 64.312752,64.312752 0 0 1 -0.0419,0.34468 64.312752,64.312752 0 0 1 -0.0439,0.34365 64.312752,64.312752 0 0 1 -0.046,0.34416 64.312752,64.312752 0 0 1 -0.0475,0.34365 64.312752,64.312752 0 0 1 -0.0491,0.34313 64.312752,64.312752 0 0 1 -0.0341,0.22583 64.312752,64.312752 0 0 1 -0.0176,0.11731 64.312752,64.312752 0 0 1 -0.0527,0.34261 64.312752,64.312752 0 0 1 -0.0553,0.34261 64.312752,64.312752 0 0 1 -0.0568,0.3421 64.312752,64.312752 0 0 1 -0.0584,0.3421 64.312752,64.312752 0 0 1 -0.0605,0.34158 64.312752,64.312752 0 0 1 -0.0625,0.34107 64.312752,64.312752 0 0 1 -0.0641,0.34106 64.312752,64.312752 0 0 1 -0.0661,0.34055 64.312752,64.312752 0 0 1 -0.0677,0.34003 64.312752,64.312752 0 0 1 -0.0698,0.34003 64.312752,64.312752 0 0 1 -0.0713,0.339 64.312752,64.312752 0 0 1 -0.0734,0.33951 64.312752,64.312752 0 0 1 -0.0754,0.33848 64.312752,64.312752 0 0 1 -0.077,0.33797 64.312752,64.312752 0 0 1 -0.0785,0.33796 64.312752,64.312752 0 0 1 -0.0806,0.33745 64.312752,64.312752 0 0 1 -0.0827,0.33693 64.312752,64.312752 0 0 1 -0.0842,0.33641 64.312752,64.312752 0 0 1 -0.0858,0.3359 64.312752,64.312752 0 0 1 -0.0884,0.33589 64.312752,64.312752 0 0 1 -0.0894,0.33487 64.312752,64.312752 0 0 1 -0.0915,0.33434 64.312752,64.312752 0 0 1 -0.0935,0.33435 64.312752,64.312752 0 0 1 -0.0951,0.33331 64.312752,64.312752 0 0 1 -0.0966,0.33332 64.312752,64.312752 0 0 1 -0.0987,0.33228 64.312752,64.312752 0 0 1 -0.10077,0.33227 64.312752,64.312752 0 0 1 -0.10232,0.33125 64.312752,64.312752 0 0 1 -0.10387,0.33125 64.312752,64.312752 0 0 1 -0.10593,0.33021 64.312752,64.312752 0 0 1 -0.10749,0.3297 64.312752,64.312752 0 0 1 -0.10956,0.32917 64.312752,64.312752 0 0 1 -0.1111,0.32867 64.312752,64.312752 0 0 1 -0.11317,0.32763 64.312752,64.312752 0 0 1 -0.11472,0.32762 64.312752,64.312752 0 0 1 -0.11628,0.3266 64.312752,64.312752 0 0 1 -0.11833,0.32608 64.312752,64.312752 0 0 1 -0.11989,0.32556 64.312752,64.312752 0 0 1 -0.12196,0.32453 64.312752,64.312752 0 0 1 -0.12351,0.32452 64.312752,64.312752 0 0 1 -0.12505,0.3235 64.312752,64.312752 0 0 1 -0.12713,0.32246 64.312752,64.312752 0 0 1 -0.12867,0.32246 64.312752,64.312752 0 0 1 -0.13074,0.32091 64.312752,64.312752 0 0 1 -0.1323,0.32091 64.312752,64.312752 0 0 1 -0.13384,0.31988 64.312752,64.312752 0 0 1 -0.13539,0.31936 64.312752,64.312752 0 0 1 -0.13746,0.31833 64.312752,64.312752 0 0 1 -0.13901,0.31781 64.312752,64.312752 0 0 1 -0.14107,0.31729 64.312752,64.312752 0 0 1 -0.14263,0.31626 64.312752,64.312752 0 0 1 -0.144177,0.31523 64.312752,64.312752 0 0 1 -0.14573,0.3147 64.312752,64.312752 0 0 1 -0.14779,0.3142 64.312752,64.312752 0 0 1 -0.14934,0.31264 64.312752,64.312752 0 0 1 -0.1509,0.31264 64.312752,64.312752 0 0 1 -0.15245,0.31109 64.312752,64.312752 0 0 1 -0.15451,0.3111 64.312752,64.312752 0 0 1 -0.15606,0.30954 64.312752,64.312752 0 0 1 -0.15761,0.30902 64.312752,64.312752 0 0 1 -0.15917,0.308 64.312752,64.312752 0 0 1 -0.16123,0.30747 64.312752,64.312752 0 0 1 -0.16278,0.30644 64.312752,64.312752 0 0 1 -0.16433,0.30541 64.312752,64.312752 0 0 1 -0.16588,0.30437 64.312752,64.312752 0 0 1 -0.16743,0.30386 64.312752,64.312752 0 0 1 -0.1695,0.30283 64.312752,64.312752 0 0 1 -0.17054,0.30178 64.312752,64.312752 0 0 1 -0.17259,0.30076 64.312752,64.312752 0 0 1 -0.17415,0.30024 64.312752,64.312752 0 0 1 -0.1757,0.29921 64.312752,64.312752 0 0 1 -0.17725,0.29766 64.312752,64.312752 0 0 1 -0.17932,0.29713 64.312752,64.312752 0 0 1 -0.18035,0.29663 64.312752,64.312752 0 0 1 -0.18242,0.29507 64.312752,64.312752 0 0 1 -0.18345,0.29404 64.312752,64.312752 0 0 1 -0.18552,0.29352 64.312752,64.312752 0 0 1 -0.18655,0.29197 64.312752,64.312752 0 0 1 -0.18862,0.29146 64.312752,64.312752 0 0 1 -0.19017,0.2899 64.312752,64.312752 0 0 1 -0.19172,0.28939 64.312752,64.312752 0 0 1 -0.19275,0.28784 64.312752,64.312752 0 0 1 -0.194817,0.28732 64.312752,64.312752 0 0 1 -0.19637,0.28577 64.312752,64.312752 0 0 1 -0.19792,0.28525 64.312752,64.312752 0 0 1 -0.19947,0.28371 64.312752,64.312752 0 0 1 -0.20051,0.28267 64.312752,64.312752 0 0 1 -0.20257,0.28163 64.312752,64.312752 0 0 1 -0.20361,0.28061 64.312752,64.312752 0 0 1 -0.20567,0.27957 64.312752,64.312752 0 0 1 -0.2067,0.27853 64.312752,64.312752 0 0 1 -0.20877,0.2775 64.312752,64.312752 0 0 1 -0.20981,0.27596 64.312752,64.312752 0 0 1 -0.21136,0.27492 64.312752,64.312752 0 0 1 -0.21291,0.27388 64.312752,64.312752 0 0 1 -0.21445,0.27285 64.312752,64.312752 0 0 1 -0.21549,0.2713 64.312752,64.312752 0 0 1 -0.21756,0.27079 64.312752,64.312752 0 0 1 -0.21859,0.26923 64.312752,64.312752 0 0 1 -0.22014,0.26769 64.312752,64.312752 0 0 1 -0.2217,0.26716 64.312752,64.312752 0 0 1 -0.22272,0.26562 64.312752,64.312752 0 0 1 -0.22479,0.26458 64.312752,64.312752 0 0 1 -0.22583,0.26304 64.312752,64.312752 0 0 1 -0.22737,0.26199 64.312752,64.312752 0 0 1 -0.22893,0.26097 64.312752,64.312752 0 0 1 -0.22996,0.25942 64.312752,64.312752 0 0 1 -0.231507,0.25838 64.312752,64.312752 0 0 1 -0.23306,0.25683 64.312752,64.312752 0 0 1 -0.2341,0.2558 64.312752,64.312752 0 0 1 -0.23564,0.25425 64.312752,64.312752 0 0 1 -0.2372,0.25373 64.312752,64.312752 0 0 1 -0.23822,0.25166 64.312752,64.312752 0 0 1 -0.23978,0.25063 64.312752,64.312752 0 0 1 -0.24133,0.2496 64.312752,64.312752 0 0 1 -0.24237,0.24805 64.312752,64.312752 0 0 1 -0.24391,0.24649 64.312752,64.312752 0 0 1 -0.24495,0.24547 64.312752,64.312752 0 0 1 -0.24649,0.24443 64.312752,64.312752 0 0 1 -0.24753,0.24236 64.312752,64.312752 0 0 1 -0.24908,0.24184 64.312752,64.312752 0 0 1 -0.25063,0.23978 64.312752,64.312752 0 0 1 -0.25167,0.23875 64.312752,64.312752 0 0 1 -0.25269,0.23719 64.312752,64.312752 0 0 1 -0.25425,0.23617 64.312752,64.312752 0 0 1 -0.2558,0.23461 64.312752,64.312752 0 0 1 -0.25632,0.23357 64.312752,64.312752 0 0 1 -0.25838,0.23151 64.312752,64.312752 0 0 1 -0.258897,0.23048 64.312752,64.312752 0 0 1 -0.26045,0.22893 64.312752,64.312752 0 0 1 -0.262,0.22789 64.312752,64.312752 0 0 1 -0.26303,0.22634 64.312752,64.312752 0 0 1 -0.26406,0.2248 64.312752,64.312752 0 0 1 -0.26511,0.22324 64.312752,64.312752 0 0 1 -0.26665,0.22221 64.312752,64.312752 0 0 1 -0.26768,0.22014 64.312752,64.312752 0 0 1 -0.26924,0.2191 64.312752,64.312752 0 0 1 -0.26975,0.21756 64.312752,64.312752 0 0 1 -0.2713,0.21653 64.312752,64.312752 0 0 1 -0.27285,0.21446 64.312752,64.312752 0 0 1 -0.27337,0.21342 64.312752,64.312752 0 0 1 -0.27491,0.21187 64.312752,64.312752 0 0 1 -0.27596,0.20981 64.312752,64.312752 0 0 1 -0.27698,0.20877 64.312752,64.312752 0 0 1 -0.27802,0.20722 64.312752,64.312752 0 0 1 -0.27906,0.20619 64.312752,64.312752 0 0 1 -0.2806,0.20412 64.312752,64.312752 0 0 1 -0.28164,0.20258 64.312752,64.312752 0 0 1 -0.282147,0.20154 64.312752,64.312752 0 0 1 -0.2837,0.19946 64.312752,64.312752 0 0 1 -0.28474,0.19793 64.312752,64.312752 0 0 1 -0.28577,0.19688 64.312752,64.312752 0 0 1 -0.2868,0.19482 64.312752,64.312752 0 0 1 -0.28784,0.19379 64.312752,64.312752 0 0 1 -0.28887,0.19172 64.312752,64.312752 0 0 1 -0.28991,0.19068 64.312752,64.312752 0 0 1 -0.29093,0.18862 64.312752,64.312752 0 0 1 -0.29198,0.18759 64.312752,64.312752 0 0 1 -0.293,0.18552 64.312752,64.312752 0 0 1 -0.29404,0.18397 64.312752,64.312752 0 0 1 -0.29507,0.18293 64.312752,64.312752 0 0 1 -0.29611,0.18087 64.312752,64.312752 0 0 1 -0.29662,0.17932 64.312752,64.312752 0 0 1 -0.29818,0.17776 64.312752,64.312752 0 0 1 -0.29869,0.1757 64.312752,64.312752 0 0 1 -0.29972,0.17467 64.312752,64.312752 0 0 1 -0.300757,0.17312 64.312752,64.312752 0 0 1 -0.30178,0.17104 64.312752,64.312752 0 0 1 -0.30231,0.1695 64.312752,64.312752 0 0 1 -0.30386,0.16795 64.312752,64.312752 0 0 1 -0.30437,0.1664 64.312752,64.312752 0 0 1 -0.30489,0.16485 64.312752,64.312752 0 0 1 -0.30645,0.16329 64.312752,64.312752 0 0 1 -0.30695,0.16124 64.312752,64.312752 0 0 1 -0.30799,0.15967 64.312752,64.312752 0 0 1 -0.30851,0.15814 64.312752,64.312752 0 0 1 -0.30955,0.15658 64.312752,64.312752 0 0 1 -0.31057,0.15451 64.312752,64.312752 0 0 1 -0.31109,0.15296 64.312752,64.312752 0 0 1 -0.31213,0.15141 64.312752,64.312752 0 0 1 -0.31316,0.14986 64.312752,64.312752 0 0 1 -0.31367,0.1478 64.312752,64.312752 0 0 1 -0.31471,0.14624 64.312752,64.312752 0 0 1 -0.315227,0.1447 64.312752,64.312752 0 0 1 -0.31575,0.14314 64.312752,64.312752 0 0 1 -0.31677,0.14108 64.312752,64.312752 0 0 1 -0.31781,0.13952 64.312752,64.312752 0 0 1 -0.31833,0.13798 64.312752,64.312752 0 0 1 -0.31884,0.13591 64.312752,64.312752 0 0 1 -0.31988,0.13436 64.312752,64.312752 0 0 1 -0.32091,0.13281 64.312752,64.312752 0 0 1 -0.32091,0.13074 64.312752,64.312752 0 0 1 -0.32195,0.12919 64.312752,64.312752 0 0 1 -0.32246,0.12712 64.312752,64.312752 0 0 1 -0.32349,0.12609 64.312752,64.312752 0 0 1 -0.32401,0.12351 64.312752,64.312752 0 0 1 -0.32453,0.12247 64.312752,64.312752 0 0 1 -0.32556,0.12041 64.312752,64.312752 0 0 1 -0.32608,0.11834 64.312752,64.312752 0 0 1 -0.3266,0.1173 64.312752,64.312752 0 0 1 -0.327107,0.11524 64.312752,64.312752 0 0 1 -0.32763,0.11317 64.312752,64.312752 0 0 1 -0.32866,0.11162 64.312752,64.312752 0 0 1 -0.32866,0.10956 64.312752,64.312752 0 0 1 -0.3297,0.10852 64.312752,64.312752 0 0 1 -0.33021,0.10594 64.312752,64.312752 0 0 1 -0.33073,0.10438 64.312752,64.312752 0 0 1 -0.33125,0.10284 64.312752,64.312752 0 0 1 -0.33228,0.10128 64.312752,64.312752 0 0 1 -0.33227,0.0987 64.312752,64.312752 0 0 1 -0.3328,0.0977 64.312752,64.312752 0 0 1 -0.33331,0.0956 64.312752,64.312752 0 0 1 -0.33435,0.0935 64.312752,64.312752 0 0 1 -0.33435,0.092 64.312752,64.312752 0 0 1 -0.33486,0.0899 64.312752,64.312752 0 0 1 -0.33538,0.0884 64.312752,64.312752 0 0 1 -0.335897,0.0868 64.312752,64.312752 0 0 1 -0.33641,0.0848 64.312752,64.312752 0 0 1 -0.33693,0.0827 64.312752,64.312752 0 0 1 -0.33745,0.0811 64.312752,64.312752 0 0 1 -0.33745,0.0791 64.312752,64.312752 0 0 1 -0.33796,0.0775 64.312752,64.312752 0 0 1 -0.33848,0.0754 64.312752,64.312752 0 0 1 -0.339,0.0739 64.312752,64.312752 0 0 1 -0.33952,0.0718 64.312752,64.312752 0 0 1 -0.33951,0.0703 64.312752,64.312752 0 0 1 -0.34003,0.0682 64.312752,64.312752 0 0 1 -0.34055,0.0667 64.312752,64.312752 0 0 1 -0.34106,0.0646 64.312752,64.312752 0 0 1 -0.34107,0.0625 64.312752,64.312752 0 0 1 -0.34158,0.061 64.312752,64.312752 0 0 1 -0.341577,0.0589 64.312752,64.312752 0 0 1 -0.3421,0.0574 64.312752,64.312752 0 0 1 -0.34261,0.0553 64.312752,64.312752 0 0 1 -0.34262,0.0537 64.312752,64.312752 0 0 1 -0.34313,0.0517 64.312752,64.312752 0 0 1 -0.34313,0.0496 64.312752,64.312752 0 0 1 -0.34365,0.0481 64.312752,64.312752 0 0 1 -0.34365,0.0465 64.312752,64.312752 0 0 1 -0.34416,0.0439 64.312752,64.312752 0 0 1 -0.10181,0.0124 64.312752,64.312752 0 0 0 7.938537,0.49196 64.312752,64.312752 0 0 0 64.312826,-64.31235 64.312752,64.312752 0 0 0 -6.924619,-29.02976 64.312752,64.312752 0 0 0 -2.96261,-5.23378 32.156376,32.156376 0 0 0 -0.0176,-0.0253 32.156376,32.156376 0 0 0 -0.14108,-0.20051 32.156376,32.156376 0 0 0 -0.14263,-0.19947 32.156376,32.156376 0 0 0 -0.14469,-0.19844 32.156376,32.156376 0 0 0 -0.14573,-0.1974 32.156376,32.156376 0 0 0 -0.14727,-0.19586 32.156376,32.156376 0 0 0 -0.14883,-0.19533 32.156376,32.156376 0 0 0 -0.14987,-0.19379 32.156376,32.156376 0 0 0 -0.15192,-0.19275 32.156376,32.156376 0 0 0 -0.152967,-0.19172 32.156376,32.156376 0 0 0 -0.15503,-0.19017 32.156376,32.156376 0 0 0 -0.15606,-0.18914 32.156376,32.156376 0 0 0 -0.15709,-0.1881 32.156376,32.156376 0 0 0 -0.15917,-0.18655 32.156376,32.156376 0 0 0 -0.1602,-0.18604 32.156376,32.156376 0 0 0 -0.16226,-0.18397 32.156376,32.156376 0 0 0 -0.16278,-0.18345 32.156376,32.156376 0 0 0 -0.16485,-0.1819 32.156376,32.156376 0 0 0 -0.16588,-0.18035 32.156376,32.156376 0 0 0 -0.16743,-0.17932 32.156376,32.156376 0 0 0 -0.16847,-0.17828 32.156376,32.156376 0 0 0 -0.17001,-0.17673 32.156376,32.156376 0 0 0 -0.17157,-0.17519 32.156376,32.156376 0 0 0 -0.1726,-0.17415 32.156376,32.156376 0 0 0 -0.17415,-0.173104 32.156376,32.156376 0 0 0 -0.17518,-0.171054 32.156376,32.156376 0 0 0 -0.17673,-0.17053 32.156376,32.156376 0 0 0 -0.17829,-0.16847 32.156376,32.156376 0 0 0 -0.17931,-0.16743 32.156376,32.156376 0 0 0 -0.18036,-0.1664 32.156376,32.156376 0 0 0 -0.1819,-0.16433 32.156376,32.156376 0 0 0 -0.18293,-0.1633 32.156376,32.156376 0 0 0 -0.18397,-0.16226 32.156376,32.156376 0 0 0 -0.18552,-0.1602 32.156376,32.156376 0 0 0 -0.18707,-0.15916 32.156376,32.156376 0 0 0 -0.18758,-0.15761 32.156376,32.156376 0 0 0 -0.18914,-0.15607 32.156376,32.156376 0 0 0 -0.19068,-0.15503 32.156376,32.156376 0 0 0 -0.19121,-0.15296 32.156376,32.156376 0 0 0 -0.192747,-0.15193 32.156376,32.156376 0 0 0 -0.19378,-0.15037 32.156376,32.156376 0 0 0 -0.19482,-0.14883 32.156376,32.156376 0 0 0 -0.19638,-0.14728 32.156376,32.156376 0 0 0 -0.19688,-0.14573 32.156376,32.156376 0 0 0 -0.19844,-0.14469 32.156376,32.156376 0 0 0 -0.19947,-0.14263 32.156376,32.156376 0 0 0 -0.20051,-0.14159 32.156376,32.156376 0 0 0 -0.20153,-0.13953 32.156376,32.156376 0 0 0 -0.20257,-0.13849 32.156376,32.156376 0 0 0 -0.20361,-0.13643 32.156376,32.156376 0 0 0 -0.20464,-0.13539 32.156376,32.156376 0 0 0 -0.20567,-0.13333 32.156376,32.156376 0 0 0 -0.20671,-0.13229 32.156376,32.156376 0 0 0 -0.20774,-0.13022 32.156376,32.156376 0 0 0 -0.20877,-0.12867 32.156376,32.156376 0 0 0 -0.2098,-0.12712 32.156376,32.156376 0 0 0 -0.21033,-0.1261 32.156376,32.156376 0 0 0 -0.21187,-0.12402 32.156376,32.156376 0 0 0 -0.21239,-0.12195 32.156376,32.156376 0 0 0 -0.21343,-0.12093 32.156376,32.156376 0 0 0 -0.21445,-0.11937 32.156376,32.156376 0 0 0 -0.21549,-0.117307 32.156376,32.156376 0 0 0 -0.21601,-0.11575 32.156376,32.156376 0 0 0 -0.21704,-0.11421 32.156376,32.156376 0 0 0 -0.21808,-0.11265 32.156376,32.156376 0 0 0 -0.218587,-0.11111 32.156376,32.156376 0 0 0 -0.21962,-0.10903 32.156376,32.156376 0 0 0 -0.22066,-0.10749 32.156376,32.156376 0 0 0 -0.22118,-0.10594 32.156376,32.156376 0 0 0 -0.2222,-0.10438 32.156376,32.156376 0 0 0 -0.22273,-0.10232 32.156376,32.156376 0 0 0 -0.22376,-0.10077 32.156376,32.156376 0 0 0 -0.22428,-0.0987 32.156376,32.156376 0 0 0 -0.2253,-0.0977 32.156376,32.156376 0 0 0 -0.22583,-0.0956 32.156376,32.156376 0 0 0 -0.22634,-0.094 32.156376,32.156376 0 0 0 -0.22738,-0.092 32.156376,32.156376 0 0 0 -0.22789,-0.0904 32.156376,32.156376 0 0 0 -0.22893,-0.0884 32.156376,32.156376 0 0 0 -0.22944,-0.0873 32.156376,32.156376 0 0 0 -0.22996,-0.0853 32.156376,32.156376 0 0 0 -0.23048,-0.0832 32.156376,32.156376 0 0 0 -0.23151,-0.0816 32.156376,32.156376 0 0 0 -0.23151,-0.0801 32.156376,32.156376 0 0 0 -0.23254,-0.078 32.156376,32.156376 0 0 0 -0.23306,-0.0765 32.156376,32.156376 0 0 0 -0.23358,-0.0744 32.156376,32.156376 0 0 0 -0.23461,-0.0729 32.156376,32.156376 0 0 0 -0.234607,-0.0708 32.156376,32.156376 0 0 0 -0.23513,-0.0692 32.156376,32.156376 0 0 0 -0.23616,-0.0672 32.156376,32.156376 0 0 0 -0.23616,-0.0656 32.156376,32.156376 0 0 0 -0.23668,-0.0641 32.156376,32.156376 0 0 0 -0.23771,-0.062 32.156376,32.156376 0 0 0 -0.23772,-0.0599 32.156376,32.156376 0 0 0 -0.23823,-0.0584 32.156376,32.156376 0 0 0 -0.23874,-0.0568 32.156376,32.156376 0 0 0 -0.23874,-0.0548 32.156376,32.156376 0 0 0 -0.23978,-0.0527 32.156376,32.156376 0 0 0 -0.23978,-0.0512 32.156376,32.156376 0 0 0 -0.2403,-0.0491 32.156376,32.156376 0 0 0 -0.24081,-0.0475 32.156376,32.156376 0 0 0 -0.24081,-0.0455 32.156376,32.156376 0 0 0 -0.24133,-0.0439 32.156376,32.156376 0 0 0 -0.24185,-0.0419 32.156376,32.156376 0 0 0 -0.24184,-0.0398 32.156376,32.156376 0 0 0 -0.24236,-0.0382 32.156376,32.156376 0 0 0 -0.24237,-0.0362 32.156376,32.156376 0 0 0 -0.24287,-0.0346 32.156376,32.156376 0 0 0 -0.2434,-0.0326 32.156376,32.156376 0 0 0 -0.242877,-0.031 32.156376,32.156376 0 0 0 -0.24391,-0.0289 32.156376,32.156376 0 0 0 -0.24392,-0.0269 32.156376,32.156376 0 0 0 -0.24391,-0.0253 32.156376,32.156376 0 0 0 -0.24391,-0.0233 32.156376,32.156376 0 0 0 -0.24443,-0.0217 32.156376,32.156376 0 0 0 -0.24443,-0.0196 32.156376,32.156376 0 0 0 -0.24443,-0.0176 32.156376,32.156376 0 0 0 -0.24495,-0.016 32.156376,32.156376 0 0 0 -0.24494,-0.014 32.156376,32.156376 0 0 0 -0.24495,-0.0124 32.156376,32.156376 0 0 0 -0.24494,-0.0103 32.156376,32.156376 0 0 0 -0.24547,-0.008 32.156376,32.156376 0 0 0 -0.24495,-0.007 32.156376,32.156376 0 0 0 -0.24546,-0.005 32.156376,32.156376 0 0 0 -0.24495,-0.003 32.156376,32.156376 0 0 0 -0.24546,-0.001 z" />
    </g>
  </g>
</svg>
