<?xml version="1.0" encoding="UTF-8" standalone="no"?>
<svg
   width="120mm"
   height="120mm"
   viewBox="0 0 120 120"
   version="1.1"
   id="svg8"
   inkscape:version="1.1 (c68e22c387, 2021-05-23)"
   sodipodi:docname="logo.svg"
   xmlns:inkscape="http://www.inkscape.org/namespaces/inkscape"
   xmlns:sodipodi="http://sodipodi.sourceforge.net/DTD/sodipodi-0.dtd"
   xmlns:xlink="http://www.w3.org/1999/xlink"
   xmlns="http://www.w3.org/2000/svg"
   xmlns:svg="http://www.w3.org/2000/svg"
   xmlns:rdf="http://www.w3.org/1999/02/22-rdf-syntax-ns#"
   xmlns:cc="http://creativecommons.org/ns#"
   xmlns:dc="http://purl.org/dc/elements/1.1/">
  <defs
     id="defs2">
    <linearGradient
       inkscape:collect="always"
       id="linearGradient7673">
      <stop
         style="stop-color:#510060;stop-opacity:1"
         offset="0"
         id="stop7669" />
      <stop
         style="stop-color:#95006e;stop-opacity:1"
         offset="1"
         id="stop7671" />
    </linearGradient>
    <clipPath
       clipPathUnits="userSpaceOnUse"
       id="clipPath1348">
      <circle
         style="fill:none;fill-opacity:1;stroke:#ff6d6d;stroke-width:0.0899999;stroke-opacity:1"
         id="circle1350"
         cx="83.839897"
         cy="143.07788"
         r="64.312752" />
    </clipPath>
    <linearGradient
       inkscape:collect="always"
       xlink:href="#linearGradient7673"
       id="linearGradient7675"
       x1="32.87579"
       y1="112.21603"
       x2="139.6246"
       y2="173.70473"
       gradientUnits="userSpaceOnUse" />
    <clipPath
       clipPathUnits="userSpaceOnUse"
       id="clipPath7900">
      <circle
         style="fill:none;fill-opacity:1;stroke:#95006e;stroke-width:0.0839647;stroke-opacity:1"
         id="circle7902"
         cx="83.839897"
         cy="143.07788"
         r="60" />
    </clipPath>
  </defs>
  <sodipodi:namedview
     id="base"
     pagecolor="#ffffff"
     bordercolor="#666666"
     borderopacity="1.0"
     inkscape:pageopacity="0.0"
     inkscape:pageshadow="2"
     inkscape:zoom="1.979899"
     inkscape:cx="352.2907"
     inkscape:cy="247.73991"
     inkscape:document-units="mm"
     inkscape:current-layer="layer1"
     inkscape:document-rotation="0"
     showgrid="false"
     fit-margin-top="0"
     fit-margin-left="0"
     fit-margin-right="0"
     fit-margin-bottom="0"
     inkscape:pagecheckerboard="true"
     inkscape:window-width="4500"
     inkscape:window-height="2980"
     inkscape:window-x="0"
     inkscape:window-y="20"
     inkscape:window-maximized="0" />
  <metadata
     id="metadata5">
    <rdf:RDF>
      <cc:Work
         rdf:about="">
        <dc:format>image/svg+xml</dc:format>
        <dc:type
           rdf:resource="http://purl.org/dc/dcmitype/StillImage" />
      </cc:Work>
    </rdf:RDF>
  </metadata>
  <g
     inkscape:label="Layer 1"
     inkscape:groupmode="layer"
     id="layer1"
     transform="translate(-23.839897,-83.077881)">
    <g
       id="g7840"
       clip-path="url(#clipPath7900)">
      <circle
         style="fill:url(#linearGradient7675);fill-opacity:1;stroke:none;stroke-width:0.0839646"
         id="path833"
         cx="83.839897"
         cy="143.07788"
         r="60" />
      <path
         id="path833-3-6-2"
         style="opacity:0.112153;fill:#131101;fill-opacity:1;stroke:none;stroke-width:0.0419822"
         d="m 71.365236,96.654198 a 30,30 0 0 0 -0.213574,9.33e-4 30,30 0 0 0 -0.22852,0.0024 30,30 0 0 0 -0.229004,0.0049 30,30 0 0 0 -0.22852,0.0058 30,30 0 0 0 -0.154757,0.0053 60,60 0 0 1 0.0073,0.0067 60,60 0 0 1 4.83e-4,4.81e-4 30,30 0 0 0 -28.940135,29.981018 30,30 0 0 0 29.999812,29.99982 30,30 0 0 0 18.341416,-6.25973 60,60 0 0 1 -0.0135,0.0901 60,60 0 0 1 -0.04918,0.31965 60,60 0 0 1 -0.05159,0.31963 60,60 0 0 1 -0.05303,0.31916 60,60 0 0 1 -0.05447,0.31916 60,60 0 0 1 -0.05641,0.31867 60,60 0 0 1 -0.05834,0.31819 60,60 0 0 1 -0.05978,0.3182 60,60 0 0 1 -0.06171,0.31771 60,60 0 0 1 -0.06316,0.31723 60,60 0 0 1 -0.06508,0.31723 60,60 0 0 1 -0.06653,0.31626 60,60 0 0 1 -0.06846,0.31675 60,60 0 0 1 -0.07039,0.31578 60,60 0 0 1 -0.07184,0.3153 60,60 0 0 1 -0.07328,0.3153 60,60 0 0 1 -0.07521,0.31482 60,60 0 0 1 -0.07714,0.31433 60,60 0 0 1 -0.07858,0.31386 60,60 0 0 1 -0.08003,0.31337 60,60 0 0 1 -0.08244,0.31337 60,60 0 0 1 -0.0834,0.31242 60,60 0 0 1 -0.08534,0.31192 60,60 0 0 1 -0.08727,0.31192 60,60 0 0 1 -0.0887,0.31096 60,60 0 0 1 -0.09016,0.31096 60,60 0 0 1 -0.09208,0.31 60,60 0 0 1 -0.09401,0.31 60,60 0 0 1 -0.09546,0.30903 60,60 0 0 1 -0.0969,0.30904 60,60 0 0 1 -0.09883,0.30807 60,60 0 0 1 -0.100279,0.30758 60,60 0 0 1 -0.102207,0.3071 60,60 0 0 1 -0.103655,0.30662 60,60 0 0 1 -0.105581,0.30566 60,60 0 0 1 -0.107028,0.30566 60,60 0 0 1 -0.108477,0.30469 60,60 0 0 1 -0.110401,0.30421 60,60 0 0 1 -0.111852,0.30373 60,60 0 0 1 -0.113778,0.30277 60,60 0 0 1 -0.115223,0.30277 60,60 0 0 1 -0.116672,0.30179 60,60 0 0 1 -0.118599,0.30085 60,60 0 0 1 -0.120046,0.30084 60,60 0 0 1 -0.121974,0.29939 60,60 0 0 1 -0.12342,0.29939 60,60 0 0 1 -0.124867,0.29843 60,60 0 0 1 -0.126311,0.29794 60,60 0 0 1 -0.128244,0.29697 60,60 0 0 1 -0.129687,0.2965 60,60 0 0 1 -0.131616,0.29602 60,60 0 0 1 -0.133061,0.29506 60,60 0 0 1 -0.134509,0.29408 60,60 0 0 1 -0.135957,0.2936 60,60 0 0 1 -0.137883,0.29313 60,60 0 0 1 -0.139329,0.29168 60,60 0 0 1 -0.140776,0.29167 60,60 0 0 1 -0.142225,0.29023 60,60 0 0 1 -0.144149,0.29023 60,60 0 0 1 -0.145597,0.28878 60,60 0 0 1 -0.147046,0.28831 60,60 0 0 1 -0.148488,0.28734 60,60 0 0 1 -0.15042,0.28686 60,60 0 0 1 -0.151864,0.28589 60,60 0 0 1 -0.153311,0.28492 60,60 0 0 1 -0.154759,0.28397 60,60 0 0 1 -0.156203,0.28348 60,60 0 0 1 -0.158131,0.28251 60,60 0 0 1 -0.159096,0.28155 60,60 0 0 1 -0.161026,0.2806 60,60 0 0 1 -0.162471,0.2801 60,60 0 0 1 -0.163917,0.27914 60,60 0 0 1 -0.165366,0.2777 60,60 0 0 1 -0.167292,0.27721 60,60 0 0 1 -0.168256,0.27673 60,60 0 0 1 -0.170184,0.27529 60,60 0 0 1 -0.17115,0.27432 60,60 0 0 1 -0.173079,0.27384 60,60 0 0 1 -0.17404,0.27239 60,60 0 0 1 -0.175971,0.27191 60,60 0 0 1 -0.177416,0.27047 60,60 0 0 1 -0.178863,0.26998 60,60 0 0 1 -0.179829,0.26853 60,60 0 0 1 -0.181756,0.26806 60,60 0 0 1 -0.183203,0.26661 60,60 0 0 1 -0.184646,0.26612 60,60 0 0 1 -0.186096,0.26467 60,60 0 0 1 -0.187058,0.26372 60,60 0 0 1 -0.188989,0.26275 60,60 0 0 1 -0.18995,0.26178 60,60 0 0 1 -0.19188,0.26083 60,60 0 0 1 -0.192844,0.25986 60,60 0 0 1 -0.194772,0.25889 60,60 0 0 1 -0.195737,0.25744 60,60 0 0 1 -0.197184,0.25649 60,60 0 0 1 -0.198631,0.25552 60,60 0 0 1 -0.200073,0.25455 60,60 0 0 1 -0.201043,0.25311 60,60 0 0 1 -0.202967,0.25263 60,60 0 0 1 -0.203934,0.25118 60,60 0 0 1 -0.205379,0.24973 60,60 0 0 1 -0.206825,0.24925 60,60 0 0 1 -0.207788,0.24781 60,60 0 0 1 -0.209719,0.24684 60,60 0 0 1 -0.210683,0.24539 60,60 0 0 1 -0.212128,0.24443 60,60 0 0 1 -0.213576,0.24347 60,60 0 0 1 -0.214539,0.24201 60,60 0 0 1 -0.215985,0.24107 60,60 0 0 1 -0.217432,0.2396 60,60 0 0 1 -0.218395,0.23865 60,60 0 0 1 -0.219844,0.2372 60,60 0 0 1 -0.221287,0.23671 60,60 0 0 1 -0.222253,0.23479 60,60 0 0 1 -0.223699,0.23382 60,60 0 0 1 -0.225146,0.23286 60,60 0 0 1 -0.226111,0.23141 60,60 0 0 1 -0.227555,0.22997 60,60 0 0 1 -0.22852,0.229 60,60 0 0 1 -0.229969,0.22804 60,60 0 0 1 -0.23093,0.22612 60,60 0 0 1 -0.232378,0.22562 60,60 0 0 1 -0.233822,0.2237 60,60 0 0 1 -0.23479,0.22273 60,60 0 0 1 -0.23575,0.22129 60,60 0 0 1 -0.237199,0.22033 60,60 0 0 1 -0.238646,0.21887 60,60 0 0 1 -0.239126,0.21792 60,60 0 0 1 -0.241056,0.21598 60,60 0 0 1 -0.241538,0.21503 60,60 0 0 1 -0.242983,0.21358 60,60 0 0 1 -0.244431,0.2126 60,60 0 0 1 -0.245393,0.21117 60,60 0 0 1 -0.246357,0.20971 60,60 0 0 1 -0.247325,0.20827 60,60 0 0 1 -0.248769,0.20731 60,60 0 0 1 -0.249733,0.20539 60,60 0 0 1 -0.25118,0.20441 60,60 0 0 1 -0.251661,0.20297 60,60 0 0 1 -0.253109,0.20201 60,60 0 0 1 -0.254554,0.20006 60,60 0 0 1 -0.255036,0.19911 60,60 0 0 1 -0.256482,0.19767 60,60 0 0 1 -0.257447,0.19574 60,60 0 0 1 -0.258413,0.19477 60,60 0 0 1 -0.259375,0.19333 60,60 0 0 1 -0.26034,0.19236 60,60 0 0 1 -0.261785,0.19043 60,60 0 0 1 -0.262752,0.18899 60,60 0 0 1 -0.263231,0.18802 60,60 0 0 1 -0.264679,0.1861 60,60 0 0 1 -0.265643,0.18465 60,60 0 0 1 -0.266607,0.18368 60,60 0 0 1 -0.26757,0.18176 60,60 0 0 1 -0.268536,0.18079 60,60 0 0 1 -0.269501,0.17887 60,60 0 0 1 -0.270463,0.17789 60,60 0 0 1 -0.271428,0.17597 60,60 0 0 1 -0.272394,0.17501 60,60 0 0 1 -0.273356,0.17308 60,60 0 0 1 -0.274321,0.17162 60,60 0 0 1 -0.275285,0.17068 60,60 0 0 1 -0.276249,0.16874 60,60 0 0 1 -0.276733,0.16728 60,60 0 0 1 -0.278177,0.16585 60,60 0 0 1 -0.278661,0.16392 60,60 0 0 1 -0.279623,0.16296 60,60 0 0 1 -0.280589,0.1615 60,60 0 0 1 -0.281552,0.15958 60,60 0 0 1 -0.282034,0.15813 60,60 0 0 1 -0.283482,0.15669 60,60 0 0 1 -0.283963,0.15524 60,60 0 0 1 -0.284444,0.15379 60,60 0 0 1 -0.285893,0.15235 60,60 0 0 1 -0.286373,0.15041 60,60 0 0 1 -0.287337,0.14898 60,60 0 0 1 -0.287821,0.14752 60,60 0 0 1 -0.288784,0.14608 60,60 0 0 1 -0.289749,0.14415 60,60 0 0 1 -0.29023,0.14271 60,60 0 0 1 -0.291195,0.14126 60,60 0 0 1 -0.292159,0.13981 60,60 0 0 1 -0.292641,0.13788 60,60 0 0 1 -0.293605,0.13644 60,60 0 0 1 -0.294088,0.13499 60,60 0 0 1 -0.29457,0.13355 60,60 0 0 1 -0.295532,0.13161 60,60 0 0 1 -0.296501,0.13017 60,60 0 0 1 -0.296979,0.12873 60,60 0 0 1 -0.297462,0.1268 60,60 0 0 1 -0.298426,0.12534 60,60 0 0 1 -0.299391,0.1239 60,60 0 0 1 -0.29939,0.12197 60,60 0 0 1 -0.300355,0.12054 60,60 0 0 1 -0.300837,0.11859 60,60 0 0 1 -0.301802,0.11764 60,60 0 0 1 -0.302284,0.11522 60,60 0 0 1 -0.302765,0.11426 60,60 0 0 1 -0.30373,0.11233 60,60 0 0 1 -0.304211,0.1104 60,60 0 0 1 -0.304695,0.10945 60,60 0 0 1 -0.305174,0.10751 60,60 0 0 1 -0.305658,0.10558 60,60 0 0 1 -0.306623,0.10413 60,60 0 0 1 -0.306623,0.10222 60,60 0 0 1 -0.307585,0.10123 60,60 0 0 1 -0.308071,0.0988 60,60 0 0 1 -0.30855,0.0974 60,60 0 0 1 -0.309032,0.0959 60,60 0 0 1 -0.309997,0.0945 60,60 0 0 1 -0.309998,0.0921 60,60 0 0 1 -0.310479,0.0911 60,60 0 0 1 -0.310962,0.0892 60,60 0 0 1 -0.311925,0.0872 60,60 0 0 1 -0.311925,0.0858 60,60 0 0 1 -0.312408,0.0839 60,60 0 0 1 -0.312891,0.0825 60,60 0 0 1 -0.313371,0.081 60,60 0 0 1 -0.313854,0.0791 60,60 0 0 1 -0.314336,0.0772 60,60 0 0 1 -0.314818,0.0757 60,60 0 0 1 -0.314819,0.0738 60,60 0 0 1 -0.315301,0.0723 60,60 0 0 1 -0.315781,0.0704 60,60 0 0 1 -0.316264,0.0689 60,60 0 0 1 -0.316747,0.067 60,60 0 0 1 -0.316748,0.0656 60,60 0 0 1 -0.317227,0.0636 60,60 0 0 1 -0.317711,0.0622 60,60 0 0 1 -0.318195,0.0603 60,60 0 0 1 -0.318192,0.0583 60,60 0 0 1 -0.318674,0.0569 60,60 0 0 1 -0.318676,0.0549 60,60 0 0 1 -0.319157,0.0536 60,60 0 0 1 -0.31964,0.0516 60,60 0 0 1 -0.319638,0.0502 60,60 0 0 1 -0.320123,0.0482 60,60 0 0 1 -0.32012,0.0463 60,60 0 0 1 -0.320604,0.0449 60,60 0 0 1 -0.320604,0.0434 60,60 0 0 1 -0.321085,0.0409 60,60 0 0 1 -0.09498,0.0116 60,60 0 0 0 7.406184,0.45897 60,60 0 0 0 57.364908,-42.4132 30,30 0 0 0 9.90834,1.68401 30,30 0 0 0 18.35732,-6.27225 60,60 0 0 1 -0.0164,0.10943 60,60 0 0 1 -0.0492,0.31965 60,60 0 0 1 -0.0516,0.31963 60,60 0 0 1 -0.053,0.31916 60,60 0 0 1 -0.0545,0.31916 60,60 0 0 1 -0.0564,0.31867 60,60 0 0 1 -0.0583,0.31819 60,60 0 0 1 -0.0598,0.3182 60,60 0 0 1 -0.0617,0.31771 60,60 0 0 1 -0.0632,0.31722 60,60 0 0 1 -0.0651,0.31724 60,60 0 0 1 -0.0665,0.31626 60,60 0 0 1 -0.0685,0.31675 60,60 0 0 1 -0.0704,0.31578 60,60 0 0 1 -0.0718,0.3153 60,60 0 0 1 -0.0733,0.3153 60,60 0 0 1 -0.0752,0.31482 60,60 0 0 1 -0.0771,0.31433 60,60 0 0 1 -0.0786,0.31386 60,60 0 0 1 -0.08,0.31337 60,60 0 0 1 -0.0825,0.31337 60,60 0 0 1 -0.0834,0.31241 60,60 0 0 1 -0.0854,0.31193 60,60 0 0 1 -0.0872,0.31192 60,60 0 0 1 -0.0887,0.31096 60,60 0 0 1 -0.0901,0.31096 60,60 0 0 1 -0.0921,0.31 60,60 0 0 1 -0.094,0.31 60,60 0 0 1 -0.0954,0.30903 60,60 0 0 1 -0.0969,0.30903 60,60 0 0 1 -0.0988,0.30808 60,60 0 0 1 -0.10028,0.30758 60,60 0 0 1 -0.10221,0.3071 60,60 0 0 1 -0.10365,0.30662 60,60 0 0 1 -0.10559,0.30566 60,60 0 0 1 -0.10702,0.30566 60,60 0 0 1 -0.10848,0.30469 60,60 0 0 1 -0.1104,0.30422 60,60 0 0 1 -0.11185,0.30373 60,60 0 0 1 -0.11378,0.30276 60,60 0 0 1 -0.11522,0.30277 60,60 0 0 1 -0.11667,0.3018 60,60 0 0 1 -0.1186,0.30084 60,60 0 0 1 -0.12005,0.30084 60,60 0 0 1 -0.12197,0.29939 60,60 0 0 1 -0.12342,0.29939 60,60 0 0 1 -0.12487,0.29843 60,60 0 0 1 -0.12632,0.29794 60,60 0 0 1 -0.12824,0.29697 60,60 0 0 1 -0.12968,0.2965 60,60 0 0 1 -0.13162,0.29602 60,60 0 0 1 -0.13306,0.29506 60,60 0 0 1 -0.1345,0.29408 60,60 0 0 1 -0.13596,0.2936 60,60 0 0 1 -0.13789,0.29312 60,60 0 0 1 -0.13933,0.29169 60,60 0 0 1 -0.14078,0.29167 60,60 0 0 1 -0.14221,0.29023 60,60 0 0 1 -0.14415,0.29023 60,60 0 0 1 -0.14561,0.28879 60,60 0 0 1 -0.14704,0.2883 60,60 0 0 1 -0.14848,0.28734 60,60 0 0 1 -0.15043,0.28686 60,60 0 0 1 -0.15187,0.28589 60,60 0 0 1 -0.15331,0.28493 60,60 0 0 1 -0.15475,0.28396 60,60 0 0 1 -0.1562,0.28348 60,60 0 0 1 -0.15814,0.28251 60,60 0 0 1 -0.15909,0.28155 60,60 0 0 1 -0.16103,0.2806 60,60 0 0 1 -0.16247,0.2801 60,60 0 0 1 -0.16392,0.27915 60,60 0 0 1 -0.16536,0.27769 60,60 0 0 1 -0.1673,0.27721 60,60 0 0 1 -0.16825,0.27673 60,60 0 0 1 -0.17019,0.27529 60,60 0 0 1 -0.17115,0.27432 60,60 0 0 1 -0.17308,0.27384 60,60 0 0 1 -0.17404,0.27239 60,60 0 0 1 -0.17597,0.27191 60,60 0 0 1 -0.17741,0.27047 60,60 0 0 1 -0.17886,0.26998 60,60 0 0 1 -0.17983,0.26854 60,60 0 0 1 -0.18176,0.26804 60,60 0 0 1 -0.1832,0.26662 60,60 0 0 1 -0.18465,0.26612 60,60 0 0 1 -0.18609,0.26467 60,60 0 0 1 -0.18706,0.26372 60,60 0 0 1 -0.18899,0.26275 60,60 0 0 1 -0.18995,0.26178 60,60 0 0 1 -0.19188,0.26083 60,60 0 0 1 -0.19284,0.25986 60,60 0 0 1 -0.19477,0.25889 60,60 0 0 1 -0.19574,0.25744 60,60 0 0 1 -0.19718,0.25649 60,60 0 0 1 -0.19863,0.25552 60,60 0 0 1 -0.20008,0.25455 60,60 0 0 1 -0.20104,0.25311 60,60 0 0 1 -0.20297,0.25262 60,60 0 0 1 -0.20393,0.25119 60,60 0 0 1 -0.20538,0.24973 60,60 0 0 1 -0.20683,0.24925 60,60 0 0 1 -0.20779,0.24781 60,60 0 0 1 -0.20972,0.24684 60,60 0 0 1 -0.21068,0.24539 60,60 0 0 1 -0.21212,0.24443 60,60 0 0 1 -0.21358,0.24347 60,60 0 0 1 -0.21454,0.24201 60,60 0 0 1 -0.21599,0.24107 60,60 0 0 1 -0.21743,0.2396 60,60 0 0 1 -0.21839,0.23865 60,60 0 0 1 -0.21985,0.23719 60,60 0 0 1 -0.22128,0.23672 60,60 0 0 1 -0.22226,0.23479 60,60 0 0 1 -0.2237,0.23382 60,60 0 0 1 -0.22514,0.23286 60,60 0 0 1 -0.22611,0.23141 60,60 0 0 1 -0.22755,0.22997 60,60 0 0 1 -0.22853,0.22901 60,60 0 0 1 -0.22997,0.22804 60,60 0 0 1 -0.23093,0.22611 60,60 0 0 1 -0.23238,0.22562 60,60 0 0 1 -0.23382,0.2237 60,60 0 0 1 -0.23478,0.22274 60,60 0 0 1 -0.23576,0.22128 60,60 0 0 1 -0.2372,0.22033 60,60 0 0 1 -0.23864,0.21887 60,60 0 0 1 -0.23913,0.21792 60,60 0 0 1 -0.24105,0.21598 60,60 0 0 1 -0.24154,0.21503 60,60 0 0 1 -0.24298,0.21357 60,60 0 0 1 -0.24443,0.21261 60,60 0 0 1 -0.2454,0.21117 60,60 0 0 1 -0.24636,0.20971 60,60 0 0 1 -0.24732,0.20827 60,60 0 0 1 -0.24877,0.20731 60,60 0 0 1 -0.24974,0.20538 60,60 0 0 1 -0.25117,0.20442 60,60 0 0 1 -0.25166,0.20297 60,60 0 0 1 -0.25311,0.202 60,60 0 0 1 -0.25455,0.20007 60,60 0 0 1 -0.25504,0.19912 60,60 0 0 1 -0.25648,0.19766 60,60 0 0 1 -0.25745,0.19575 60,60 0 0 1 -0.25842,0.19477 60,60 0 0 1 -0.25937,0.19332 60,60 0 0 1 -0.26034,0.19236 60,60 0 0 1 -0.26178,0.19043 60,60 0 0 1 -0.26276,0.18899 60,60 0 0 1 -0.26322,0.18802 60,60 0 0 1 -0.26469,0.1861 60,60 0 0 1 -0.26564,0.18465 60,60 0 0 1 -0.26661,0.18368 60,60 0 0 1 -0.26757,0.18176 60,60 0 0 1 -0.26854,0.18079 60,60 0 0 1 -0.2695,0.17887 60,60 0 0 1 -0.27045,0.17789 60,60 0 0 1 -0.27143,0.17597 60,60 0 0 1 -0.2724,0.17501 60,60 0 0 1 -0.27336,0.17308 60,60 0 0 1 -0.27432,0.17162 60,60 0 0 1 -0.27528,0.17068 60,60 0 0 1 -0.27625,0.16873 60,60 0 0 1 -0.27673,0.16729 60,60 0 0 1 -0.27818,0.16585 60,60 0 0 1 -0.27866,0.16392 60,60 0 0 1 -0.27963,0.16296 60,60 0 0 1 -0.28058,0.1615 60,60 0 0 1 -0.28155,0.15958 60,60 0 0 1 -0.28204,0.15813 60,60 0 0 1 -0.28348,0.15669 60,60 0 0 1 -0.28397,0.15524 60,60 0 0 1 -0.284447,0.15379 60,60 0 0 1 -0.28589,0.15235 60,60 0 0 1 -0.286376,0.15041 60,60 0 0 1 -0.287336,0.14898 60,60 0 0 1 -0.287829,0.14752 60,60 0 0 1 -0.288779,0.14608 60,60 0 0 1 -0.289753,0.14415 60,60 0 0 1 -0.290226,0.14271 60,60 0 0 1 -0.291199,0.14126 60,60 0 0 1 -0.292147,0.13981 60,60 0 0 1 -0.292645,0.13788 60,60 0 0 1 -0.293613,0.13644 60,60 0 0 1 -0.294084,0.13499 60,60 0 0 1 -0.29457,0.13355 60,60 0 0 1 -0.295532,0.13161 60,60 0 0 1 -0.2965,0.13017 60,60 0 0 1 -0.296979,0.12873 60,60 0 0 1 -0.297463,0.12679 60,60 0 0 1 -0.298425,0.12535 60,60 0 0 1 -0.29939,0.1239 60,60 0 0 1 -0.299391,0.12197 60,60 0 0 1 -0.300356,0.12053 60,60 0 0 1 -0.300837,0.1186 60,60 0 0 1 -0.301802,0.11764 60,60 0 0 1 -0.302284,0.11523 60,60 0 0 1 -0.302764,0.11425 60,60 0 0 1 -0.303731,0.11234 60,60 0 0 1 -0.304211,0.11039 60,60 0 0 1 -0.304695,0.10945 60,60 0 0 1 -0.305174,0.10751 60,60 0 0 1 -0.305661,0.10558 60,60 0 0 1 -0.30662,0.10413 60,60 0 0 1 -0.306623,0.10221 60,60 0 0 1 -0.307585,0.10125 60,60 0 0 1 -0.308069,0.0988 60,60 0 0 1 -0.308552,0.0974 60,60 0 0 1 -0.309032,0.0959 60,60 0 0 1 -0.309997,0.0945 60,60 0 0 1 -0.309997,0.0921 60,60 0 0 1 -0.310481,0.0911 60,60 0 0 1 -0.310961,0.0892 60,60 0 0 1 -0.311925,0.0872 60,60 0 0 1 -0.311925,0.0858 60,60 0 0 1 -0.312408,0.0839 60,60 0 0 1 -0.312891,0.0825 60,60 0 0 1 -0.313371,0.081 60,60 0 0 1 -0.313853,0.079 60,60 0 0 1 -0.314337,0.0771 60,60 0 0 1 -0.314818,0.0757 60,60 0 0 1 -0.314817,0.0738 60,60 0 0 1 -0.315303,0.0723 60,60 0 0 1 -0.315781,0.0703 60,60 0 0 1 -0.316264,0.0689 60,60 0 0 1 -0.316748,0.067 60,60 0 0 1 -0.316747,0.0656 60,60 0 0 1 -0.317229,0.0636 60,60 0 0 1 -0.317709,0.0622 60,60 0 0 1 -0.318194,0.0603 60,60 0 0 1 -0.318193,0.0583 60,60 0 0 1 -0.318674,0.0569 60,60 0 0 1 -0.318676,0.055 60,60 0 0 1 -0.319157,0.0536 60,60 0 0 1 -0.319639,0.0516 60,60 0 0 1 -0.319639,0.0502 60,60 0 0 1 -0.320123,0.0482 60,60 0 0 1 -0.32012,0.0463 60,60 0 0 1 -0.320604,0.0449 60,60 0 0 1 -0.320603,0.0434 60,60 0 0 1 -0.321086,0.041 60,60 0 0 1 -0.09498,0.0116 60,60 0 0 0 7.406184,0.45897 60,60 0 0 0 60.000116,-59.99964 60,60 0 0 0 -6.46028,-27.08304 60,60 0 0 0 -4.8e-4,-9.3e-4 30,30 0 0 0 -2.76346,-4.88186 30,30 0 0 0 -0.0164,-0.0236 30,30 0 0 0 -0.39967,-0.55781 30,30 0 0 0 0,-4.7e-4 30,30 0 0 0 -0.4122,-0.54865 30,30 0 0 0 0,-4.8e-4 30,30 0 0 0 -1.15899,-1.41596 30,30 0 0 0 0,-4.8e-4 30,30 0 0 0 -22.62352,-10.29741 30,30 0 0 0 -0.9001,0.0135 30,30 0 0 0 -0.15477,0.006 30,30 0 0 0 -17.345862,6.28722 30,30 0 0 0 -7.426914,-6.20429 30,30 0 0 0 -0.01254,-0.007 30,30 0 0 0 -0.18465,-0.10848 30,30 0 0 0 -0.01301,-0.007 30,30 0 0 0 -0.52116,-0.29553 30,30 0 0 0 -0.06316,-0.0352 30,30 0 0 0 -0.01301,-0.007 30,30 0 0 0 -0.188024,-0.10269 30,30 0 0 0 -0.01301,-0.007 30,30 0 0 0 -0.188505,-0.10124 30,30 0 0 0 -0.01301,-0.007 30,30 0 0 0 -0.189467,-0.0998 30,30 0 0 0 -0.01302,-0.007 30,30 0 0 0 -0.190432,-0.09835 30,30 0 0 0 -0.01301,-0.0067 30,30 0 0 0 -0.203932,-0.103654 30,30 0 0 0 -0.191879,-0.09498 30,30 0 0 0 -0.01301,-0.0067 30,30 0 0 0 -0.20586,-0.100534 30,30 0 0 0 -0.206344,-0.09883 30,30 0 0 0 -0.207307,-0.09739 30,30 0 0 0 -0.20779,-0.09546 30,30 0 0 0 -0.208753,-0.09401 30,30 0 0 0 -0.209237,-0.09208 30,30 0 0 0 -0.210199,-0.09112 30,30 0 0 0 -0.210685,-0.08919 30,30 0 0 0 -0.211164,-0.08774 30,30 0 0 0 -0.212128,-0.08581 30,30 0 0 0 -0.21261,-0.08437 30,30 0 0 0 -0.213575,-0.08244 30,30 0 0 0 -0.214057,-0.08147 30,30 0 0 0 -0.21454,-0.07955 30,30 0 0 0 -0.215022,-0.07762 30,30 0 0 0 -0.215986,-0.07617 30,30 0 0 0 -0.215985,-0.07473 30,30 0 0 0 -0.216948,-0.0728 30,30 0 0 0 -0.217432,-0.07135 30,30 0 0 0 -0.217914,-0.06942 30,30 0 0 0 -0.218878,-0.06797 30,30 0 0 0 -0.218879,-0.06605 30,30 0 0 0 -0.21936,-0.06461 30,30 0 0 0 -0.220325,-0.06267 30,30 0 0 0 -0.220324,-0.06123 30,30 0 0 0 -0.220807,-0.05978 30,30 0 0 0 -0.221771,-0.05785 30,30 0 0 0 -0.221772,-0.05592 30,30 0 0 0 -0.222253,-0.05447 30,30 0 0 0 -0.222734,-0.05304 30,30 0 0 0 -0.222734,-0.05111 30,30 0 0 0 -0.2237,-0.04918 30,30 0 0 0 -0.223698,-0.04773 30,30 0 0 0 -0.224184,-0.0458 30,30 0 0 0 -0.224662,-0.04435 30,30 0 0 0 -0.224664,-0.04242 30,30 0 0 0 -0.225146,-0.04098 30,30 0 0 0 -0.225627,-0.03905 30,30 0 0 0 -0.225627,-0.03712 30,30 0 0 0 -0.226111,-0.03568 30,30 0 0 0 -0.226112,-0.03374 30,30 0 0 0 -0.22659,-0.0323 30,30 0 0 0 -0.227075,-0.03038 30,30 0 0 0 -0.22659,-0.02893 30,30 0 0 0 -0.227558,-0.027 30,30 0 0 0 -0.227554,-0.02507 30,30 0 0 0 -0.227558,-0.02362 30,30 0 0 0 -0.227555,-0.02169 30,30 0 0 0 -0.228039,-0.02025 30,30 0 0 0 -0.228039,-0.01832 30,30 0 0 0 -0.228038,-0.01639 30,30 0 0 0 -0.228521,-0.01495 30,30 0 0 0 -0.22852,-0.01301 30,30 0 0 0 -0.22852,-0.01157 30,30 0 0 0 -0.22852,-0.0096 30,30 0 0 0 -0.229003,-0.0073 30,30 0 0 0 -0.228521,-0.0067 30,30 0 0 0 -0.229001,-0.0044 30,30 0 0 0 -0.228523,-0.0029 30,30 0 0 0 -0.22852,-9.33e-4 z" />
      <circle
         style="opacity:0.59841507;fill:#ff2a2a;stroke:none;stroke-width:0.0419823;fill-opacity:1"
         id="path833-3-6"
         cx="110.005"
         cy="128.26744"
         r="30" />
      <circle
         style="opacity:0.58637017;fill:#ff6600;fill-opacity:1;stroke:none;stroke-width:0.0419823"
         id="path833-3"
         cx="68.909805"
         cy="124.19331"
         r="30" />
      <path
         id="path833-5-0"
         style="opacity:0.59841507;fill:#ff2a2a;stroke:none;stroke-width:0.0839646;fill-opacity:1"
         d="m 110.00495,98.267339 a 30,30 0 0 0 -0.21406,9.33e-4 30,30 0 0 0 -0.22852,0.0024 30,30 0 0 0 -0.229,0.0044 30,30 0 0 0 -0.22852,0.0058 30,30 0 0 0 -0.15476,0.0053 60,60 0 0 1 0.007,0.0067 60,60 0 0 1 0.24106,0.215985 60,60 0 0 1 0.24009,0.216951 60,60 0 0 1 0.23864,0.218879 60,60 0 0 1 0.2372,0.219841 60,60 0 0 1 0.23623,0.22129 60,60 0 0 1 0.23527,0.222252 60,60 0 0 1 0.23383,0.2237 60,60 0 0 1 0.23237,0.22466 60,60 0 0 1 0.23142,0.22659 60,60 0 0 1 0.23045,0.22708 60,60 0 0 1 0.229,0.229 60,60 0 0 1 0.22756,0.22997 60,60 0 0 1 0.22659,0.23093 60,60 0 0 1 0.22515,0.23238 60,60 0 0 1 0.22417,0.23382 60,60 0 0 1 0.22274,0.23431 60,60 0 0 1 0.22129,0.23623 60,60 0 0 1 0.22032,0.2372 60,60 0 0 1 0.21889,0.23816 60,60 0 0 1 0.21743,0.23961 60,60 0 0 1 0.21646,0.24057 60,60 0 0 1 0.21502,0.24202 60,60 0 0 1 0.21358,0.24299 60,60 0 0 1 0.21261,0.24394 60,60 0 0 1 0.21069,0.2454 60,60 0 0 1 0.20971,0.24636 60,60 0 0 1 0.20876,0.2478 60,60 0 0 1 0.20682,0.24877 60,60 0 0 1 0.20586,0.24973 60,60 0 0 1 0.20442,0.2507 60,60 0 0 1 0.20296,0.25214 60,60 0 0 1 0.20153,0.25311 60,60 0 0 1 0.20055,0.25407 60,60 0 0 1 0.19863,0.25553 60,60 0 0 1 0.19767,0.256 60,60 0 0 1 0.19622,0.25744 60,60 0 0 1 0.19477,0.25842 60,60 0 0 1 0.19332,0.25985 60,60 0 0 1 0.19189,0.26034 60,60 0 0 1 0.19043,0.26179 60,60 0 0 1 0.18947,0.26227 60,60 0 0 1 0.18754,0.26371 60,60 0 0 1 0.18658,0.26468 60,60 0 0 1 0.18465,0.26564 60,60 0 0 1 0.1832,0.26661 60,60 0 0 1 0.18223,0.26757 60,60 0 0 1 0.18031,0.26853 60,60 0 0 1 0.17935,0.2695 60,60 0 0 1 0.17742,0.27047 60,60 0 0 1 0.17645,0.27143 60,60 0 0 1 0.17452,0.27239 60,60 0 0 1 0.17357,0.27335 60,60 0 0 1 0.17163,0.27433 60,60 0 0 1 0.17018,0.27528 60,60 0 0 1 0.16874,0.27577 60,60 0 0 1 0.16729,0.27721 60,60 0 0 1 0.16584,0.2777 60,60 0 0 1 0.16441,0.27914 60,60 0 0 1 0.16295,0.27963 60,60 0 0 1 0.16103,0.28058 60,60 0 0 1 0.16005,0.28156 60,60 0 0 1 0.15814,0.28203 60,60 0 0 1 0.15668,0.283 60,60 0 0 1 0.15525,0.28396 60,60 0 0 1 0.15379,0.28493 60,60 0 0 1 0.15186,0.28589 60,60 0 0 1 0.15042,0.28637 60,60 0 0 1 0.14946,0.28686 60,60 0 0 1 0.14704,0.28831 60,60 0 0 1 0.14608,0.28878 60,60 0 0 1 0.14463,0.28974 60,60 0 0 1 0.14271,0.29023 60,60 0 0 1 0.14125,0.2912 60,60 0 0 1 0.13934,0.29216 60,60 0 0 1 0.13836,0.29264 60,60 0 0 1 0.13644,0.29313 60,60 0 0 1 0.13499,0.29408 60,60 0 0 1 0.13306,0.29505 60,60 0 0 1 0.1321,0.29554 60,60 0 0 1 0.13017,0.2965 60,60 0 0 1 0.12824,0.29698 60,60 0 0 1 0.12728,0.29746 60,60 0 0 1 0.12535,0.29843 60,60 0 0 1 0.12342,0.2989 60,60 0 0 1 0.12197,0.29988 60,60 0 0 1 0.12053,0.30035 60,60 0 0 1 0.11908,0.30083 60,60 0 0 1 0.11715,0.30181 60,60 0 0 1 0.11571,0.30228 60,60 0 0 1 0.11378,0.30277 60,60 0 0 1 0.11233,0.30324 60,60 0 0 1 0.11089,0.30422 60,60 0 0 1 0.10895,0.30469 60,60 0 0 1 0.10751,0.30518 60,60 0 0 1 0.10558,0.30613 60,60 0 0 1 0.10414,0.30615 60,60 0 0 1 0.10269,0.3071 60,60 0 0 1 0.10076,0.30759 60,60 0 0 1 0.0993,0.30807 60,60 0 0 1 0.0974,0.30854 60,60 0 0 1 0.096,0.30904 60,60 0 0 1 0.094,0.30951 60,60 0 0 1 0.0926,0.31 60,60 0 0 1 0.0907,0.31096 60,60 0 0 1 0.0892,0.31097 60,60 0 0 1 0.0872,0.31144 60,60 0 0 1 0.0858,0.3124 60,60 0 0 1 0.0843,0.31241 60,60 0 0 1 0.0825,0.31289 60,60 0 0 1 0.0805,0.31337 60,60 0 0 1 0.0791,0.31385 60,60 0 0 1 0.0772,0.31435 60,60 0 0 1 0.0757,0.31433 60,60 0 0 1 0.0743,0.3153 60,60 0 0 1 0.0723,0.3153 60,60 0 0 1 0.0703,0.31578 60,60 0 0 1 0.0689,0.31627 60,60 0 0 1 0.067,0.31674 60,60 0 0 1 0.0651,0.31675 60,60 0 0 1 0.0641,0.31723 60,60 0 0 1 0.0617,0.31771 60,60 0 0 1 0.0603,0.31772 60,60 0 0 1 0.0589,0.31867 60,60 0 0 1 0.0569,0.31819 60,60 0 0 1 0.0549,0.31916 60,60 0 0 1 0.0536,0.31916 60,60 0 0 1 0.0516,0.31963 60,60 0 0 1 0.0496,0.31965 60,60 0 0 1 0.0487,0.31963 60,60 0 0 1 0.0463,0.32061 60,60 0 0 1 0.0449,0.3206 60,60 0 0 1 0.0429,0.3206 60,60 0 0 1 0.0414,0.32109 60,60 0 0 1 0.0396,0.32109 60,60 0 0 1 0.0376,0.32108 60,60 0 0 1 0.0362,0.32157 60,60 0 0 1 0.0347,0.32205 60,60 0 0 1 0.0323,0.32205 60,60 0 0 1 0.0314,0.32205 60,60 0 0 1 0.0289,0.32205 60,60 0 0 1 0.0275,0.32253 60,60 0 0 1 0.0256,0.32253 60,60 0 0 1 0.0241,0.32302 60,60 0 0 1 0.0222,0.32253 60,60 0 0 1 0.0202,0.32301 60,60 0 0 1 0.0189,0.32302 60,60 0 0 1 0.0173,0.32349 60,60 0 0 1 0.0149,0.32302 60,60 0 0 1 0.0135,0.32349 60,60 0 0 1 0.0116,0.3235 60,60 0 0 1 0.0102,0.3235 60,60 0 0 1 0.008,0.32349 60,60 0 0 1 0.007,0.32349 60,60 0 0 1 0.005,0.3235 60,60 0 0 1 0.003,0.3235 60,60 0 0 1 0.002,0.32349 60,60 0 0 1 0,0.0767 60,60 0 0 1 -9.3e-4,0.32349 60,60 0 0 1 -0.003,0.3235 60,60 0 0 1 -0.005,0.3235 60,60 0 0 1 -0.007,0.32349 60,60 0 0 1 -0.007,0.3235 60,60 0 0 1 -0.01,0.3235 60,60 0 0 1 -0.0116,0.32349 60,60 0 0 1 -0.0131,0.3235 60,60 0 0 1 -0.0149,0.32301 60,60 0 0 1 -0.0164,0.3235 60,60 0 0 1 -0.0183,0.32301 60,60 0 0 1 -0.0203,0.32302 60,60 0 0 1 -0.0217,0.32302 60,60 0 0 1 -0.0236,0.32252 60,60 0 0 1 -0.0251,0.32254 60,60 0 0 1 -0.027,0.32253 60,60 0 0 1 -0.0289,0.32253 60,60 0 0 1 -0.0304,0.32205 60,60 0 0 1 -0.0323,0.32205 60,60 0 0 1 -0.0338,0.32157 60,60 0 0 1 -0.0362,0.32204 60,60 0 0 1 -0.0371,0.32109 60,60 0 0 1 -0.0391,0.32157 60,60 0 0 1 -0.041,0.32061 60,60 0 0 1 -0.0429,0.32108 60,60 0 0 1 -0.0443,0.3206 60,60 0 0 1 -0.0458,0.32012 60,60 0 0 1 -0.0318,0.21069 60,60 0 0 1 -0.0164,0.10944 60,60 0 0 1 -0.0492,0.31964 60,60 0 0 1 -0.0516,0.31963 60,60 0 0 1 -0.053,0.31916 60,60 0 0 1 -0.0545,0.31916 60,60 0 0 1 -0.0564,0.31867 60,60 0 0 1 -0.0583,0.3182 60,60 0 0 1 -0.0598,0.31819 60,60 0 0 1 -0.0617,0.31771 60,60 0 0 1 -0.0632,0.31723 60,60 0 0 1 -0.0651,0.31723 60,60 0 0 1 -0.0665,0.31627 60,60 0 0 1 -0.0685,0.31674 60,60 0 0 1 -0.0703,0.31578 60,60 0 0 1 -0.0718,0.31531 60,60 0 0 1 -0.0732,0.31529 60,60 0 0 1 -0.0752,0.31482 60,60 0 0 1 -0.0772,0.31434 60,60 0 0 1 -0.0786,0.31385 60,60 0 0 1 -0.08,0.31338 60,60 0 0 1 -0.0825,0.31336 60,60 0 0 1 -0.0834,0.31241 60,60 0 0 1 -0.0854,0.31192 60,60 0 0 1 -0.0872,0.31193 60,60 0 0 1 -0.0887,0.31096 60,60 0 0 1 -0.0901,0.31097 60,60 0 0 1 -0.0921,0.31 60,60 0 0 1 -0.094,0.30999 60,60 0 0 1 -0.0955,0.30903 60,60 0 0 1 -0.0969,0.30904 60,60 0 0 1 -0.0988,0.30807 60,60 0 0 1 -0.10028,0.30759 60,60 0 0 1 -0.10222,0.30709 60,60 0 0 1 -0.10365,0.30663 60,60 0 0 1 -0.10558,0.30566 60,60 0 0 1 -0.10703,0.30565 60,60 0 0 1 -0.10848,0.3047 60,60 0 0 1 -0.11039,0.30421 60,60 0 0 1 -0.11185,0.30373 60,60 0 0 1 -0.11378,0.30277 60,60 0 0 1 -0.11523,0.30276 60,60 0 0 1 -0.11667,0.3018 60,60 0 0 1 -0.1186,0.30084 60,60 0 0 1 -0.12004,0.30084 60,60 0 0 1 -0.12198,0.29939 60,60 0 0 1 -0.12342,0.29939 60,60 0 0 1 -0.12487,0.29842 60,60 0 0 1 -0.12631,0.29795 60,60 0 0 1 -0.12824,0.29698 60,60 0 0 1 -0.12969,0.2965 60,60 0 0 1 -0.13161,0.29601 60,60 0 0 1 -0.13306,0.29505 60,60 0 0 1 -0.13452,0.2941 60,60 0 0 1 -0.13595,0.29359 60,60 0 0 1 -0.13788,0.29313 60,60 0 0 1 -0.13933,0.29168 60,60 0 0 1 -0.14078,0.29167 60,60 0 0 1 -0.14223,0.29023 60,60 0 0 1 -0.14414,0.29024 60,60 0 0 1 -0.1456,0.28878 60,60 0 0 1 -0.14704,0.2883 60,60 0 0 1 -0.1485,0.28734 60,60 0 0 1 -0.15041,0.28686 60,60 0 0 1 -0.15187,0.28589 60,60 0 0 1 -0.15331,0.28493 60,60 0 0 1 -0.15476,0.28395 60,60 0 0 1 -0.1562,0.28349 60,60 0 0 1 -0.15813,0.28252 60,60 0 0 1 -0.1591,0.28154 60,60 0 0 1 -0.16102,0.28059 60,60 0 0 1 -0.16247,0.28011 60,60 0 0 1 -0.16392,0.27915 60,60 0 0 1 -0.16536,0.2777 60,60 0 0 1 -0.1673,0.2772 60,60 0 0 1 -0.16826,0.27674 60,60 0 0 1 -0.17018,0.27528 60,60 0 0 1 -0.17115,0.27432 60,60 0 0 1 -0.17308,0.27384 60,60 0 0 1 -0.17404,0.27239 60,60 0 0 1 -0.17597,0.27192 60,60 0 0 1 -0.17742,0.27046 60,60 0 0 1 -0.17886,0.26998 60,60 0 0 1 -0.17983,0.26854 60,60 0 0 1 -0.18175,0.26805 60,60 0 0 1 -0.1832,0.26661 60,60 0 0 1 -0.18465,0.26612 60,60 0 0 1 -0.18609,0.26468 60,60 0 0 1 -0.18707,0.26372 60,60 0 0 1 -0.18898,0.26274 60,60 0 0 1 -0.18996,0.26179 60,60 0 0 1 -0.19188,0.26083 60,60 0 0 1 -0.19284,0.25985 60,60 0 0 1 -0.19477,0.25889 60,60 0 0 1 -0.19574,0.25745 60,60 0 0 1 -0.19718,0.25649 60,60 0 0 1 -0.19864,0.25551 60,60 0 0 1 -0.20007,0.25455 60,60 0 0 1 -0.20104,0.25311 60,60 0 0 1 -0.20297,0.25263 60,60 0 0 1 -0.20393,0.25118 60,60 0 0 1 -0.20538,0.24974 60,60 0 0 1 -0.20683,0.24924 60,60 0 0 1 -0.20778,0.24781 60,60 0 0 1 -0.20972,0.24684 60,60 0 0 1 -0.21068,0.2454 60,60 0 0 1 -0.21213,0.24442 60,60 0 0 1 -0.21358,0.24347 60,60 0 0 1 -0.21453,0.24202 60,60 0 0 1 -0.21599,0.24105 60,60 0 0 1 -0.21743,0.23961 60,60 0 0 1 -0.2184,0.23865 60,60 0 0 1 -0.21984,0.2372 60,60 0 0 1 -0.22129,0.23671 60,60 0 0 1 -0.22225,0.23479 60,60 0 0 1 -0.2237,0.23382 60,60 0 0 1 -0.22515,0.23286 60,60 0 0 1 -0.22611,0.23142 60,60 0 0 1 -0.22756,0.22996 60,60 0 0 1 -0.22852,0.22901 60,60 0 0 1 -0.22996,0.22804 60,60 0 0 1 -0.23093,0.2261 60,60 0 0 1 -0.23238,0.22563 60,60 0 0 1 -0.23382,0.2237 60,60 0 0 1 -0.2348,0.22274 60,60 0 0 1 -0.23574,0.22128 60,60 0 0 1 -0.2372,0.22033 60,60 0 0 1 -0.23865,0.21888 60,60 0 0 1 -0.23913,0.21791 60,60 0 0 1 -0.24105,0.21598 60,60 0 0 1 -0.24154,0.21503 60,60 0 0 1 -0.24298,0.21358 60,60 0 0 1 -0.24444,0.2126 60,60 0 0 1 -0.24539,0.21117 60,60 0 0 1 -0.24635,0.20972 60,60 0 0 1 -0.24733,0.20827 60,60 0 0 1 -0.24877,0.20731 60,60 0 0 1 -0.24973,0.20538 60,60 0 0 1 -0.25118,0.2044 60,60 0 0 1 -0.25167,0.20297 60,60 0 0 1 -0.2531,0.20201 60,60 0 0 1 -0.25456,0.20008 60,60 0 0 1 -0.25503,0.19911 60,60 0 0 1 -0.25648,0.19766 60,60 0 0 1 -0.25745,0.19574 60,60 0 0 1 -0.25841,0.19477 60,60 0 0 1 -0.25937,0.19333 60,60 0 0 1 -0.26035,0.19236 60,60 0 0 1 -0.26178,0.19043 60,60 0 0 1 -0.26276,0.189 60,60 0 0 1 -0.26323,0.18802 60,60 0 0 1 -0.26467,0.18609 60,60 0 0 1 -0.26565,0.18465 60,60 0 0 1 -0.2666,0.18368 60,60 0 0 1 -0.26757,0.18176 60,60 0 0 1 -0.26854,0.18079 60,60 0 0 1 -0.2695,0.17887 60,60 0 0 1 -0.27047,0.17789 60,60 0 0 1 -0.27142,0.17597 60,60 0 0 1 -0.2724,0.17501 60,60 0 0 1 -0.27335,0.17308 60,60 0 0 1 -0.27432,0.17163 60,60 0 0 1 -0.27528,0.17067 60,60 0 0 1 -0.27626,0.16874 60,60 0 0 1 -0.276727,0.16729 60,60 0 0 1 -0.278184,0.16584 60,60 0 0 1 -0.27866,0.16392 60,60 0 0 1 -0.279621,0.16296 60,60 0 0 1 -0.280589,0.16151 60,60 0 0 1 -0.281542,0.15957 60,60 0 0 1 -0.282038,0.15813 60,60 0 0 1 -0.283483,0.15669 60,60 0 0 1 -0.28396,0.15524 60,60 0 0 1 -0.284444,0.15379 60,60 0 0 1 -0.2859,0.15234 60,60 0 0 1 -0.286366,0.15043 60,60 0 0 1 -0.287336,0.14896 60,60 0 0 1 -0.287822,0.14754 60,60 0 0 1 -0.288792,0.14608 60,60 0 0 1 -0.289743,0.14415 60,60 0 0 1 -0.290229,0.1427 60,60 0 0 1 -0.291199,0.14126 60,60 0 0 1 -0.29216,0.13981 60,60 0 0 1 -0.292635,0.13789 60,60 0 0 1 -0.293606,0.13643 60,60 0 0 1 -0.294088,0.135 60,60 0 0 1 -0.294576,0.13354 60,60 0 0 1 -0.295528,0.13162 60,60 0 0 1 -0.296498,0.13016 60,60 0 0 1 -0.296983,0.12873 60,60 0 0 1 -0.297459,0.12679 60,60 0 0 1 -0.298429,0.12535 60,60 0 0 1 -0.29939,0.12391 60,60 0 0 1 -0.29939,0.12197 60,60 0 0 1 -0.300361,0.12053 60,60 0 0 1 -0.300836,0.11859 60,60 0 0 1 -0.301797,0.11764 60,60 0 0 1 -0.302282,0.11522 60,60 0 0 1 -0.302767,0.11426 60,60 0 0 1 -0.303729,0.11234 60,60 0 0 1 -0.304213,0.1104 60,60 0 0 1 -0.304698,0.10944 60,60 0 0 1 -0.305172,0.10751 60,60 0 0 1 -0.305659,0.10558 60,60 0 0 1 -0.306621,0.10413 60,60 0 0 1 -0.30662,0.10222 60,60 0 0 1 -0.307591,0.10124 60,60 0 0 1 -0.308066,0.0988 60,60 0 0 1 -0.308552,0.0974 60,60 0 0 1 -0.309037,0.0959 60,60 0 0 1 -0.309997,0.0945 60,60 0 0 1 -0.309988,0.0921 60,60 0 0 1 -0.310483,0.0911 60,60 0 0 1 -0.310959,0.0892 60,60 0 0 1 -0.311929,0.0872 60,60 0 0 1 -0.311928,0.0858 60,60 0 0 1 -0.312405,0.0839 60,60 0 0 1 -0.31289,0.0825 60,60 0 0 1 -0.313372,0.081 60,60 0 0 1 -0.31385,0.0791 60,60 0 0 1 -0.314336,0.0772 60,60 0 0 1 -0.314821,0.0757 60,60 0 0 1 -0.314821,0.0738 60,60 0 0 1 -0.315297,0.0723 60,60 0 0 1 -0.315782,0.0703 60,60 0 0 1 -0.316267,0.069 60,60 0 0 1 -0.316752,0.067 60,60 0 0 1 -0.316742,0.0656 60,60 0 0 1 -0.317228,0.0636 60,60 0 0 1 -0.317713,0.0622 60,60 0 0 1 -0.318189,0.0603 60,60 0 0 1 -0.318198,0.0583 60,60 0 0 1 -0.318674,0.0569 60,60 0 0 1 -0.318672,0.055 60,60 0 0 1 -0.319159,0.0536 60,60 0 0 1 -0.319635,0.0516 60,60 0 0 1 -0.319644,0.0501 60,60 0 0 1 -0.32012,0.0482 60,60 0 0 1 -0.32012,0.0463 60,60 0 0 1 -0.320605,0.0449 60,60 0 0 1 -0.320605,0.0434 60,60 0 0 1 -0.321081,0.041 60,60 0 0 1 -0.09498,0.0116 60,60 0 0 0 7.406186,0.45896 60,60 0 0 0 60.000104,-59.99962 60,60 0 0 0 -6.46028,-27.08305 60,60 0 0 0 -2.76394,-4.88281 30,30 0 0 0 -0.0164,-0.0236 30,30 0 0 0 -0.13162,-0.18707 30,30 0 0 0 -0.13306,-0.18609 30,30 0 0 0 -0.13499,-0.18513 30,30 0 0 0 -0.13596,-0.18417 30,30 0 0 0 -0.13739,-0.18272 30,30 0 0 0 -0.13885,-0.18223 30,30 0 0 0 -0.13982,-0.1808 30,30 0 0 0 -0.14173,-0.17982 30,30 0 0 0 -0.14272,-0.17887 30,30 0 0 0 -0.14463,-0.17741 30,30 0 0 0 -0.14559,-0.17646 30,30 0 0 0 -0.14656,-0.17549 30,30 0 0 0 -0.1485,-0.17404 30,30 0 0 0 -0.14945,-0.17356 30,30 0 0 0 -0.15138,-0.17163 30,30 0 0 0 -0.15187,-0.17115 30,30 0 0 0 -0.15379,-0.1697 30,30 0 0 0 -0.15476,-0.16826 30,30 0 0 0 -0.1562,-0.16729 30,30 0 0 0 -0.15717,-0.16633 30,30 0 0 0 -0.15861,-0.16488 30,30 0 0 0 -0.16007,-0.16344 30,30 0 0 0 -0.16102,-0.16247 30,30 0 0 0 -0.16247,-0.1615 30,30 0 0 0 -0.16344,-0.15958 30,30 0 0 0 -0.16488,-0.1591 30,30 0 0 0 -0.16633,-0.15717 30,30 0 0 0 -0.16729,-0.1562 30,30 0 0 0 -0.16826,-0.15524 30,30 0 0 0 -0.1697,-0.15331 30,30 0 0 0 -0.17067,-0.15235 30,30 0 0 0 -0.17163,-0.15138 30,30 0 0 0 -0.17308,-0.14946 30,30 0 0 0 -0.17452,-0.14849 30,30 0 0 0 -0.175,-0.14704 30,30 0 0 0 -0.17646,-0.1456 30,30 0 0 0 -0.17789,-0.14463 30,30 0 0 0 -0.17839,-0.14271 30,30 0 0 0 -0.17983,-0.14174 30,30 0 0 0 -0.18078,-0.14028 30,30 0 0 0 -0.18176,-0.13885 30,30 0 0 0 -0.18321,-0.13741 30,30 0 0 0 -0.18368,-0.13596 30,30 0 0 0 -0.18513,-0.13498 30,30 0 0 0 -0.18609,-0.13307 30,30 0 0 0 -0.18707,-0.13209 30,30 0 0 0 -0.18801,-0.13018 30,30 0 0 0 -0.18899,-0.1292 30,30 0 0 0 -0.18995,-0.12728 30,30 0 0 0 -0.19092,-0.12631 30,30 0 0 0 -0.19188,-0.12439 30,30 0 0 0 -0.19285,-0.12342 30,30 0 0 0 -0.19381,-0.12149 30,30 0 0 0 -0.19477,-0.12004 30,30 0 0 0 -0.19573,-0.1186 30,30 0 0 0 -0.19622,-0.11764 30,30 0 0 0 -0.19766,-0.1157 30,30 0 0 0 -0.19815,-0.11378 30,30 0 0 0 -0.19912,-0.11281 30,30 0 0 0 -0.20007,-0.11137 30,30 0 0 0 -0.20104,-0.10944 30,30 0 0 0 -0.20152,-0.10799 30,30 0 0 0 -0.20249,-0.10655 30,30 0 0 0 -0.20345,-0.1051 30,30 0 0 0 -0.20394,-0.10365 30,30 0 0 0 -0.20489,-0.10173 30,30 0 0 0 -0.20586,-0.10028 30,30 0 0 0 -0.20635,-0.0988 30,30 0 0 0 -0.2073,-0.0974 30,30 0 0 0 -0.20779,-0.0954 30,30 0 0 0 -0.20876,-0.094 30,30 0 0 0 -0.20924,-0.0921 30,30 0 0 0 -0.21019,-0.0911 30,30 0 0 0 -0.21068,-0.0892 30,30 0 0 0 -0.21117,-0.0877 30,30 0 0 0 -0.21213,-0.0858 30,30 0 0 0 -0.21261,-0.0844 30,30 0 0 0 -0.21357,-0.0824 30,30 0 0 0 -0.21406,-0.0815 30,30 0 0 0 -0.21454,-0.0795 30,30 0 0 0 -0.21502,-0.0776 30,30 0 0 0 -0.21599,-0.07617 30,30 0 0 0 -0.21598,-0.07473 30,30 0 0 0 -0.21695,-0.0728 30,30 0 0 0 -0.21743,-0.07135 30,30 0 0 0 -0.21792,-0.06942 30,30 0 0 0 -0.21887,-0.06797 30,30 0 0 0 -0.21888,-0.06605 30,30 0 0 0 -0.21936,-0.06461 30,30 0 0 0 -0.22033,-0.06267 30,30 0 0 0 -0.22032,-0.06123 30,30 0 0 0 -0.22081,-0.05978 30,30 0 0 0 -0.22177,-0.05785 30,30 0 0 0 -0.22178,-0.05593 30,30 0 0 0 -0.22225,-0.05447 30,30 0 0 0 -0.22273,-0.05303 30,30 0 0 0 -0.22273,-0.05111 30,30 0 0 0 -0.2237,-0.04918 30,30 0 0 0 -0.2237,-0.04773 30,30 0 0 0 -0.22419,-0.0458 30,30 0 0 0 -0.22466,-0.04435 30,30 0 0 0 -0.22466,-0.04242 30,30 0 0 0 -0.22515,-0.04098 30,30 0 0 0 -0.22563,-0.03905 30,30 0 0 0 -0.22562,-0.03712 30,30 0 0 0 -0.22611,-0.03567 30,30 0 0 0 -0.22612,-0.03374 30,30 0 0 0 -0.22658,-0.0323 30,30 0 0 0 -0.22708,-0.03038 30,30 0 0 0 -0.22659,-0.02892 30,30 0 0 0 -0.22755,-0.027 30,30 0 0 0 -0.22757,-0.02507 30,30 0 0 0 -0.22755,-0.02362 30,30 0 0 0 -0.22755,-0.02169 30,30 0 0 0 -0.22804,-0.02025 30,30 0 0 0 -0.22804,-0.01832 30,30 0 0 0 -0.22804,-0.01639 30,30 0 0 0 -0.22852,-0.01494 30,30 0 0 0 -0.22852,-0.01301 30,30 0 0 0 -0.22852,-0.01157 30,30 0 0 0 -0.22852,-0.0096 30,30 0 0 0 -0.22901,-0.0077 30,30 0 0 0 -0.22852,-0.0063 30,30 0 0 0 -0.229,-0.0044 30,30 0 0 0 -0.22852,-0.0024 30,30 0 0 0 -0.229,-9.33e-4 z" />
      <path
         id="path833-5-0-6"
         style="opacity:0.58637017;fill:#ff6600;fill-opacity:1;stroke:none;stroke-width:0.0839646"
         d="m 68.897158,94.185649 a 30,30 0 0 0 -0.214054,9.33e-4 30,30 0 0 0 -0.228524,0.0028 30,30 0 0 0 -0.229,0.0047 30,30 0 0 0 -0.228524,0.0056 30,30 0 0 0 -0.154756,0.0056 60,60 0 0 1 0.0075,0.0065 60,60 0 0 1 0.241053,0.215985 60,60 0 0 1 0.240092,0.216956 60,60 0 0 1 0.238647,0.218877 60,60 0 0 1 0.2372,0.219838 60,60 0 0 1 0.23623,0.221294 60,60 0 0 1 0.235269,0.222254 60,60 0 0 1 0.233823,0.223701 60,60 0 0 1 0.232377,0.224662 60,60 0 0 1 0.231416,0.226592 60,60 0 0 1 0.230446,0.227078 60,60 0 0 1 0.229009,0.229 60,60 0 0 1 0.227553,0.22996 60,60 0 0 1 0.226593,0.230931 60,60 0 0 1 0.225146,0.232377 60,60 0 0 1 0.224177,0.233833 60,60 0 0 1 0.22274,0.234298 60,60 0 0 1 0.221284,0.236237 60,60 0 0 1 0.220323,0.2372 60,60 0 0 1 0.218887,0.238161 60,60 0 0 1 0.217431,0.239607 60,60 0 0 1 0.216458,0.240569 60,60 0 0 1 0.215024,0.242023 60,60 0 0 1 0.213578,0.242985 60,60 0 0 1 0.212608,0.243945 60,60 0 0 1 0.210686,0.245391 60,60 0 0 1 0.209716,0.246364 60,60 0 0 1 0.208755,0.2478 60,60 0 0 1 0.206824,0.24877 60,60 0 0 1 0.205863,0.24973 60,60 0 0 1 0.204416,0.2507 60,60 0 0 1 0.202962,0.25214 60,60 0 0 1 0.201524,0.25311 60,60 0 0 1 0.200554,0.25407 60,60 0 0 1 0.198633,0.25553 60,60 0 0 1 0.197671,0.256 60,60 0 0 1 0.196217,0.25745 60,60 0 0 1 0.19477,0.2584 60,60 0 0 1 0.193324,0.25986 60,60 0 0 1 0.191887,0.26033 60,60 0 0 1 0.190432,0.2618 60,60 0 0 1 0.189471,0.26226 60,60 0 0 1 0.18754,0.26372 60,60 0 0 1 0.186579,0.26467 60,60 0 0 1 0.184647,0.26565 60,60 0 0 1 0.183202,0.26661 60,60 0 0 1 0.182228,0.26756 60,60 0 0 1 0.18031,0.26854 60,60 0 0 1 0.179348,0.2695 60,60 0 0 1 0.177418,0.27047 60,60 0 0 1 0.176447,0.27143 60,60 0 0 1 0.174525,0.27239 60,60 0 0 1 0.173565,0.27335 60,60 0 0 1 0.171633,0.27432 60,60 0 0 1 0.170177,0.27529 60,60 0 0 1 0.168741,0.27576 60,60 0 0 1 0.167295,0.27722 60,60 0 0 1 0.16584,0.2777 60,60 0 0 1 0.164403,0.27913 60,60 0 0 1 0.162957,0.27963 60,60 0 0 1 0.161025,0.28059 60,60 0 0 1 0.160056,0.28156 60,60 0 0 1 0.158133,0.28203 60,60 0 0 1 0.156688,0.28299 60,60 0 0 1 0.155241,0.28397 60,60 0 0 1 0.153795,0.28493 60,60 0 0 1 0.151864,0.28589 60,60 0 0 1 0.150418,0.28637 60,60 0 0 1 0.149458,0.28686 60,60 0 0 1 0.14704,0.28831 60,60 0 0 1 0.14608,0.28878 60,60 0 0 1 0.144634,0.28974 60,60 0 0 1 0.142703,0.29023 60,60 0 0 1 0.141256,0.2912 60,60 0 0 1 0.139335,0.29216 60,60 0 0 1 0.138365,0.29263 60,60 0 0 1 0.136433,0.29314 60,60 0 0 1 0.134994,0.29408 60,60 0 0 1 0.133056,0.29505 60,60 0 0 1 0.132104,0.29554 60,60 0 0 1 0.130164,0.29649 60,60 0 0 1 0.128242,0.29699 60,60 0 0 1 0.127281,0.29746 60,60 0 0 1 0.12535,0.29842 60,60 0 0 1 0.123419,0.29891 60,60 0 0 1 0.121973,0.29987 60,60 0 0 1 0.120526,0.30036 60,60 0 0 1 0.119081,0.30083 60,60 0 0 1 0.117149,0.30181 60,60 0 0 1 0.115713,0.30228 60,60 0 0 1 0.113781,0.30277 60,60 0 0 1 0.112326,0.30324 60,60 0 0 1 0.11089,0.30421 60,60 0 0 1 0.108949,0.3047 60,60 0 0 1 0.107512,0.30518 60,60 0 0 1 0.105581,0.30613 60,60 0 0 1 0.104144,0.30615 60,60 0 0 1 0.102689,0.3071 60,60 0 0 1 0.100757,0.30758 60,60 0 0 1 0.09931,0.30808 60,60 0 0 1 0.09739,0.30854 60,60 0 0 1 0.09594,0.30904 60,60 0 0 1 0.09401,0.30951 60,60 0 0 1 0.09255,0.31 60,60 0 0 1 0.09068,0.31096 60,60 0 0 1 0.08919,0.31097 60,60 0 0 1 0.08723,0.31144 60,60 0 0 1 0.08583,0.3124 60,60 0 0 1 0.08434,0.31241 60,60 0 0 1 0.08247,0.31289 60,60 0 0 1 0.08051,0.31337 60,60 0 0 1 0.07911,0.31385 60,60 0 0 1 0.07715,0.31435 60,60 0 0 1 0.07566,0.31432 60,60 0 0 1 0.07426,0.31531 60,60 0 0 1 0.0723,0.3153 60,60 0 0 1 0.07034,0.31578 60,60 0 0 1 0.06894,0.31627 60,60 0 0 1 0.06699,0.31674 60,60 0 0 1 0.06512,0.31675 60,60 0 0 1 0.06409,0.31723 60,60 0 0 1 0.06167,0.31771 60,60 0 0 1 0.06027,0.31772 60,60 0 0 1 0.05887,0.31867 60,60 0 0 1 0.05691,0.31819 60,60 0 0 1 0.05495,0.31916 60,60 0 0 1 0.05355,0.31916 60,60 0 0 1 0.05159,0.31963 60,60 0 0 1 0.04963,0.31965 60,60 0 0 1 0.0487,0.31963 60,60 0 0 1 0.04627,0.32061 60,60 0 0 1 0.04488,0.3206 60,60 0 0 1 0.04291,0.3206 60,60 0 0 1 0.04142,0.32109 60,60 0 0 1 0.03956,0.32109 60,60 0 0 1 0.0376,0.32108 60,60 0 0 1 0.0362,0.32156 60,60 0 0 1 0.03471,0.32206 60,60 0 0 1 0.03228,0.32205 60,60 0 0 1 0.03135,0.32205 60,60 0 0 1 0.02892,0.32205 60,60 0 0 1 0.02752,0.32253 60,60 0 0 1 0.02556,0.32253 60,60 0 0 1 0.02407,0.32301 60,60 0 0 1 0.0222,0.32254 60,60 0 0 1 0.02025,0.32301 60,60 0 0 1 0.01884,0.32302 60,60 0 0 1 0.01735,0.32349 60,60 0 0 1 0.01493,0.32301 60,60 0 0 1 0.01353,0.3235 60,60 0 0 1 0.01157,0.3235 60,60 0 0 1 0.01017,0.3235 60,60 0 0 1 0.0084,0.32348 60,60 0 0 1 0.0065,0.3235 60,60 0 0 1 0.0047,0.3235 60,60 0 0 1 0.0028,0.3235 60,60 0 0 1 0.0019,0.32349 60,60 0 0 1 0,0.0767 60,60 0 0 1 -9.33e-4,0.32349 60,60 0 0 1 -0.0028,0.3235 60,60 0 0 1 -0.0047,0.32349 60,60 0 0 1 -0.0065,0.3235 60,60 0 0 1 -0.0075,0.3235 60,60 0 0 1 -0.0096,0.3235 60,60 0 0 1 -0.01157,0.32349 60,60 0 0 1 -0.01306,0.3235 60,60 0 0 1 -0.01493,0.32301 60,60 0 0 1 -0.01642,0.3235 60,60 0 0 1 -0.01829,0.32301 60,60 0 0 1 -0.02025,0.32301 60,60 0 0 1 -0.02174,0.32303 60,60 0 0 1 -0.0236,0.32252 60,60 0 0 1 -0.0251,0.32254 60,60 0 0 1 -0.02696,0.32253 60,60 0 0 1 -0.02892,0.32253 60,60 0 0 1 -0.03041,0.32204 60,60 0 0 1 -0.03228,0.32206 60,60 0 0 1 -0.03377,0.32157 60,60 0 0 1 -0.0362,0.32204 60,60 0 0 1 -0.03713,0.32109 60,60 0 0 1 -0.03909,0.32157 60,60 0 0 1 -0.04096,0.3206 60,60 0 0 1 -0.04292,0.32108 60,60 0 0 1 -0.04431,0.32061 60,60 0 0 1 -0.04581,0.32012 60,60 0 0 1 -0.03181,0.21069 60,60 0 0 1 -0.01642,0.10944 60,60 0 0 1 -0.04917,0.31963 60,60 0 0 1 -0.05159,0.31964 60,60 0 0 1 -0.05299,0.31916 60,60 0 0 1 -0.05448,0.31916 60,60 0 0 1 -0.05644,0.31867 60,60 0 0 1 -0.05831,0.3182 60,60 0 0 1 -0.0598,0.31819 60,60 0 0 1 -0.06167,0.31771 60,60 0 0 1 -0.06316,0.31723 60,60 0 0 1 -0.06512,0.31723 60,60 0 0 1 -0.06652,0.31626 60,60 0 0 1 -0.06848,0.31675 60,60 0 0 1 -0.07034,0.31578 60,60 0 0 1 -0.07184,0.3153 60,60 0 0 1 -0.07324,0.3153 60,60 0 0 1 -0.0752,0.31482 60,60 0 0 1 -0.07715,0.31434 60,60 0 0 1 -0.07855,0.31385 60,60 0 0 1 -0.08005,0.31337 60,60 0 0 1 -0.08247,0.31337 60,60 0 0 1 -0.0834,0.31241 60,60 0 0 1 -0.08536,0.31192 60,60 0 0 1 -0.08723,0.31193 60,60 0 0 1 -0.08872,0.31096 60,60 0 0 1 -0.09012,0.31097 60,60 0 0 1 -0.09208,0.31 60,60 0 0 1 -0.09401,0.30998 60,60 0 0 1 -0.09546,0.30904 60,60 0 0 1 -0.0969,0.30904 60,60 0 0 1 -0.09883,0.30806 60,60 0 0 1 -0.100282,0.30759 60,60 0 0 1 -0.102213,0.3071 60,60 0 0 1 -0.10365,0.30663 60,60 0 0 1 -0.105581,0.30566 60,60 0 0 1 -0.107027,0.30565 60,60 0 0 1 -0.108482,0.3047 60,60 0 0 1 -0.110395,0.30421 60,60 0 0 1 -0.111851,0.30373 60,60 0 0 1 -0.113781,0.30277 60,60 0 0 1 -0.115228,0.30276 60,60 0 0 1 -0.116664,0.3018 60,60 0 0 1 -0.118605,0.30084 60,60 0 0 1 -0.120041,0.30083 60,60 0 0 1 -0.121973,0.29939 60,60 0 0 1 -0.123428,0.29939 60,60 0 0 1 -0.124865,0.29843 60,60 0 0 1 -0.126311,0.29795 60,60 0 0 1 -0.128242,0.29698 60,60 0 0 1 -0.129688,0.2965 60,60 0 0 1 -0.13161,0.29601 60,60 0 0 1 -0.133065,0.29505 60,60 0 0 1 -0.134509,0.29409 60,60 0 0 1 -0.135957,0.2936 60,60 0 0 1 -0.13788,0.29313 60,60 0 0 1 -0.139325,0.29168 60,60 0 0 1 -0.140781,0.29167 60,60 0 0 1 -0.142227,0.29023 60,60 0 0 1 -0.144148,0.29024 60,60 0 0 1 -0.145595,0.28878 60,60 0 0 1 -0.147041,0.2883 60,60 0 0 1 -0.148496,0.28734 60,60 0 0 1 -0.150418,0.28685 60,60 0 0 1 -0.151864,0.28589 60,60 0 0 1 -0.15331,0.28493 60,60 0 0 1 -0.154757,0.28396 60,60 0 0 1 -0.156202,0.28349 60,60 0 0 1 -0.158134,0.28252 60,60 0 0 1 -0.159103,0.28154 60,60 0 0 1 -0.161017,0.28059 60,60 0 0 1 -0.162471,0.28011 60,60 0 0 1 -0.163918,0.27914 60,60 0 0 1 -0.165364,0.2777 60,60 0 0 1 -0.167295,0.27721 60,60 0 0 1 -0.168256,0.27674 60,60 0 0 1 -0.170187,0.27528 60,60 0 0 1 -0.171148,0.27432 60,60 0 0 1 -0.173079,0.27384 60,60 0 0 1 -0.17404,0.27239 60,60 0 0 1 -0.175971,0.27191 60,60 0 0 1 -0.177418,0.27046 60,60 0 0 1 -0.178863,0.26999 60,60 0 0 1 -0.179825,0.26854 60,60 0 0 1 -0.181752,0.26805 60,60 0 0 1 -0.183202,0.2666 60,60 0 0 1 -0.184648,0.26613 60,60 0 0 1 -0.186093,0.26468 60,60 0 0 1 -0.187064,0.26371 60,60 0 0 1 -0.188986,0.26275 60,60 0 0 1 -0.189956,0.26179 60,60 0 0 1 -0.191878,0.26082 60,60 0 0 1 -0.192839,0.25986 60,60 0 0 1 -0.19477,0.25889 60,60 0 0 1 -0.195741,0.25745 60,60 0 0 1 -0.197186,0.25649 60,60 0 0 1 -0.198632,0.25551 60,60 0 0 1 -0.20007,0.25455 60,60 0 0 1 -0.201039,0.25311 60,60 0 0 1 -0.202971,0.25263 60,60 0 0 1 -0.203931,0.25118 60,60 0 0 1 -0.205378,0.24973 60,60 0 0 1 -0.206833,0.24925 60,60 0 0 1 -0.207784,0.24781 60,60 0 0 1 -0.209716,0.24683 60,60 0 0 1 -0.210686,0.24541 60,60 0 0 1 -0.212123,0.24442 60,60 0 0 1 -0.213578,0.24347 60,60 0 0 1 -0.214539,0.24202 60,60 0 0 1 -0.215983,0.24105 60,60 0 0 1 -0.217431,0.23961 60,60 0 0 1 -0.218401,0.23865 60,60 0 0 1 -0.219839,0.2372 60,60 0 0 1 -0.221293,0.23671 60,60 0 0 1 -0.222245,0.23479 60,60 0 0 1 -0.223701,0.23382 60,60 0 0 1 -0.225147,0.23286 60,60 0 0 1 -0.226117,0.23142 60,60 0 0 1 -0.227553,0.22996 60,60 0 0 1 -0.228524,0.22901 60,60 0 0 1 -0.229961,0.22804 60,60 0 0 1 -0.230931,0.2261 60,60 0 0 1 -0.232376,0.22563 60,60 0 0 1 -0.233823,0.2237 60,60 0 0 1 -0.234794,0.22274 60,60 0 0 1 -0.235745,0.22128 60,60 0 0 1 -0.2372,0.22033 60,60 0 0 1 -0.238646,0.21888 60,60 0 0 1 -0.239132,0.21791 60,60 0 0 1 -0.241053,0.21598 60,60 0 0 1 -0.241535,0.21503 60,60 0 0 1 -0.242985,0.21357 60,60 0 0 1 -0.24443,0.21261 60,60 0 0 1 -0.245392,0.21116 60,60 0 0 1 -0.246352,0.20973 60,60 0 0 1 -0.247332,0.20827 60,60 0 0 1 -0.248769,0.20731 60,60 0 0 1 -0.24973,0.20538 60,60 0 0 1 -0.251185,0.2044 60,60 0 0 1 -0.25166,0.20297 60,60 0 0 1 -0.253107,0.20201 60,60 0 0 1 -0.254553,0.20008 60,60 0 0 1 -0.255038,0.19911 60,60 0 0 1 -0.256475,0.19766 60,60 0 0 1 -0.257454,0.19574 60,60 0 0 1 -0.258406,0.19477 60,60 0 0 1 -0.259377,0.19333 60,60 0 0 1 -0.260346,0.19236 60,60 0 0 1 -0.261783,0.19043 60,60 0 0 1 -0.262754,0.189 60,60 0 0 1 -0.263226,0.18802 60,60 0 0 1 -0.264676,0.18609 60,60 0 0 1 -0.265645,0.18465 60,60 0 0 1 -0.266607,0.18368 60,60 0 0 1 -0.267567,0.18176 60,60 0 0 1 -0.268538,0.18079 60,60 0 0 1 -0.269499,0.17886 60,60 0 0 1 -0.270469,0.1779 60,60 0 0 1 -0.27142,0.17597 60,60 0 0 1 -0.2724,0.17501 60,60 0 0 1 -0.273352,0.17308 60,60 0 0 1 -0.274322,0.17163 60,60 0 0 1 -0.275283,0.17066 60,60 0 0 1 -0.276253,0.16875 60,60 0 0 1 -0.276729,0.16729 60,60 0 0 1 -0.278184,0.16584 60,60 0 0 1 -0.27866,0.16392 60,60 0 0 1 -0.279621,0.16295 60,60 0 0 1 -0.280589,0.16152 60,60 0 0 1 -0.281543,0.15957 60,60 0 0 1 -0.282037,0.15813 60,60 0 0 1 -0.283484,0.15669 60,60 0 0 1 -0.283959,0.15524 60,60 0 0 1 -0.284444,0.15379 60,60 0 0 1 -0.2859,0.15234 60,60 0 0 1 -0.286366,0.15043 60,60 0 0 1 -0.287337,0.14896 60,60 0 0 1 -0.287821,0.14754 60,60 0 0 1 -0.288792,0.14608 60,60 0 0 1 -0.289744,0.14415 60,60 0 0 1 -0.290228,0.1427 60,60 0 0 1 -0.291199,0.14126 60,60 0 0 1 -0.29216,0.13981 60,60 0 0 1 -0.292636,0.13789 60,60 0 0 1 -0.293605,0.13643 60,60 0 0 1 -0.294089,0.135 60,60 0 0 1 -0.294576,0.13354 60,60 0 0 1 -0.295527,0.13162 60,60 0 0 1 -0.296498,0.13016 60,60 0 0 1 -0.296983,0.12873 60,60 0 0 1 -0.297459,0.12679 60,60 0 0 1 -0.298429,0.12535 60,60 0 0 1 -0.299391,0.12391 60,60 0 0 1 -0.29939,0.12197 60,60 0 0 1 -0.30036,0.12053 60,60 0 0 1 -0.300836,0.11859 60,60 0 0 1 -0.301797,0.11764 60,60 0 0 1 -0.302282,0.11522 60,60 0 0 1 -0.302768,0.11426 60,60 0 0 1 -0.303728,0.11234 60,60 0 0 1 -0.304213,0.1104 60,60 0 0 1 -0.304699,0.10943 60,60 0 0 1 -0.305171,0.10752 60,60 0 0 1 -0.30566,0.10558 60,60 0 0 1 -0.30662,0.10413 60,60 0 0 1 -0.306621,0.10222 60,60 0 0 1 -0.30759,0.10124 60,60 0 0 1 -0.308067,0.0988 60,60 0 0 1 -0.308551,0.0974 60,60 0 0 1 -0.309037,0.0959 60,60 0 0 1 -0.309997,0.0945 60,60 0 0 1 -0.309989,0.0921 60,60 0 0 1 -0.310483,0.0912 60,60 0 0 1 -0.310958,0.0892 60,60 0 0 1 -0.311929,0.0872 60,60 0 0 1 -0.311929,0.0858 60,60 0 0 1 -0.312404,0.0839 60,60 0 0 1 -0.31289,0.0825 60,60 0 0 1 -0.313372,0.081 60,60 0 0 1 -0.313851,0.0791 60,60 0 0 1 -0.314336,0.0772 60,60 0 0 1 -0.31482,0.0757 60,60 0 0 1 -0.314821,0.0738 60,60 0 0 1 -0.315297,0.0723 60,60 0 0 1 -0.315782,0.0703 60,60 0 0 1 -0.316267,0.0689 60,60 0 0 1 -0.316752,0.067 60,60 0 0 1 -0.316743,0.0656 60,60 0 0 1 -0.317228,0.0636 60,60 0 0 1 -0.317713,0.0622 60,60 0 0 1 -0.318189,0.0603 60,60 0 0 1 -0.318198,0.0583 60,60 0 0 1 -0.318674,0.0569 60,60 0 0 1 -0.318671,0.055 60,60 0 0 1 -0.319159,0.0536 60,60 0 0 1 -0.319635,0.0516 60,60 0 0 1 -0.319644,0.0501 60,60 0 0 1 -0.32012,0.0482 60,60 0 0 1 -0.32012,0.0463 60,60 0 0 1 -0.320605,0.0449 60,60 0 0 1 -0.320606,0.0434 60,60 0 0 1 -0.321081,0.041 60,60 0 0 1 -0.09498,0.0116 60,60 0 0 0 7.406186,0.45897 60,60 0 0 0 60.000072,-59.99962 60,60 0 0 0 -6.460264,-27.08305 60,60 0 0 0 -2.76394,-4.88281 30,30 0 0 0 -0.01642,-0.0236 30,30 0 0 0 -0.131619,-0.18707 30,30 0 0 0 -0.133065,-0.18609 30,30 0 0 0 -0.134987,-0.18513 30,30 0 0 0 -0.135958,-0.18417 30,30 0 0 0 -0.137394,-0.18272 30,30 0 0 0 -0.13885,-0.18223 30,30 0 0 0 -0.13982,-0.1808 30,30 0 0 0 -0.141732,-0.17982 30,30 0 0 0 -0.142709,-0.17887 30,30 0 0 0 -0.144634,-0.17741 30,30 0 0 0 -0.145595,-0.17646 30,30 0 0 0 -0.146556,-0.17549 30,30 0 0 0 -0.148496,-0.17404 30,30 0 0 0 -0.149457,-0.17356 30,30 0 0 0 -0.151379,-0.17163 30,30 0 0 0 -0.151864,-0.17115 30,30 0 0 0 -0.153795,-0.1697 30,30 0 0 0 -0.154757,-0.16826 30,30 0 0 0 -0.156202,-0.1673 30,30 0 0 0 -0.157172,-0.16632 30,30 0 0 0 -0.15861,-0.16488 30,30 0 0 0 -0.160064,-0.16344 30,30 0 0 0 -0.161026,-0.16247 30,30 0 0 0 -0.162472,-0.1615 30,30 0 0 0 -0.163432,-0.15958 30,30 0 0 0 -0.164879,-0.1591 30,30 0 0 0 -0.166334,-0.15717 30,30 0 0 0 -0.167286,-0.1562 30,30 0 0 0 -0.168265,-0.15524 30,30 0 0 0 -0.169702,-0.15331 30,30 0 0 0 -0.170663,-0.15235 30,30 0 0 0 -0.171633,-0.15138 30,30 0 0 0 -0.173079,-0.14946 30,30 0 0 0 -0.174525,-0.14848 30,30 0 0 0 -0.175001,-0.14705 30,30 0 0 0 -0.176457,-0.1456 30,30 0 0 0 -0.177893,-0.14463 30,30 0 0 0 -0.178388,-0.14271 30,30 0 0 0 -0.179821,-0.14174 30,30 0 0 0 -0.180785,-0.14028 30,30 0 0 0 -0.181756,-0.13885 30,30 0 0 0 -0.183211,-0.13741 30,30 0 0 0 -0.183677,-0.13595 A 30,30 0 0 0 86.461265,99.865568 30,30 0 0 0 86.275171,99.732503 30,30 0 0 0 86.088107,99.600407 30,30 0 0 0 85.900091,99.470234 30,30 0 0 0 85.711106,99.341031 30,30 0 0 0 85.52115,99.21375 30,30 0 0 0 85.330233,99.087439 30,30 0 0 0 85.138355,98.96305 30,30 0 0 0 84.945506,98.839631 30,30 0 0 0 84.751697,98.718144 30,30 0 0 0 84.556927,98.598102 30,30 0 0 0 84.361196,98.479507 30,30 0 0 0 84.164971,98.361863 30,30 0 0 0 83.967308,98.24616 30,30 0 0 0 83.769161,98.132388 30,30 0 0 0 83.570043,98.019567 30,30 0 0 0 83.369974,97.908202 30,30 0 0 0 83.168935,97.798761 30,30 0 0 0 82.96741,97.690773 30,30 0 0 0 82.764925,97.584222 30,30 0 0 0 82.561469,97.479126 30,30 0 0 0 82.35754,97.375467 a 30,30 0 0 0 -0.204892,-0.101718 30,30 0 0 0 -0.205863,-0.100282 30,30 0 0 0 -0.206348,-0.09884 30,30 0 0 0 -0.207299,-0.09738 30,30 0 0 0 -0.207794,-0.09546 30,30 0 0 0 -0.208755,-0.09401 30,30 0 0 0 -0.20924,-0.09208 30,30 0 0 0 -0.210192,-0.09115 30,30 0 0 0 -0.210686,-0.08919 30,30 0 0 0 -0.211162,-0.0877 30,30 0 0 0 -0.212132,-0.08583 30,30 0 0 0 -0.212608,-0.08434 30,30 0 0 0 -0.213578,-0.08247 30,30 0 0 0 -0.214054,-0.08144 30,30 0 0 0 -0.214539,-0.07958 30,30 0 0 0 -0.215024,-0.07762 30,30 0 0 0 -0.215985,-0.07613 30,30 0 0 0 -0.215985,-0.07473 30,30 0 0 0 -0.216947,-0.07277 30,30 0 0 0 -0.217431,-0.07137 30,30 0 0 0 -0.217916,-0.06941 30,30 0 0 0 -0.218877,-0.06801 30,30 0 0 0 -0.218875,-0.06605 30,30 0 0 0 -0.219362,-0.06456 30,30 0 0 0 -0.220324,-0.06269 30,30 0 0 0 -0.220323,-0.0612 30,30 0 0 0 -0.220808,-0.0598 30,30 0 0 0 -0.22177,-0.05784 30,30 0 0 0 -0.221779,-0.05588 30,30 0 0 0 -0.222254,-0.05448 30,30 0 0 0 -0.22273,-0.05299 30,30 0 0 0 -0.222731,-0.05112 30,30 0 0 0 -0.2237,-0.04917 30,30 0 0 0 -0.223701,-0.04777 30,30 0 0 0 -0.224186,-0.04581 30,30 0 0 0 -0.224661,-0.04431 30,30 0 0 0 -0.224662,-0.04245 30,30 0 0 0 -0.225146,-0.04096 30,30 0 0 0 -0.225632,-0.03909 30,30 0 0 0 -0.225622,-0.03713 30,30 0 0 0 -0.226108,-0.03564 30,30 0 0 0 -0.226117,-0.03377 30,30 0 0 0 -0.226583,-0.03228 30,30 0 0 0 -0.227078,-0.03041 30,30 0 0 0 -0.22659,-0.02892 30,30 0 0 0 -0.227554,-0.02696 30,30 0 0 0 -0.227563,-0.0251 30,30 0 0 0 -0.227553,-0.0236 30,30 0 0 0 -0.227554,-0.02174 30,30 0 0 0 -0.228039,-0.02024 30,30 0 0 0 -0.228038,-0.01829 30,30 0 0 0 -0.228039,-0.01642 30,30 0 0 0 -0.228524,-0.01493 30,30 0 0 0 -0.228515,-0.01306 30,30 0 0 0 -0.228523,-0.01157 30,30 0 0 0 -0.228515,-0.0096 30,30 0 0 0 -0.229009,-0.0075 30,30 0 0 0 -0.228524,-0.0065 30,30 0 0 0 -0.229,-0.0047 30,30 0 0 0 -0.228523,-0.0028 30,30 0 0 0 -0.229,-9.33e-4 z" />
    </g>
  </g>
</svg>
